<?xml version="1.0" encoding="UTF-8"?>
<svg id="Layer_2" data-name="Layer 2" xmlns="http://www.w3.org/2000/svg" xmlns:xlink="http://www.w3.org/1999/xlink" viewBox="0 0 373.14 277.46">
  <defs>
    <style>
      .cls-1 {
        fill: #fff;
      }

      .cls-2 {
        fill: #f15f65;
      }

      .cls-3 {
        filter: url(#drop-shadow-1);
      }

      .cls-4 {
        clip-path: url(#clippath-1);
      }

      .cls-5 {
        clip-path: url(#clippath);
      }

      .cls-6 {
        fill: none;
      }

      .cls-7 {
        fill: #edeced;
      }
    </style>
    <clipPath id="clippath">
      <rect class="cls-6" width="373.14" height="277.46"/>
    </clipPath>
    <filter id="drop-shadow-1" filterUnits="userSpaceOnUse">
      <feOffset dx="5.67" dy="5.67"/>
      <feGaussianBlur result="blur" stdDeviation="0"/>
      <feFlood flood-color="#231f20" flood-opacity=".25"/>
      <feComposite in2="blur" operator="in"/>
      <feComposite in="SourceGraphic"/>
    </filter>
    <clipPath id="clippath-1">
      <ellipse id="SVGID" class="cls-6" cx="183.75" cy="73.16" rx="183.75" ry="199.01"/>
    </clipPath>
  </defs>
  <g id="Layer_1-2" data-name="Layer 1">
    <g class="cls-5">
      <g class="cls-3">
        <ellipse class="cls-2" cx="183.75" cy="73.16" rx="183.75" ry="199.01"/>
        <g class="cls-4">
          <path class="cls-1" d="M100.27,98.64s-6.62-148.24,93.13-224.26c120.19-27.6,157.08,115.03,157.08,115.03C313.35,59.57,125.01,119.05,125.01,119.05l-24.74-20.41Z"/>
          <path class="cls-1" d="M84.47,140.25s-46.38,24.59-66.67,22.92C-39.98,89.44,15.9-13.17,15.9-13.17c-1.04,72.78,61.85,109.51,61.85,109.51l6.72,43.91Z"/>
          <path class="cls-1" d="M91.3,145.9s5.5,90.72,24.2,112.45c114.13,66.47,196.85-42.17,196.85-42.17-82.29,27.57-193.45-71.42-194.95-63.81l-26.1-6.47Z"/>
        </g>
        <path class="cls-7" d="M72.59,92.37c-12.78,13.25-11.26,39.23,3.39,58.02,14.65,18.79,36.87,23.28,49.65,10.03,12.78-13.25,11.26-39.23-3.38-58.02-14.65-18.79-36.87-23.28-49.65-10.03Z"/>
      </g>
    </g>
  </g>
</svg>