<?xml version="1.0" encoding="UTF-8"?>
<svg id="Layer_2" data-name="Layer 2" xmlns="http://www.w3.org/2000/svg" xmlns:xlink="http://www.w3.org/1999/xlink" viewBox="0 0 594.95 609.04">
  <defs>
    <style>
      .cls-1 {
        fill: #b1e0e4;
      }

      .cls-2 {
        fill: #74c9b9;
      }

      .cls-3 {
        fill: #5ec2b2;
      }

      .cls-4 {
        opacity: .4;
      }

      .cls-5 {
        clip-path: url(#clippath);
      }

      .cls-6 {
        fill: none;
      }
    </style>
    <clipPath id="clippath">
      <rect class="cls-6" width="594.95" height="609.04"/>
    </clipPath>
  </defs>
  <g id="Layer_1-2" data-name="Layer 1">
    <g class="cls-5">
      <rect class="cls-3" x="-.32" width="596.41" height="613.81"/>
      <g class="cls-4">
        <path class="cls-6" d="M72.35,42.03c18.53,.39,37.03,5.12,54.93,9.69,5.93,1.52,12.06,3.08,18.1,4.46,64.22,14.72,130.03,11.73,191.92,7.41l9.47-.67c21.22-1.51,43.16-3.08,64.78-3.21,.98,0,1.97,0,2.96,0,28.12,0,56.58,2.34,84.14,4.6,20.73,1.7,42.17,3.46,63.28,4.21,11.25,.4,22.51,.49,33.76,.33v-24.98c-26.76,.81-53.49,3.79-79.93,9.02-1.73,.34-3.46,.7-5.2,1.05-13.78,2.8-28.03,5.7-42.11,3.79-12.18-1.65-23.98-6.86-35.39-11.91-4.64-2.05-9.42-4.17-14.16-6.01-49.01-19.07-101.22-12.51-151.72-6.18-40.12,5.03-81.61,10.24-121.77,2.82-22.24-4.11-44.26-12.15-65.55-19.92C62.5,10.19,44.55,3.63,26.6-.74c-7.48-1.82-15.65-3.36-24.23-4.27V50.95c7.59-1,15.21-2.34,22.63-3.66,15.47-2.75,31.49-5.58,47.35-5.26Z"/>
        <path class="cls-6" d="M80.39,13.92c21.23,7.75,43.18,15.76,65.29,19.85,39.92,7.38,81.29,2.18,121.3-2.83,50.68-6.36,103.09-12.93,152.47,6.27,4.78,1.86,9.58,3.98,14.23,6.04,11.31,5,23,10.17,34.96,11.79,13.83,1.86,27.95-1,41.6-3.77,1.74-.35,3.47-.71,5.2-1.05,26.54-5.25,53.37-8.24,80.22-9.06V-16.57H2.37V-7.72c8.71,.92,17,2.47,24.59,4.32C45,1,62.99,7.57,80.39,13.92Z"/>
        <path class="cls-6" d="M557.44,152.69c-10.79,1-21.74,2.68-32.34,4.31-17.23,2.64-35.1,5.44-52.68,5.27-20.46-.12-41.04-4.06-60.94-7.87-11.06-2.12-22.51-4.31-33.79-5.82-28.58-3.82-57.45-3.45-86.2-1.1,22.75,2.32,45.17,7.66,66.85,18.07,14.67,7.04,29.17,16.48,43.19,25.6,29.14,18.97,59.28,38.57,91.57,36.7,19.61-1.14,38.73-10.29,57.22-19.14,14.75-7.07,29.87-14.28,45.36-17.5v-39.81c-12.76-.15-25.57,.11-38.24,1.28Z"/>
        <path class="cls-6" d="M71.49,304.96c39.86,7.03,80.85,4.86,120.5,2.76,39.22-2.07,79.78-4.22,119.31,2.51,21,3.58,42.06,9.73,62.42,15.67,26.77,7.82,54.45,15.9,82.19,18.17,33.54,2.75,67.6-2.98,100.54-8.52,12.94-2.17,26.05-4.37,39.23-6.08v-23.83c-12.06-2.86-24.04-6.06-35.91-9.25-18.38-4.94-37.4-10.05-56.13-13.66-44.99-8.69-90.67-9.26-135.78-1.68-11.08,1.86-22.41,4.25-33.36,6.56-37.39,7.89-76.05,16.05-113.32,5.07-8.54-2.52-17.01-6.06-25.21-9.48-8.1-3.39-16.47-6.89-24.87-9.37-37.93-11.24-77.35-2.49-115.47,5.97-17.46,3.87-35.45,7.84-53.27,9.93v.89c13.1,1.82,26.12,4.82,38.87,7.82,9.91,2.33,20.15,4.74,30.24,6.52Z"/>
        <path class="cls-6" d="M81.16,153.36c35.39,4.05,71.99,.57,107.38-2.8,28.66-2.72,57.82-5.5,86.61-4.25,18.93-1.99,37.95-3.31,56.94-3.31,15.3,0,30.59,.85,45.81,2.89,11.33,1.51,22.79,3.71,33.88,5.83,19.83,3.8,40.34,7.72,60.66,7.85,17.5,.13,35.28-2.62,52.45-5.25,10.61-1.63,21.59-3.31,32.43-4.32,12.73-1.18,25.59-1.44,38.38-1.29v-35.28c-10.77-1.95-21.46-4.31-32.02-6.63-11.53-2.54-23.47-5.16-35.21-7.2-59.48-10.32-120.57-6.68-179.66-3.16-51.48,3.06-104.7,6.23-156.8,.2-22.06-2.56-44.35-6.81-65.91-10.93-30.4-5.81-61.84-11.82-93.01-13.11-10.54-.44-20.77-.22-30.7,.56v63.25c2.39,.62,4.78,1.23,7.16,1.85,23.45,6.08,47.69,12.36,71.63,15.1Z"/>
        <path class="cls-6" d="M104.53,410.8c10.16,3.53,20.49,7.43,30.48,11.19,40.12,15.12,81.61,30.75,123.48,27.76,18.99-1.36,38.01-6.6,56.4-11.67,4.61-1.27,9.21-2.54,13.82-3.75,77.03-20.26,155.66-24.83,233.72-13.55l4.97,.72c9.24,1.35,18.74,2.73,28.28,3.71v-49.88c-23.77-.34-47.6,1.94-70.93,4.19-26.72,2.58-54.36,5.23-81.52,3.93-22.58-1.1-45.41-4.97-67.48-8.71-30.34-5.15-61.71-10.46-92.68-8.59-12.04,.73-24.33,2.57-36.21,4.34-25.94,3.86-52.77,7.86-78.67,.68-12.54-3.48-24.75-9.57-36.55-15.47-14.07-7.02-28.61-14.28-43.64-17.04-27.16-4.98-54.2,4.96-74.73,14.17-3.54,1.59-7.19,3.31-10.89,5.19v37.52c6.44-.84,12.9-1.23,19.31-1.23,30.19,0,59.54,8.37,82.85,16.48Z"/>
        <path class="cls-6" d="M34.48,513.96c39.06-.63,78.29-10.01,116.23-19.08,37.08-8.86,75.41-18.03,113.65-19.06,26.21-.7,52.77,2.39,78.45,5.39,24.93,2.91,50.68,5.93,76.1,5.43,37.91-.73,76.01-9.28,112.86-17.55,20.91-4.69,42.47-9.51,63.9-12.9v-28.26c-9.62-.98-19.19-2.37-28.5-3.73l-4.97-.72c-77.85-11.24-156.28-6.69-233.11,13.51-4.6,1.21-9.2,2.48-13.8,3.75-18.46,5.09-37.56,10.35-56.71,11.72-42.19,3.03-83.85-12.67-124.13-27.85-9.98-3.76-20.3-7.65-30.44-11.18-44.38-15.45-77.06-18.31-101.65-15.26v112.95c11.32,2.65,22.54,3,32.11,2.85Z"/>
        <path class="cls-6" d="M532.11,471.75c-36.92,8.28-75.1,16.85-113.17,17.59-25.48,.51-51.33-2.52-76.31-5.44-25.63-2.99-52.12-6.08-78.23-5.38-38.08,1.03-76.34,10.18-113.34,19.02-38.02,9.09-77.34,18.49-116.56,19.12-1.22,.02-2.47,.03-3.75,.03-8.69,0-18.49-.55-28.38-2.83v150.89H595.68v-205.85c-21.31,3.38-42.76,8.18-63.57,12.85Z"/>
        <path class="cls-6" d="M88.26,335.98c15.25,2.79,29.9,10.11,44.07,17.18,11.74,5.86,23.87,11.92,36.26,15.36,25.59,7.1,52.26,3.12,78.04-.72,11.92-1.78,24.24-3.61,36.34-4.35,31.15-1.91,62.6,3.44,93.02,8.6,22.03,3.74,44.81,7.6,67.3,8.69,27.05,1.32,54.63-1.35,81.31-3.92,23.36-2.25,47.24-4.54,71.07-4.2v-40.42c-13.1,1.7-26.12,3.89-38.98,6.05-33.03,5.55-67.2,11.28-100.91,8.53-27.9-2.28-55.65-10.38-82.5-18.23-20.32-5.93-41.33-12.07-62.24-15.63-39.36-6.7-79.83-4.57-118.97-2.49-39.73,2.1-80.82,4.27-120.85-2.78-10.14-1.79-20.4-4.2-30.33-6.54-12.65-2.97-25.55-6-38.52-7.81v61.84c3.47-1.76,6.91-3.37,10.24-4.86,20.74-9.31,48.07-19.34,75.65-14.29Z"/>
        <path class="cls-6" d="M171.54,271.2c8.48,2.51,16.9,6.03,25.03,9.43,8.15,3.41,16.58,6.93,25.04,9.42,36.89,10.87,75.36,2.75,112.57-5.1,10.97-2.31,22.31-4.71,33.43-6.57,45.29-7.6,91.15-7.03,136.32,1.69,18.79,3.63,37.83,8.74,56.24,13.69,11.74,3.16,23.59,6.33,35.51,9.16v-36.54c-25.2,9.55-54.15,12.16-86.5,7.66-27.76-3.86-55.42-12.3-82.17-20.46-10.95-3.34-22.27-6.79-33.43-9.88-72.59-20.09-130.92-22.23-183.57-6.72-5.84,1.72-11.79,3.72-17.54,5.65-19.71,6.62-40.1,13.44-60.56,10.78-16.38-2.14-31.96-10.31-47.03-18.2-7.06-3.7-14.37-7.53-21.65-10.68-19.73-8.53-40.3-12.56-60.86-12.08v74.58c17.68-2.09,35.57-6.04,52.93-9.89,38.31-8.51,77.92-17.29,116.24-5.94Z"/>
        <path class="cls-6" d="M97.73,166.51c37.98-.61,76.55-6.27,113.84-11.75,14.13-2.07,28.39-4.17,42.73-6-21.9,.34-43.9,2.43-65.61,4.5-35.47,3.37-72.15,6.86-107.7,2.79-24.05-2.75-48.34-9.05-71.84-15.14-2.25-.58-4.51-1.17-6.77-1.75v24.47c12.3,.26,24.61,.82,36.83,1.38,19.28,.89,39.22,1.81,58.53,1.49Z"/>
        <path class="cls-6" d="M63.86,221.96c7.34,3.18,14.67,7.02,21.77,10.73,14.94,7.83,30.39,15.92,46.49,18.03,20.11,2.62,40.32-4.15,59.86-10.71,5.77-1.93,11.73-3.94,17.6-5.66,23.19-6.83,47.47-10.26,73.56-10.26,33.47,0,69.9,5.64,110.86,16.97,11.18,3.09,22.52,6.55,33.47,9.89,26.69,8.14,54.29,16.56,81.92,20.4,32.34,4.49,61.22,1.84,86.29-7.79v-69.61c-15.22,3.22-30.11,10.34-44.67,17.31-18.63,8.92-37.9,18.14-57.81,19.3-32.77,1.9-63.18-17.86-92.54-36.97-13.97-9.09-28.42-18.5-42.98-25.49-26.59-12.76-54.36-17.85-82.5-19.07-21.29,2.25-42.47,5.36-63.38,8.42-37.34,5.48-75.95,11.15-114.03,11.77-19.35,.31-39.31-.6-58.62-1.49-12.2-.56-24.48-1.12-36.76-1.38v43.41c20.77-.48,41.55,3.59,61.48,12.21Z"/>
        <path class="cls-6" d="M33.13,69.9c31.28,1.3,62.78,7.31,93.24,13.13,21.53,4.11,43.79,8.37,65.79,10.92,51.97,6.02,105.13,2.86,156.53-.21,59.17-3.52,120.36-7.17,180.01,3.18,11.78,2.05,23.73,4.67,35.28,7.22,10.45,2.3,21.04,4.63,31.69,6.57v-39.16c-11.27,.16-22.54,.06-33.81-.33-21.14-.75-42.59-2.51-63.35-4.22-28.49-2.34-57.91-4.72-86.96-4.58-21.57,.13-43.48,1.69-64.68,3.2l-9.47,.67c-62.01,4.34-127.94,7.33-192.38-7.44-6.05-1.39-12.2-2.96-18.14-4.47-17.81-4.55-36.23-9.26-54.58-9.65-15.73-.34-31.65,2.5-47.05,5.24-7.5,1.34-15.21,2.69-22.9,3.7v16.81c9.95-.78,20.2-1.02,30.76-.58Z"/>
        <path class="cls-1" d="M104.02,413.41c10.14,3.53,20.46,7.42,30.44,11.18,40.28,15.18,81.94,30.88,124.13,27.85,19.15-1.37,38.24-6.63,56.71-11.72,4.6-1.27,9.2-2.53,13.8-3.75,76.83-20.2,155.26-24.75,233.11-13.51l4.97,.72c9.31,1.36,18.88,2.75,28.5,3.73v-2.71c-9.54-.98-19.04-2.36-28.28-3.71l-4.97-.72c-78.06-11.28-156.69-6.71-233.72,13.55-4.61,1.21-9.21,2.48-13.82,3.75-18.39,5.07-37.41,10.31-56.4,11.67-41.86,2.99-83.35-12.64-123.48-27.76-9.99-3.76-20.32-7.66-30.48-11.19-23.31-8.11-52.66-16.48-82.85-16.48-6.42,0-12.87,.39-19.31,1.23v2.6c24.58-3.06,57.26-.19,101.65,15.26Z"/>
        <path class="cls-1" d="M72.31,44.73c18.35,.39,36.77,5.09,54.58,9.65,5.94,1.52,12.08,3.09,18.14,4.47,64.43,14.77,130.36,11.78,192.38,7.44l9.47-.67c21.19-1.51,43.11-3.08,64.68-3.2,29.05-.14,58.47,2.25,86.96,4.58,20.75,1.71,42.21,3.47,63.35,4.22,11.27,.4,22.54,.49,33.81,.33v-2.71c-11.25,.16-22.51,.07-33.76-.33-21.1-.75-42.54-2.51-63.28-4.21-27.56-2.26-56.02-4.6-84.14-4.6-.98,0-1.97,0-2.96,0-21.62,.13-43.56,1.69-64.78,3.21l-9.47,.67c-61.89,4.32-127.7,7.32-191.92-7.41-6.04-1.38-12.17-2.95-18.1-4.46-17.89-4.57-36.4-9.3-54.93-9.69-15.86-.32-31.88,2.51-47.35,5.26-7.42,1.32-15.04,2.66-22.63,3.66v2.71c7.69-1.01,15.4-2.36,22.9-3.7,15.39-2.74,31.32-5.57,47.05-5.24Z"/>
        <path class="cls-1" d="M79.85,16.52c21.29,7.77,43.3,15.81,65.55,19.92,40.15,7.42,81.64,2.21,121.77-2.82,50.5-6.33,102.71-12.88,151.72,6.18,4.74,1.84,9.53,3.96,14.16,6.01,11.41,5.04,23.21,10.26,35.39,11.91,14.08,1.91,28.33-.99,42.11-3.79,1.73-.35,3.47-.7,5.2-1.05,26.44-5.24,53.17-8.21,79.93-9.02v-2.7c-26.86,.82-53.69,3.8-80.22,9.06-1.73,.34-3.47,.69-5.2,1.05-13.65,2.77-27.77,5.64-41.6,3.77-11.96-1.62-23.65-6.79-34.96-11.79-4.65-2.06-9.46-4.18-14.23-6.04-49.38-19.21-101.79-12.64-152.47-6.27-40.01,5.02-81.38,10.21-121.3,2.83-22.11-4.09-44.06-12.1-65.29-19.85C62.99,7.57,45,1,26.97-3.4c-7.59-1.85-15.89-3.41-24.59-4.32v2.71C10.95-4.1,19.12-2.57,26.6-.74c17.95,4.38,35.9,10.93,53.25,17.27Z"/>
        <path class="cls-1" d="M34.5,516.66c39.22-.64,78.54-10.03,116.56-19.12,37-8.84,75.26-17.99,113.34-19.02,26.11-.7,52.61,2.39,78.23,5.38,24.98,2.92,50.82,5.95,76.31,5.44,38.07-.74,76.24-9.3,113.17-17.59,20.81-4.67,42.26-9.46,63.57-12.85v-2.72c-21.43,3.39-42.99,8.21-63.9,12.9-36.85,8.27-74.95,16.82-112.86,17.55-25.43,.5-51.17-2.52-76.1-5.43-25.68-3-52.24-6.09-78.45-5.39-38.24,1.04-76.58,10.2-113.65,19.06-37.94,9.07-77.17,18.45-116.23,19.08-9.56,.15-20.79-.21-32.11-2.85v2.76c9.9,2.28,19.69,2.83,28.38,2.83,1.27,0,2.52-.01,3.75-.03Z"/>
        <path class="cls-1" d="M63.23,224.53c7.28,3.15,14.59,6.98,21.65,10.68,15.07,7.9,30.65,16.06,47.03,18.2,20.46,2.66,40.85-4.17,60.56-10.78,5.75-1.93,11.7-3.93,17.54-5.65,52.65-15.5,110.98-13.37,183.57,6.72,11.17,3.09,22.49,6.54,33.43,9.88,26.75,8.16,54.41,16.6,82.17,20.46,32.35,4.49,61.3,1.89,86.5-7.66v-2.81c-25.07,9.63-53.95,12.28-86.29,7.79-27.64-3.84-55.23-12.26-81.92-20.4-10.96-3.34-22.29-6.8-33.47-9.89-40.95-11.34-77.39-16.97-110.86-16.97-26.09,0-50.37,3.43-73.56,10.26-5.87,1.73-11.84,3.73-17.6,5.66-19.55,6.56-39.75,13.33-59.86,10.71-16.1-2.1-31.55-10.2-46.49-18.03-7.09-3.72-14.43-7.56-21.77-10.73-19.93-8.62-40.71-12.69-61.48-12.21v2.7c20.56-.48,41.13,3.55,60.86,12.08Z"/>
        <path class="cls-1" d="M171.11,273.84c8.4,2.49,16.77,5.99,24.87,9.37,8.19,3.42,16.66,6.97,25.21,9.48,37.26,10.98,75.93,2.82,113.32-5.07,10.95-2.31,22.28-4.7,33.36-6.56,45.1-7.57,90.79-7.01,135.78,1.68,18.73,3.61,37.74,8.72,56.13,13.66,11.87,3.19,23.85,6.4,35.91,9.25v-2.75c-11.92-2.83-23.77-6-35.51-9.16-18.41-4.95-37.45-10.06-56.24-13.69-45.17-8.72-91.03-9.29-136.32-1.69-11.12,1.87-22.46,4.26-33.43,6.57-37.2,7.85-75.68,15.97-112.57,5.1-8.46-2.49-16.88-6.02-25.04-9.42-8.14-3.4-16.55-6.92-25.03-9.43-38.32-11.35-77.93-2.56-116.24,5.94-17.36,3.85-35.25,7.81-52.93,9.89v2.7c17.82-2.09,35.81-6.06,53.27-9.93,38.12-8.46,77.54-17.21,115.47-5.97Z"/>
        <path class="cls-1" d="M97.75,169.21c38.08-.62,76.7-6.28,114.03-11.77,20.91-3.07,42.09-6.18,63.38-8.42,28.14,1.23,55.91,6.31,82.5,19.07,14.56,6.99,29.01,16.39,42.98,25.49,29.36,19.11,59.77,38.87,92.54,36.97,19.92-1.16,39.18-10.38,57.81-19.3,14.56-6.97,29.45-14.09,44.67-17.31v-2.73c-15.49,3.22-30.6,10.43-45.36,17.5-18.49,8.85-37.61,18-57.22,19.14-32.29,1.87-62.43-17.73-91.57-36.7-14.02-9.13-28.52-18.56-43.19-25.6-21.68-10.41-44.1-15.75-66.85-18.07,28.74-2.35,57.62-2.72,86.2,1.1,11.28,1.51,22.73,3.7,33.79,5.82,19.9,3.81,40.48,7.75,60.94,7.87,17.58,.17,35.46-2.63,52.68-5.27,10.59-1.63,21.55-3.31,32.34-4.31,12.67-1.17,25.48-1.43,38.24-1.28v-2.7c-12.79-.15-25.65,.11-38.38,1.29-10.84,1.01-21.82,2.69-32.43,4.32-17.17,2.63-34.95,5.38-52.45,5.25-20.32-.12-40.82-4.05-60.66-7.85-11.09-2.13-22.55-4.32-33.88-5.83-15.22-2.04-30.5-2.89-45.81-2.89-19,0-38.02,1.31-56.94,3.31-28.78-1.25-57.95,1.53-86.61,4.25-35.39,3.37-71.99,6.84-107.38,2.8-23.94-2.74-48.18-9.02-71.63-15.1-2.38-.62-4.77-1.23-7.16-1.85v2.75c2.26,.58,4.52,1.17,6.77,1.75,23.5,6.09,47.8,12.39,71.84,15.14,35.55,4.07,72.23,.58,107.7-2.79,21.71-2.06,43.71-4.15,65.61-4.5-14.33,1.83-28.59,3.93-42.73,6-37.29,5.47-75.85,11.13-113.84,11.75-19.31,.32-39.24-.6-58.53-1.49-12.22-.56-24.53-1.12-36.83-1.38v2.7c12.28,.26,24.56,.82,36.76,1.38,19.3,.89,39.27,1.8,58.62,1.49Z"/>
        <path class="cls-1" d="M71.22,307.65c40.03,7.06,81.12,4.89,120.85,2.78,39.14-2.07,79.61-4.21,118.97,2.49,20.92,3.56,41.93,9.7,62.24,15.63,26.84,7.84,54.6,15.95,82.5,18.23,33.72,2.75,67.88-2.98,100.91-8.53,12.86-2.16,25.88-4.34,38.98-6.05v-2.72c-13.18,1.71-26.29,3.91-39.23,6.08-32.94,5.53-67,11.26-100.54,8.52-27.74-2.26-55.42-10.35-82.19-18.17-20.36-5.95-41.41-12.1-62.42-15.67-39.53-6.73-80.09-4.59-119.31-2.51-39.65,2.1-80.65,4.27-120.5-2.76-10.09-1.78-20.34-4.19-30.24-6.52-12.76-3-25.77-6-38.87-7.82v2.67c12.97,1.81,25.87,4.84,38.52,7.81,9.93,2.34,20.19,4.75,30.33,6.54Z"/>
        <path class="cls-1" d="M87.99,338.66c15.03,2.75,29.57,10.02,43.64,17.04,11.81,5.9,24.02,11.99,36.55,15.47,25.91,7.19,52.73,3.19,78.67-.68,11.88-1.77,24.17-3.6,36.21-4.34,30.97-1.87,62.34,3.44,92.68,8.59,22.08,3.74,44.9,7.62,67.48,8.71,27.16,1.3,54.8-1.35,81.52-3.93,23.32-2.25,47.16-4.53,70.93-4.19v-2.7c-23.83-.34-47.71,1.95-71.07,4.2-26.67,2.57-54.26,5.24-81.31,3.92-22.49-1.09-45.27-4.95-67.3-8.69-30.42-5.16-61.87-10.51-93.02-8.6-12.1,.73-24.43,2.57-36.34,4.35-25.78,3.84-52.45,7.82-78.04,.72-12.38-3.44-24.52-9.5-36.26-15.36-14.17-7.07-28.82-14.39-44.07-17.18-27.58-5.05-54.91,4.98-75.65,14.29-3.33,1.49-6.77,3.11-10.24,4.86v2.89c3.69-1.89,7.35-3.61,10.89-5.19,20.53-9.21,47.57-19.15,74.73-14.17Z"/>
        <path class="cls-1" d="M33.07,72.6c31.17,1.29,62.61,7.3,93.01,13.11,21.56,4.12,43.85,8.38,65.91,10.93,52.09,6.03,105.32,2.86,156.8-.2,59.08-3.52,120.18-7.16,179.66,3.16,11.75,2.04,23.68,4.66,35.21,7.2,10.56,2.32,21.25,4.68,32.02,6.63v-2.73c-10.65-1.94-21.24-4.27-31.69-6.57-11.55-2.54-23.5-5.17-35.28-7.22-59.65-10.36-120.84-6.7-180.01-3.18-51.4,3.07-104.56,6.23-156.53,.21-22-2.55-44.26-6.8-65.79-10.92-30.46-5.82-61.95-11.84-93.24-13.13-10.56-.43-20.81-.2-30.76,.58v2.68c9.93-.78,20.16-1,30.7-.56Z"/>
      </g>
      <g>
        <path class="cls-2" d="M349.21,36.44h-8.24c-2.64,0-5-2.22-5.37-5.32-.47-3.86,2.04-7.17,5.21-7.17,6.02,0,10.9-5.79,10.9-12.93V5.28H94.51c0,6.17,4.22,11.17,9.42,11.17h34c2.48,0,4.69,2.11,4.99,5.03,.36,3.49-1.93,6.47-4.81,6.47h-56.36c-2.85,0-5.4,2.4-5.8,5.74-.5,4.17,2.21,7.75,5.62,7.75h21.23c4.42,0,8,4.25,8,9.49h0c0,4.41,3.02,7.99,6.74,7.99h0c3.72,0,6.74,3.58,6.74,7.99v10.49c0,4.41-3.02,7.99-6.74,7.99h-14.82c-2.54,0-4.59,2.44-4.59,5.45h0c0,3.01,2.06,5.45,4.59,5.45h26.75c2.69,0,4.88,2.59,4.88,5.79h0c0,3.2,2.18,5.79,4.88,5.79h42.95c1.4,0,2.53,1.34,2.53,3h0c0,1.66-1.13,3-2.53,3h-10.48c-1.6,0-3.07,1.27-3.38,3.13-.43,2.53,1.19,4.76,3.25,4.76h83.21c1.6,0,3.07-1.27,3.38-3.13,.43-2.53-1.19-4.76-3.25-4.76h-42.56c-1.4,0-2.53-1.34-2.53-3h0c0-1.66,1.13-3,2.53-3h70.7c3.91,0,7.25-3.71,7.18-8.36-.06-4.75,3.17-8.63,7.16-8.63h31.14c5.35,0,9.69-5.14,9.69-11.49h0c0-6.35-4.34-11.49-9.69-11.49h-7.02c-3.99,0-7.22-3.83-7.22-8.56h0c0-4.73,3.23-8.56,7.22-8.56h27.5c3.03,0,5.74-2.55,6.17-6.11,.54-4.44-2.35-8.24-5.98-8.24Z"/>
        <path class="cls-2" d="M524.61,56.77h-8.79c-2.81,0-5.33-3.73-5.73-8.93-.5-6.48,2.18-12.04,5.56-12.04,6.42,0,11.63-9.72,11.63-21.72V4.46H252.92c0,10.36,4.5,18.76,10.05,18.76h36.27c2.64,0,5,3.54,5.32,8.44,.38,5.87-2.06,10.86-5.13,10.86h-60.12c-3.04,0-5.76,4.03-6.19,9.65-.54,7,2.36,13.01,6,13.01h22.65c4.71,0,8.54,7.14,8.54,15.94h0c0,7.41,3.22,13.42,7.19,13.42h0c3.97,0,7.19,6.01,7.19,13.42v17.62c0,7.41-3.22,13.42-7.19,13.42h-15.81c-2.71,0-4.9,4.1-4.9,9.15h0c0,5.05,2.19,9.15,4.9,9.15h28.54c2.87,0,5.2,4.35,5.2,9.72h0c0,5.37,2.33,9.72,5.2,9.72h45.82c1.49,0,2.7,2.26,2.7,5.04h0c0,2.78-1.21,5.04-2.7,5.04h-11.18c-1.7,0-3.27,2.13-3.6,5.25-.46,4.25,1.27,7.99,3.47,7.99h88.76c1.7,0,3.27-2.13,3.6-5.25,.46-4.25-1.27-7.99-3.47-7.99h-45.4c-1.49,0-2.7-2.26-2.7-5.04h0c0-2.78,1.21-5.04,2.7-5.04h75.42c4.17,0,7.73-6.24,7.66-14.03-.07-7.98,3.38-14.48,7.63-14.48h33.22c5.71,0,10.33-8.64,10.33-19.3h0c0-10.66-4.63-19.3-10.33-19.3h-7.49c-4.25,0-7.7-6.44-7.7-14.38h0c0-7.94,3.45-14.38,7.7-14.38h29.34c3.23,0,6.13-4.28,6.59-10.26,.57-7.45-2.51-13.84-6.38-13.84Z"/>
      </g>
    </g>
  </g>
</svg>