<?xml version="1.0" encoding="UTF-8"?>
<svg id="Layer_2" data-name="Layer 2" xmlns="http://www.w3.org/2000/svg" xmlns:xlink="http://www.w3.org/1999/xlink" viewBox="0 0 595.28 319.97" preserveAspectRatio="none">
  <defs>
    <style>
      .cls-1 {
        fill: #fff4c9;
      }

      .cls-2 {
        clip-path: url(#clippath);
      }

      .cls-3 {
        fill: none;
      }
    </style>
    <clipPath id="clippath">
      <rect class="cls-3" width="595.28" height="319.97"/>
    </clipPath>
  </defs>
  <g id="Layer_1-2" data-name="Layer 1">
    <g class="cls-2">
      <g>
        <path class="cls-1" d="M388.94,88.17h209.13l-21.45-9.97s10.72-12.47,10.72-22.44-12.07,4.99-12.07,4.99c0,0,9.38-37.4,2.68-47.37-6.7-9.97-48.26,44.88-48.26,44.88,0,0-6.7-24.93-14.75-29.92-8.04-4.99-13.41,39.89-13.41,39.89,0,0-5.36-17.45-16.09-12.47-10.72,4.99-14.75,24.93-14.75,24.93,0,0-6.7-14.96-16.09-12.47-9.38,2.49-14.75,12.47-14.75,12.47l-50.94,7.48Z"/>
        <path class="cls-1" d="M20.98,55.31H121.52l-24.13-4.99s13.41-9.97,6.7-14.96c-6.7-4.99-10.72,4.99-10.72,4.99,0,0,1.34-34.91-12.06-39.89-13.41-4.99-25.47,32.41-25.47,32.41,0,0,0-14.96-9.38-12.47-9.38,2.49-5.36,27.43-5.36,27.43l-20.11,7.48Z"/>
      </g>
      <g>
        <path class="cls-1" d="M125.96,263.54c-17.37-1.11-37.9,16.64-37.9,16.64,0,0-12.63-49.93-44.21-51.04-18.28-.64-33.92,9.13-43.85,17.47v73.52H313.87l-58.43-11.1s-7.9-9.99-18.95-12.21c-11.05-2.22-37.9,9.99-37.9,9.99,0,0-11.05-16.64-20.45-17.81-9.39-1.16-39.56,7.82-39.56,7.82,0,0,4.74-32.18-12.63-33.29Z"/>
        <path class="cls-1" d="M598.07,209.37c-27.25,13.5-37.87,41.97-37.87,41.97,0,0-12.63-44.39-50.53-37.73-37.9,6.66-42.63,54.37-42.63,54.37,0,0-7.9-26.63-36.32-23.3-28.42,3.33-25.26,32.18-25.26,32.18,0,0-15.79-8.88-28.42,3.33s23.69,26.63,23.69,26.63c0,0-48.95-2.22-55.27,0l22.11,32.18,230.51-4.15v-125.48Z"/>
      </g>
    </g>
  </g>
</svg>