<?xml version="1.0" encoding="UTF-8"?>
<svg id="Layer_2" data-name="Layer 2" xmlns="http://www.w3.org/2000/svg" xmlns:xlink="http://www.w3.org/1999/xlink" viewBox="0 0 595.2 226.4" preserveAspectRatio="none">
  <defs>
    <style>
      .cls-1 {
        fill: #96c23d;
      }

      .cls-2 {
        fill: #bc9562;
      }

      .cls-3 {
        opacity: .4;
      }

      .cls-3, .cls-4, .cls-5, .cls-6 {
        fill: #e0b274;
      }

      .cls-7 {
        fill: #80bb41;
      }

      .cls-8 {
        fill: #f6d4a5;
      }

      .cls-9 {
        fill: #1d9747;
      }

      .cls-10 {
        fill: #c68034;
      }

      .cls-4 {
        opacity: .2;
      }

      .cls-11 {
        fill: #92c14c;
      }

      .cls-12 {
        fill: #527e3a;
      }

      .cls-13 {
        fill: #fce3c2;
      }

      .cls-14 {
        fill: #e74341;
      }

      .cls-15 {
        fill: #ac702d;
      }

      .cls-16 {
        clip-path: url(#clippath);
      }

      .cls-17 {
        fill: none;
      }

      .cls-6 {
        opacity: .8;
      }

      .cls-18 {
        fill: #5f8d3d;
      }

      .cls-19 {
        fill: #3865ac;
      }

      .cls-20 {
        fill: #1e8341;
      }

      .cls-21 {
        fill: #0d8542;
      }
    </style>
    <clipPath id="clippath">
      <rect class="cls-17" width="595.2" height="226.4"/>
    </clipPath>
  </defs>
  <g id="Layer_1-2" data-name="Layer 1">
    <g class="cls-16">
      <g>
        <path class="cls-8" d="M336.26,226.58c-28.57-39.81-92.95-67.58-167.81-67.58S29.21,186.77,.64,226.58H336.26Z"/>
        <g>
          <g>
            <path class="cls-9" d="M217.42,164.36s-2.21-6.3-5.33-10.02c0,0,7.58,5.72,12.65,7.56,0,0-4.16-4.68-10.46-7.96,0,0,8.32,3.13,17.14,3.33,0,0-7.25-3.77-13.89-4.5,0,0,11.29,.57,18.43-1.24,0,0-7.9-1.09-17.79-.83,0,0,10.87-1.42,17.74-5.36,0,0-8.54,1.15-15.38,2.84,0,0,8.18-3.62,13.85-8.09,0,0-6.89,1.69-13.71,5.54,0,0,6.59-4.72,10.49-9.21,0,0-7.01,2.72-13.15,8.01,0,0,5.94-5.42,9.57-11.47,0,0-6.93,4.24-12.39,10.92,0,0,4.3-6.43,5.82-13.16,0,0-4.83,5.26-7.98,12.75,0,0,1.53-7.07,1.14-13.65,0,0-3.13,8.87-3.83,14.96,0,0-1.61-9.19-3.01-12.84,0,0-1,5.18,.63,13.46,0,0-4.28-6.58-7.31-9.13,0,0,1.96,6.51,6.51,11.89,0,0-4.98-3.91-9.89-5.62,0,0,3.71,4.24,9.7,7.69,0,0-4.22-1.18-10.17-.95,0,0,4.93,2.89,11.56,2.67l-7.65,5.18,.61,.71,7.59-5.68c-.23,1.15-1.16,6.33,.11,10.48,0,0,1.47-3.36,1.25-8.12,0,0,2.16,6.35,7.15,9.87Z"/>
            <path class="cls-9" d="M188.61,133.71s-4.84-4.02-9.09-5.73c0,0,8.67,1.6,13.46,1.16,0,0-5.52-2.06-11.99-2.27,0,0,7.94-.65,14.8-3.74,0,0-7.44-.23-12.9,1.65,0,0,8.94-3.7,13.51-7.71,0,0-6.6,2.06-14.05,5.89,0,0,7.62-5.08,10.93-10.62,0,0-5.98,4.01-10.38,7.82,0,0,4.47-5.77,6.59-11.28,0,0-4.44,3.82-7.75,9.28,0,0,2.7-6.03,3.45-10.91,0,0-4.01,4.66-6.09,10.97,0,0,1.85-6.33,1.62-12.31,0,0-3.2,5.79-4.06,12.92,0,0,.08-6.51-2.1-12.23,0,0-1.08,5.8,.24,12.7,0,0-2.35-5.99-5.93-10.89,0,0,2.03,7.95,4.52,12.88,0,0-5.82-6.46-8.71-8.74,0,0,1.82,4.34,7.19,10.09,0,0-6.56-3.48-10.16-4.32,0,0,4.75,4.28,10.92,6.73,0,0-5.77-1.17-10.38-.68,0,0,4.96,1.89,11.28,2.34,0,0-3.82,.64-8.27,3,0,0,5.22,.41,10.19-2.2l-3.28,6.78,.82,.32,2.98-7.14c.39,.96,2.27,5.28,5.31,7.99,0,0-.55-3.11-3.09-6.69,0,0,4.82,4.07,10.41,4.95Z"/>
            <path class="cls-9" d="M85.84,136.28s-6.97,2.78-10.82,5.96c0,0,5.53-7.26,6.93-11.83,0,0-4.82,4.2-7.71,10.03,0,0,2.43-7.52,1.4-15.05,0,0-3.32,6.7-3.22,12.45,0,0-.95-9.68-4.06-15.49,0,0-.14,6.87,1.58,15.24,0,0-3.19-9.04-8.72-14.32,0,0,2.55,7.1,5.47,12.67,0,0-5.35-6.44-11.33-10.63,0,0,2.93,5.62,8.36,10.87,0,0-6.39-4.93-12.14-7.61,0,0,4.15,5.57,11.13,10.04,0,0-7.11-4.28-14.63-6.5,0,0,5.89,5.29,14.39,8.98,0,0-8.05-2.73-16.04-3.07,0,0,6.77,3.36,15.87,4.97,0,0-8.4-.29-15.94,.98,0,0,10.7,1.39,17.84,1.13,0,0-10.39,2.68-14.41,4.39,0,0,6.13,.11,15.47-2.46,0,0-7,4.57-9.51,7.52,0,0,7.25-2.59,12.81-7.23,0,0-3.81,4.79-5.08,9.21,0,0,4.37-3.76,7.5-9.35,0,0-.76,3.75,.35,8.78,0,0,2.64-4.6,1.43-10.21l7.07,5.77,.74-.62-7.65-5.64c1.36,.03,7.48,.08,12.09-1.59,0,0-4.09-.77-9.57,.1,0,0,7.03-2.74,10.39-7.49Z"/>
            <path class="cls-20" d="M190.76,141.54c-.86-2.85-2.45-5.08-3.07-5.88,.02,0,.04-.01,.06-.02,.26-.08,.51-.17,.77-.25,.26-.09,.52-.19,.78-.28,.52-.19,1.05-.38,1.59-.58,.15-.06,.3-.12,.45-.18,.26,1,1.11,3.73,3.02,6.49,2.39,3.47,5.56,5.65,5.56,5.65,0,0-.72-3.43-3.12-6.9-1.89-2.74-4.26-4.67-5.17-5.37,.29-.12,.57-.24,.86-.35,.83-.32,1.64-.69,2.45-1.06,.47,.84,2.01,3.4,4.65,5.75,3.22,2.87,6.85,4.35,6.85,4.35,0,0-1.59-3.17-4.8-6.04-2.58-2.3-5.42-3.71-6.45-4.18,.17-.08,.34-.16,.51-.23l.8-.37,.77-.4c.38-.19,.75-.39,1.12-.58,.56,.68,2.63,3.05,5.82,5.04,3.76,2.35,7.65,3.27,7.65,3.27,0,0-2.22-2.89-5.98-5.24-3.08-1.92-6.24-2.89-7.29-3.17,.07-.04,.14-.07,.21-.11,.52-.25,1-.55,1.48-.83,.43-.25,.85-.49,1.27-.74,.62,.6,2.83,2.61,6.02,4.11,3.81,1.78,7.57,2.16,7.57,2.16,0,0-2.4-2.51-6.21-4.3-3.06-1.43-6.09-1.96-7.16-2.11,.45-.25,.87-.53,1.28-.81,.36-.24,.71-.47,1.06-.7,.56,.39,3.1,2.1,6.57,3.12,3.94,1.16,7.57,.99,7.57,.99,0,0-2.75-2.04-6.69-3.2-3.33-.98-6.44-1.01-7.32-1,.02-.01,.04-.03,.07-.04,.84-.52,1.56-1.1,2.25-1.6,.05-.04,.09-.07,.14-.1,.78,.4,3.14,1.52,6.11,2.06,3.66,.66,6.88,.2,6.88,.2,0,0-2.72-1.54-6.39-2.2-2.75-.5-5.25-.36-6.33-.26,.19-.14,.38-.28,.56-.42,.31-.23,.61-.45,.86-.68,.14-.12,.28-.24,.41-.35,.76,.24,2.85,.84,5.34,.91,3.14,.08,5.71-.71,5.71-.71,0,0-2.51-.93-5.65-1.01-2.22-.06-4.15,.32-5.09,.54,.23-.19,.44-.37,.63-.53,.46-.39,.79-.67,.99-.83,.75,.08,2.59,.2,4.57-.24,2.59-.57,4.44-1.86,4.44-1.86,0,0-2.35-.37-4.93,.19-1.56,.34-2.84,.94-3.63,1.37,.62-.59,1.55-1.59,2.21-2.87,1.08-2.1,1.04-4.14,1.04-4.14,0,0-1.79,1.35-2.87,3.45-.8,1.56-.98,3.09-1.02,3.77-.17,.14-.54,.45-1.09,.9-.09,.08-.19,.16-.3,.25,.45-.82,1.11-2.24,1.42-3.91,.49-2.66-.1-4.95-.1-4.95,0,0-1.39,2.02-1.88,4.68-.38,2.06-.11,3.9,.03,4.62-.17,.14-.34,.29-.53,.44-.26,.22-.55,.44-.87,.67-.18,.13-.36,.26-.54,.4,.35-.88,1-2.79,1.15-5.06,.2-3.1-.63-5.67-.63-5.67,0,0-1.16,2.47-1.37,5.57-.16,2.48,.34,4.62,.54,5.37-.05,.03-.09,.07-.14,.1-.69,.5-1.41,1.06-2.25,1.57-.07,.04-.13,.09-.2,.13,.31-.97,.94-3.31,.89-6.05-.07-3.59-1.29-6.49-1.29-6.49,0,0-1.12,2.93-1.05,6.52,.05,2.92,.87,5.37,1.17,6.2-.26,.17-.52,.34-.79,.51-.43,.28-.87,.57-1.34,.83-.1,.06-.2,.11-.29,.17,.28-.95,.87-3.35,.67-6.13-.26-3.59-1.76-6.43-1.76-6.43,0,0-1.07,2.98-.81,6.57,.22,2.92,1.25,5.34,1.63,6.14-.28,.16-.56,.32-.85,.49-.48,.27-.96,.56-1.47,.81-.19,.1-.38,.19-.57,.29,.27-1,.9-3.84,.55-7.1-.43-4.07-2.23-7.26-2.23-7.26,0,0-1.1,3.41-.66,7.48,.36,3.4,1.67,6.17,2.09,7-.24,.12-.48,.24-.72,.36l-.77,.39-.79,.36c-.27,.12-.55,.25-.82,.37,.16-.99,.54-4.02-.14-7.44-.83-4.18-2.94-7.36-2.94-7.36,0,0-.76,3.6,.07,7.78,.7,3.51,2.29,6.3,2.78,7.11-.71,.32-1.43,.63-2.15,.91-.31,.12-.62,.25-.92,.37,.11-1.04,.27-3.85-.57-6.94-1.07-3.91-3.35-6.8-3.35-6.8,0,0-.55,3.46,.52,7.37,.86,3.15,2.51,5.64,3.12,6.49-.13,.05-.25,.1-.38,.15-.53,.19-1.06,.38-1.58,.56-.26,.09-.52,.18-.77,.27-.26,.08-.51,.16-.77,.24-.04,.01-.08,.03-.13,.04-.15-.81-.69-3.12-2.29-5.36-1.98-2.76-4.81-4.36-4.81-4.36,0,0,.36,2.89,2.34,5.66,1.56,2.19,3.66,3.63,4.47,4.15-.36,.11-.72,.22-1.06,.33-.49,.14-.96,.27-1.42,.39-.23,.06-.46,.13-.68,.19-.22,.05-.44,.11-.66,.16-.43,.1-.84,.2-1.24,.3-.4,.08-.77,.16-1.13,.24-.71,.15-1.33,.25-1.84,.34-.51,.08-.91,.15-1.19,.18-.28,.03-.42,.05-.42,.05h-.01s0,0,0,0c-.2,.03-.34,.19-.31,.36,.03,.17,.22,.29,.42,.26,0,0,.15-.02,.43-.06,.29-.04,.7-.1,1.22-.19,.52-.1,1.15-.21,1.86-.36,.36-.08,.74-.16,1.14-.25,.4-.1,.81-.2,1.25-.31,.22-.05,.44-.11,.67-.17,.22-.06,.45-.13,.68-.19,.46-.13,.94-.27,1.44-.41,.36-.12,.74-.24,1.12-.36-.09,.99-.21,3.57,.64,6.39,1.09,3.6,3.34,6.21,3.34,6.21,0,0,.49-3.22-.59-6.82Z"/>
            <path class="cls-21" d="M120.34,133.15c-.25-.17-3.06-1.91-7.19-4.17-.36-9.91-7.65-17.57-7.65-17.57,.93,8.67,5.08,14.85,6.86,17.14-1.44-.78-3.02-1.61-4.7-2.45-1.14-8.86-8.27-15.26-8.27-15.26,1.49,7.54,5.53,12.75,7.38,14.82-1.44-.71-2.94-1.43-4.48-2.12-1.98-8.37-9.44-13.83-9.44-13.83,2.25,7.14,6.73,11.75,8.64,13.47-1.52-.68-3.08-1.33-4.63-1.94-.27-.1-.53-.2-.79-.3-1.72-7.39-8.04-11.8-8.04-11.8,1.96,6.32,5.81,10.18,7.4,11.56-1.89-.71-3.67-1.31-5.3-1.81-2.18-6.01-7.93-9.2-7.93-9.2,2.43,5.34,6.32,8.25,7.58,9.09-2.03-.62-3.84-1.09-5.4-1.46-2.67-4.92-8.08-7.12-8.08-7.12,2.8,4.32,6.54,6.44,7.75,7.04-2.22-.51-3.9-.78-4.93-.92-1.39-.78-6.86-3.53-15.26-3.68,0,0,6.2,4.1,14.85,3.92,1,.2,2.71,.56,4.88,1.11-1.69,.13-5.84,.71-10.26,3.29,0,0,5.86,.12,10.8-3.15,1.49,.38,3.18,.84,4.98,1.39-1.94,.16-6.7,.86-11.79,3.89,0,0,6.7,.11,12.38-3.71,1.5,.46,3.08,.99,4.69,1.57-2.31,.19-8.09,1.03-14.27,4.75,0,0,8.06,.11,14.91-4.52,1.92,.71,3.88,1.51,5.8,2.4-2.51,.1-9.72,.76-17.33,4.85,0,0,9.76,.35,17.85-4.61,.97,.46,1.93,.93,2.87,1.44,.79,.42,1.53,.82,2.24,1.21-2.05,.03-10.23,.45-18.89,4.98,0,0,10.55,.42,19.15-4.84,1.93,1.05,3.56,1.96,4.93,2.75-2.08,.02-11.33,.4-21.11,5.49,0,0,11.78,.48,21.34-5.36,5.71,3.3,6.93,4.43,7.27,4.77,.46,.46,1.43,.67,1.74,.16,.3-.51,0-.9-.53-1.26Z"/>
            <g>
              <path class="cls-10" d="M196.05,69.98s8.35,35.44-17.39,77.66h6.32s20.77-38.83,11.7-77.23"/>
              <path class="cls-18" d="M174.12,70.47c-.22-1.34,.64-3.2,4.79-3.25,4.15-.05,14.97,1.67,14.97,1.67-15.13-4.42-19.27-10.36-17.82-11.78,1.45-1.42,4.45-2,8.56,.26,4.11,2.25,11.95,10.12,11.95,10.12,0,0-4.88-7.45-6.02-11.52-1.15-4.07,2.08-7.41,4.79-3.25,2.71,4.15,3.34,14.6,3.34,14.6,9.02-9.03,20.83-14.76,22.51-13.17,1.68,1.59,.94,6.07-4.43,9.44-5.37,3.38-17.09,5.05-17.09,5.05,0,0,10.77-.63,13.27,3.29,2.49,3.92-1.02,7.32-5.54,6.62-4.52-.7-10.15-6.46-10.15-6.46,.83,14.44-4.2,16.56-4.66,16.31-.46-.25-1.83-1.56-1.3-4.6,.53-3.04,3.05-9.98,3.05-9.98-4.7,7.97-12.65,12.04-13.17,10.2-.52-1.84,.82-3.66,3.32-5.72s10.78-7.18,10.78-7.18c-6.29,1.21-20.93,.72-21.16-.63Z"/>
            </g>
            <g>
              <path class="cls-15" d="M216.32,98.85s-21.86,19.09-25.76,54.18l-3.92-2.19s5.39-31.27,29.09-51.94"/>
              <path class="cls-12" d="M229.69,106.75c.77-.76,1.11-2.21-1.44-3.68-2.55-1.47-10.07-4.15-10.07-4.15,11.46,2.49,16.83,.25,16.6-1.14-.23-1.38-1.82-2.78-5.43-2.8-3.61-.02-12.17,2.14-12.17,2.14,0,0,6.53-2.93,9.16-5.06,2.63-2.13,2.2-5.31-1.44-3.68-3.64,1.64-8.95,7.9-8.95,7.9-1.35-8.72-5.97-16.36-7.76-15.96-1.79,.4-3.44,3.44-1.69,7.39,1.74,3.95,8.22,9.05,8.22,9.05,0,0-6.38-4.12-9.78-2.55-3.39,1.57-2.81,4.89,.32,6.02,3.13,1.13,9.34-.49,9.34-.49-7.31,8.67-5.19,11.73-4.79,11.73,.4,0,1.87-.33,2.97-2.4,1.1-2.07,2.81-7.25,2.81-7.25-.84,6.57,2.18,11.84,3.37,10.88,1.19-.96,1.21-2.55,.63-4.7s-3.31-8.18-3.31-8.18c3.33,2.93,12.64,7.69,13.41,6.93Z"/>
            </g>
            <g>
              <path class="cls-15" d="M169.72,82.86s-20.15,22.65-18.85,60.16l-4.48-1.87s.87-33.65,22.71-58.18"/>
              <path class="cls-12" d="M185.07,89.68c.7-.89,.83-2.46-2.09-3.72-2.92-1.26-11.28-3.24-11.28-3.24,12.5,1.33,17.81-1.65,17.36-3.09-.46-1.44-2.35-2.73-6.17-2.34-3.82,.39-12.53,3.64-12.53,3.64,0,0,6.45-3.84,8.89-6.39,2.45-2.55,1.5-5.86-2.09-3.72-3.59,2.14-8.23,9.36-8.23,9.36-2.77-9.06-8.84-16.61-10.67-15.98s-3.1,4.02-.65,8c2.45,3.98,10.08,8.62,10.08,8.62,0,0-7.38-3.63-10.72-1.59-3.34,2.04-2.21,5.49,1.27,6.32,3.48,.83,9.79-1.58,9.79-1.58-6.39,9.99-3.67,12.98-3.25,12.94,.42-.04,1.92-.56,2.76-2.87,.84-2.31,1.85-7.97,1.85-7.97,.13,7.03,4.13,12.26,5.24,11.11,1.11-1.15,.89-2.83-.06-5.04s-4.76-8.27-4.76-8.27c3.97,2.71,14.54,6.69,15.24,5.8Z"/>
            </g>
            <g>
              <path class="cls-15" d="M35.19,125.44s29.54,2.77,57.1,26.63l1.35-3.64s-25.97-20.27-57.99-23.26"/>
              <path class="cls-12" d="M30.88,138.19c-1.1-.16-2.37-1.05-1.52-3.46s4.51-8.27,4.51-8.27c-6.7,7.77-12.24,8.89-13.04,7.75-.81-1.14-.61-2.99,2.03-4.87,2.64-1.88,10.48-4.72,10.48-4.72,0,0-6.88,1.22-10.31,1.01-3.43-.21-5.36-2.78-1.52-3.46,3.83-.67,12.15,1.2,12.15,1.2-5.14-7.13-7.1-15.16-5.5-15.79,1.6-.63,4.95,.76,6.45,4.57,1.5,3.82,.3,10.93,.3,10.93,0,0,1.81-6.34,5.41-6.94,3.61-.6,5.51,2.15,4,4.61-1.52,2.45-7.23,4.47-7.23,4.47,11.49,2.61,12.07,5.96,11.78,6.17-.29,.21-1.61,.72-3.88-.24-2.27-.96-7.17-3.89-7.17-3.89,5.24,4.41,6.72,9.86,5.17,9.77s-2.69-1.25-3.77-3.14c-1.08-1.88-3.32-7.75-3.32-7.75-.4,3.88-3.92,12.21-5.02,12.05Z"/>
            </g>
            <g>
              <path class="cls-15" d="M130.91,71.83s-8.45,23.93,6.07,54.44l-4.35-.35s-11.35-27.9-2.18-53.83"/>
              <path class="cls-12" d="M145.97,73.39c.26-.91-.2-2.24-3.05-2.51-2.85-.27-10.44,.31-10.44,.31,10.75-2.2,14.06-6.06,13.17-7.12-.89-1.06-2.91-1.62-5.91-.3-3,1.32-9,6.3-9,6.3,0,0,3.92-4.86,5.02-7.6,1.1-2.74-.87-5.22-3.05-2.51-2.18,2.71-3.41,9.87-3.41,9.87-5.53-6.72-13.22-11.33-14.5-10.33s-1.11,4.12,2.34,6.75c3.44,2.63,11.38,4.43,11.38,4.43,0,0-7.37-1.04-9.39,1.52-2.02,2.56,.15,5.1,3.31,4.86,3.16-.23,7.48-3.88,7.48-3.88-1.67,9.9,1.63,11.64,1.97,11.49,.33-.15,1.38-.97,1.24-3.09-.14-2.12-1.34-7.04-1.34-7.04,2.63,5.75,7.8,8.99,8.29,7.76,.5-1.24-.29-2.56-1.85-4.13-1.57-1.56-6.88-5.55-6.88-5.55,4.24,1.18,14.36,1.66,14.61,.75Z"/>
            </g>
            <g>
              <path class="cls-15" d="M59.41,98.53s20.29,17.72,23.92,50.3l3.64-2.03s-5-29.03-27.01-48.23"/>
              <path class="cls-12" d="M46.99,105.86c-.72-.7-1.03-2.05,1.34-3.41,2.37-1.36,9.35-3.85,9.35-3.85-10.64,2.32-15.62,.23-15.41-1.06,.21-1.29,1.69-2.58,5.04-2.6,3.35-.02,11.3,1.98,11.3,1.98,0,0-6.06-2.72-8.5-4.7-2.44-1.98-2.04-4.93,1.34-3.41s8.31,7.33,8.31,7.33c1.25-8.1,5.54-15.19,7.21-14.82,1.66,.37,3.19,3.19,1.57,6.86-1.62,3.67-7.63,8.4-7.63,8.4,0,0,5.93-3.83,9.08-2.37,3.15,1.46,2.61,4.54-.3,5.59-2.91,1.05-8.67-.46-8.67-.46,6.79,8.05,4.82,10.89,4.45,10.89-.37,0-1.73-.31-2.75-2.23-1.02-1.92-2.61-6.73-2.61-6.73,.78,6.1-2.03,11-3.13,10.1-1.1-.89-1.13-2.37-.59-4.36,.54-1.99,3.07-7.6,3.07-7.6-3.1,2.72-11.74,7.14-12.46,6.44Z"/>
            </g>
            <g>
              <path class="cls-10" d="M249.53,112.82s-25.02,23.2-73.07,29.14l3.23,3.84s42.71-7.23,69.81-32.38"/>
              <path class="cls-18" d="M237.91,99.74c1-.82,2.97-1.25,5.14,1.25,2.17,2.5,6.27,9.96,6.27,9.96-4.08-11.46-1.29-17.01,.63-16.86,1.92,.15,3.93,1.68,4.16,5.33,.24,3.65-2.25,12.44-2.25,12.44,0,0,3.66-6.78,6.44-9.55,2.78-2.78,7.18-2.52,5.14,1.25-2.05,3.77-10.36,9.5-10.36,9.5,12.08,.87,22.85,5.12,22.4,6.95-.45,1.84-4.53,3.67-10.07,2.13-5.54-1.54-12.91-7.81-12.91-7.81,0,0,6.03,6.23,4.07,9.75s-6.57,3.12-8.3,.02c-1.73-3.11,.15-9.48,.15-9.48-11.51,7.89-15.84,5.92-15.86,5.51-.03-.41,.35-1.91,3.14-3.14,2.78-1.23,9.81-3.25,9.81-3.25-8.99,1.22-16.42-1.54-15.16-2.79,1.25-1.26,3.44-1.37,6.43-.91,2.99,.46,11.45,2.88,11.45,2.88-4.22-3.21-11.3-12.36-10.3-13.18Z"/>
            </g>
          </g>
          <g>
            <g>
              <path class="cls-11" d="M142.5,133.45c-.13,.04-.26,.08-.39,.12,.01-1.33-.1-2.69-.36-4.05-1.81-9.4-9.78-15.31-17.81-13.18-3.35,.89-6.17,3.03-8.2,5.91-2.31-4-6.55-6.14-10.81-5.01-3.17,.84-5.67,3.31-6.99,6.48-2.98-1-6.2-1.16-9.43-.3-8.94,2.36-14.99,11.73-14.89,22.05-2.02-.49-4.15-.5-6.3,.06-8.02,2.12-13.06,11.46-11.25,20.87,1.81,9.4,9.78,15.31,17.81,13.18l73.75-19.5c6.27-1.66,10.21-8.97,8.8-16.32-1.42-7.35-7.65-11.97-13.92-10.31Z"/>
              <path class="cls-19" d="M51.75,127.35c-3.4,1.46-3.2,13.3-2.28,16.25s13.13,28.01,13.13,28.01l2.62-1.12,2.62-1.12s-4.47-28.38-5.39-31.33-7.29-12.14-10.69-10.68Z"/>
              <path class="cls-14" d="M34.72,137.48c-3.08,2.23-.86,13.78,.54,16.45,1.4,2.67,17.65,24.36,17.65,24.36l2.37-1.71,2.37-1.71s-9.23-26.76-10.64-29.43c-1.4-2.67-9.22-10.18-12.3-7.96Z"/>
              <path class="cls-1" d="M206.12,155.92c.08,.01,.15,.03,.22,.05-.05-.75-.03-1.51,.07-2.28,.71-5.35,4.99-9.01,9.55-8.18,1.91,.35,3.56,1.42,4.79,2.95,1.16-2.34,3.47-3.73,5.89-3.29,1.8,.33,3.28,1.6,4.13,3.32,1.64-.69,3.44-.93,5.28-.59,5.09,.93,8.78,5.9,9.06,11.7,1.11-.37,2.31-.47,3.53-.24,4.57,.83,7.69,5.84,6.98,11.19-.71,5.35-4.99,9.01-9.55,8.18l-41.96-7.64c-3.57-.65-6.01-4.57-5.46-8.75,.55-4.18,3.9-7.05,7.47-6.4Z"/>
              <path class="cls-1" d="M88.12,153.41s.09,0,.14,0c-.1-.43-.17-.88-.19-1.35-.12-3.24,2.02-5.98,4.78-6.13,1.15-.06,2.23,.34,3.11,1.07,.45-1.54,1.66-2.67,3.13-2.75,1.09-.06,2.09,.49,2.76,1.38,.89-.63,1.92-1.02,3.04-1.08,3.08-.16,5.75,2.25,6.5,5.61,.62-.37,1.31-.59,2.05-.63,2.76-.14,5.1,2.36,5.23,5.6,.12,3.24-2.02,5.98-4.78,6.13l-25.41,1.33c-2.16,.11-3.99-1.85-4.09-4.38-.1-2.53,1.58-4.68,3.74-4.79Z"/>
            </g>
            <path class="cls-7" d="M228.84,150.02c-.12-.01-.24-.02-.36-.03,.31-1.01,.52-2.08,.61-3.19,.62-7.7-4.72-14.53-11.91-15.26-3-.3-5.85,.51-8.2,2.11-1.03-3.72-4.09-6.6-7.91-6.98-2.84-.29-5.49,.87-7.32,2.9-2.26-1.63-4.93-2.7-7.82-2.99-8.02-.81-15.2,4.57-17.46,12.47-1.58-.96-3.36-1.6-5.28-1.79-7.19-.73-13.52,4.93-14.14,12.63-.62,7.7,4.72,14.53,11.91,15.26l66.13,6.67c5.63,.57,10.58-3.85,11.06-9.88s-3.69-11.37-9.31-11.93Z"/>
          </g>
        </g>
      </g>
      <g>
        <path class="cls-18" d="M477.06,71.09l-1.13,5.49,6.95,7.23c1.81-6.97-.21-15.14-5.9-21.06-5.68-5.92-13.51-8-20.17-6.08l16.99,17.69,3.26-3.27Z"/>
        <path class="cls-18" d="M467.54,39.17c-.07-8.48-4.19-15.7-10.15-19.12l.09,11.97,3.84,.6-3.82,1.59,.04,4.93,4.16,.92s-2.74,3.2-4.12,4.13l.12,14.76c5.91-3.82,9.91-11.31,9.85-19.79Z"/>
        <path class="cls-18" d="M440.43,38.72c0,.38,.57,4.12,.8,6.32l17.93,13.89c.85-7.15-2.27-14.91-8.71-19.9-6.45-4.99-14.51-5.89-20.86-3.01l8.54,6.62c.83-1.59,2.3-4.32,2.3-3.92Z"/>
        <path class="cls-18" d="M467.8,74.45c-.09-8.48-4.23-15.68-10.21-19.08l.25,23.2,4.62,.9-4.6,1.5,.14,13.3c5.9-3.84,9.88-11.34,9.79-19.82Z"/>
        <path class="cls-18" d="M482.02,57.14l2.31,5.48,10.36,1.51c-2.46-6.64-8.75-11.86-16.76-13.03-8.01-1.17-15.61,2.02-19.99,7.67l24.04,3.51,.05-5.13Z"/>
        <path class="cls-18" d="M480.08,42.11c-.39-.92-1.4-3.31-1.05-2.94,.21,.21,1.32,1.08,2.43,1.93l6.95-5.13c-6.21-2.93-14.31-2.08-21.02,2.87-6.7,4.95-10.23,12.69-9.74,19.84l16.22-11.97-.48-6.71,3.39,4.56,3.3-2.43Z"/>
        <path class="cls-18" d="M435.26,55.79l1.46,3.38,4.59,.09,1.52-4.49,.94,4.45,15.4-.28c-3.43-6.14-10.44-10.25-18.56-10.11-8.12,.15-15.18,4.52-18.68,10.79l10.68-.2,2.65-3.63Z"/>
      </g>
      <path class="cls-10" d="M424.22,142.79c-3.56-58,37.17-87.38,35.78-83.43l-2.21-2.05c-.19,.22-39.62,24.73-42.6,83.56l9.03,1.91Z"/>
      <g>
        <path class="cls-18" d="M364.46,37.79l-1.3,5.45-9.34,3.57c1.3-7.09,6.58-13.62,14.23-16.54,7.64-2.92,15.61-1.46,20.83,3.13l-22.85,8.74-1.57-4.36Z"/>
        <path class="cls-18" d="M386.54,12.96c3.64-7.65,10.41-12.42,17.26-12.96l-5.14,10.8-3.73-1.1,2.79,3.07-2.12,4.45-4.15-.94s1.13,4.07,1.98,5.49l-6.34,13.32c-3.74-5.98-4.2-14.47-.56-22.12Z"/>
        <path class="cls-18" d="M411.28,24.15c-.16,.34-2.26,3.49-3.4,5.38l-22.1,4.9c2.24-6.83,8.34-12.52,16.29-14.29,7.94-1.76,15.62,.87,20.16,6.2l-10.53,2.34c-.09-1.79-.26-4.89-.42-4.53Z"/>
        <path class="cls-18" d="M371.42,44.79c3.66-7.64,10.45-12.38,17.29-12.91l-10.02,20.9-4.57-1.16,3.53,3.32-5.74,11.97c-3.72-6-4.16-14.49-.49-22.13Z"/>
        <path class="cls-18" d="M365.85,23.03l-4.4,3.97-10.02-3.06c5.03-4.96,12.93-6.99,20.68-4.63,7.75,2.37,13.28,8.51,14.86,15.49l-23.24-7.11,2.12-4.67Z"/>
        <path class="cls-18" d="M373.95,10.27c.74-.66,2.67-2.4,2.19-2.22-.28,.11-1.65,.41-3.01,.71l-4.13-7.62c6.86,0,13.83,4.24,17.81,11.59,3.98,7.35,3.9,15.86,.45,22.13l-9.63-17.78,3.26-5.87-4.99,2.68-1.96-3.61Z"/>
        <path class="cls-18" d="M408.75,41.82l-2.75,2.43-4.19-1.89,.52-4.72-2.73,3.62-13.82-6.84c5.69-4.09,13.78-4.82,21.06-1.21,7.29,3.61,11.83,10.59,12.36,17.76l-9.59-4.75-.87-4.42Z"/>
      </g>
      <path class="cls-10" d="M393.24,145.37c19.32-50.9-7.01-113.54-7.08-109.35l1.48-1.49c4.43,3.86,27.15,66.26,14.17,109.64l-8.56,1.19Z"/>
      <path class="cls-7" d="M378.45,134.76c-.19-2.97-1.41-5.72-2.6-8.39-1.76-3.93-3.51-7.85-5.27-11.78,3.85,4.99,7.71,9.99,11.56,14.98,.49-7.09,2.98-14.05,6.59-19.95-.6,7.41-.53,14.94,.15,22.34,2.83-2.62,7.9-6.11,11.31-7.69-.31,2.07-.45,4.9-.28,6.99,4.1-4.44,7.36-10.8,8.1-17.07,2.76,6.14,5.55,12.34,8.3,18.48,2.77-6.01,6.62-11.78,11.06-16.41-1.55,4.26-2.95,9.31-4.33,13.64,1.73-1.01,3.57-2.71,4.9-4.3,0,1.51,.1,3.12,.1,4.63,1.49-3.86,2.94-7.7,5.14-11.13,2.2-3.42,5.17-6.39,8.79-7.7-3.05,5.17-4.78,11.3-5.27,17.44,3.14-2.25,6.71-4.48,10.31-5.61-1.49,4.12-2.45,8.5-2.94,12.9,1.71-1.24,3.47-2.54,5.18-3.78-.39,3.72-.8,7.4-1.18,11.12-8.79,4.09-18.61,5.11-28.14,5.67-11.41,.68-22.88,1.35-34.24,.03-2.64-.31-5.54-.88-7.2-3.17-1.58-2.18,.13-8.47-.05-11.26Z"/>
      <g>
        <path class="cls-13" d="M595.2,226.58c-32.26-51.02-104.97-86.6-189.51-86.6s-157.25,35.58-189.51,86.6h379.02Z"/>
        <path class="cls-3" d="M332.88,170.8c0,2.35-1.1,4.25-2.46,4.25s-2.46-1.9-2.46-4.25,1.1-4.25,2.46-4.25,2.46,1.9,2.46,4.25Z"/>
        <ellipse class="cls-6" cx="422.8" cy="162.58" rx="1.81" ry="3.12"/>
        <path class="cls-6" d="M424.61,203.89c0,1.73-.81,3.12-1.81,3.12s-1.81-1.4-1.81-3.12,.81-3.12,1.81-3.12,1.81,1.4,1.81,3.12Z"/>
        <path class="cls-6" d="M309.43,203.91c0,1.73-.81,3.12-1.81,3.12s-1.81-1.4-1.81-3.12,.81-3.12,1.81-3.12,1.81,1.4,1.81,3.12Z"/>
        <ellipse class="cls-6" cx="490.07" cy="179.79" rx="1.81" ry="3.12"/>
        <path class="cls-5" d="M406.55,180.98c0,.82-.38,1.48-.85,1.48s-.85-.66-.85-1.48,.38-1.48,.85-1.48,.85,.66,.85,1.48Z"/>
        <path class="cls-5" d="M436.75,190c0,.82-.38,1.48-.85,1.48s-.85-.66-.85-1.48,.38-1.48,.85-1.48,.85,.66,.85,1.48Z"/>
        <path class="cls-5" d="M494.08,206.14c0,.82-.38,1.48-.86,1.48s-.85-.66-.85-1.48,.38-1.48,.85-1.48,.86,.66,.86,1.48Z"/>
        <path class="cls-5" d="M377.57,157.99c0,.82-.38,1.48-.85,1.48s-.86-.66-.86-1.48,.38-1.48,.86-1.48,.85,.66,.85,1.48Z"/>
        <path class="cls-2" d="M472.83,172c0,.66-.31,1.19-.69,1.19s-.69-.53-.69-1.19,.31-1.19,.69-1.19,.69,.53,.69,1.19Z"/>
        <path class="cls-2" d="M352.25,179.79c0,.66-.31,1.19-.69,1.19s-.69-.53-.69-1.19,.31-1.19,.69-1.19,.69,.53,.69,1.19Z"/>
        <path class="cls-2" d="M255.66,206.14c0,.66-.31,1.19-.69,1.19s-.69-.53-.69-1.19,.31-1.19,.69-1.19,.69,.53,.69,1.19Z"/>
        <path class="cls-4" d="M386.97,191.88c0,6.63-3.11,12-6.95,12s-6.95-5.37-6.95-12,3.11-12,6.95-12,6.95,5.37,6.95,12Z"/>
        <ellipse class="cls-4" cx="467.12" cy="199.72" rx="5.63" ry="9.71"/>
        <path class="cls-3" d="M286.68,191.88c0,3.15-1.48,5.7-3.3,5.7s-3.3-2.55-3.3-5.7,1.48-5.7,3.3-5.7,3.3,2.55,3.3,5.7Z"/>
        <path class="cls-3" d="M454.94,169.35c0,3.15-1.48,5.7-3.3,5.7s-3.3-2.55-3.3-5.7,1.48-5.7,3.3-5.7,3.3,2.55,3.3,5.7Z"/>
        <ellipse class="cls-3" cx="521.9" cy="195.71" rx="3.3" ry="5.7"/>
        <path class="cls-3" d="M555.11,204.09c0,3.15-1.48,5.7-3.3,5.7s-3.3-2.55-3.3-5.7,1.48-5.7,3.3-5.7,3.3,2.55,3.3,5.7Z"/>
        <path class="cls-3" d="M336.94,202.46c0,4.74-2.23,8.59-4.98,8.59s-4.98-3.85-4.98-8.59,2.23-8.59,4.98-8.59,4.98,3.85,4.98,8.59Z"/>
      </g>
    </g>
  </g>
</svg>