<?xml version="1.0" encoding="UTF-8"?>
<svg id="Layer_2" data-name="Layer 2" xmlns="http://www.w3.org/2000/svg" xmlns:xlink="http://www.w3.org/1999/xlink" viewBox="0 0 595.05 326.98">
  <defs>
    <style>
      .cls-1 {
        fill: #f9d747;
      }

      .cls-2 {
        clip-path: url(#clippath);
      }

      .cls-3 {
        fill: none;
      }

      .cls-4 {
        fill: #055777;
      }
    </style>
    <clipPath id="clippath">
      <rect class="cls-3" width="595.05" height="326.98"/>
    </clipPath>
  </defs>
  <g id="Layer_1-2" data-name="Layer 1">
    <g class="cls-2">
      <g>
        <path class="cls-4" d="M54.68,292.4c16.19,5.31,29.97,18.28,36.86,34.67,5.29-16.35,11.37-33.85,24.97-43.42-11.39-1.73-23.39,12.88-27.05,24.42-8.42-12.65-24.44-18.45-34.77-15.68Z"/>
        <path class="cls-4" d="M145.74,269.07c7.47,6.33,12.18,16.16,12.6,26.28,5.97-7.44,12.59-15.3,21.6-17.36-5.65-3.4-14.81,1.66-18.99,6.92-1.95-8.49-9.24-15.04-15.21-15.84Z"/>
        <path class="cls-4" d="M0,250.51c9.51-1.16,19.43,2.22,26.51,9.02-.79-9.72-1.42-20.23,3.55-28.46-6.26,1.85-9.31,12.3-8.71,19.15-7.07-4.51-16.6-3.63-21.34,.29Z"/>
        <path class="cls-4" d="M73.8,252.16c11.29,1.9,22.19,6.42,31.69,13.16,11.98-8.39,26.12-12.89,40.49-12.76-13.26-3.94-28.23-.93-39.08,8.05-9.14-7.83-21.64-11.26-33.09-8.45Z"/>
        <path class="cls-4" d="M103.61,189.52c4.88,1.15,9.24,4.59,11.67,9.22,1.03,1.95,1.72,4.09,2.32,6.23,1.88,6.73,2.89,13.69,3.9,20.63,2.92-9.12,4.66-17.56,8.29-25.84,2.24-5.11,5.05-10.75,10.17-12.29-4.42-.95-9.64,3.08-12.58,6.69-2.94,3.61-4.44,9.08-5.19,13.78-1.54-4.93-3.37-12.39-7.04-15.84-3.67-3.45-6.64-2.98-11.53-2.57Z"/>
      </g>
      <g>
        <path class="cls-4" d="M459.36,241.57c17.53,5.31,32.47,18.28,39.92,34.67,5.73-16.35,12.32-33.85,27.05-43.42-12.34-1.73-25.33,12.88-29.3,24.43-9.12-12.65-26.48-18.45-37.67-15.68Z"/>
        <path class="cls-4" d="M558.01,218.24c8.09,6.33,13.2,16.16,13.65,26.28,6.47-7.44,13.63-15.3,23.4-17.36-6.12-3.4-16.04,1.66-20.57,6.92-2.11-8.49-10.01-15.04-16.48-15.84Z"/>
        <path class="cls-4" d="M400.14,199.68c10.3-1.16,21.04,2.22,28.72,9.02-.86-9.72-1.54-20.23,3.84-28.45-6.78,1.85-10.08,12.3-9.44,19.15-7.66-4.51-17.99-3.63-23.12,.29Z"/>
        <path class="cls-4" d="M480.08,201.33c12.23,1.9,24.04,6.42,34.32,13.16,12.98-8.39,28.3-12.89,43.86-12.76-14.37-3.94-30.58-.93-42.33,8.05-9.9-7.82-23.44-11.26-35.85-8.45Z"/>
        <path class="cls-4" d="M512.37,138.69c5.29,1.15,10,4.59,12.64,9.22,1.11,1.95,1.86,4.09,2.51,6.23,2.03,6.73,3.13,13.69,4.22,20.63,3.16-9.12,5.05-17.56,8.99-25.84,2.43-5.11,5.48-10.75,11.02-12.29-4.79-.95-10.44,3.08-13.63,6.69-3.19,3.61-4.81,9.08-5.62,13.78-1.67-4.93-3.66-12.39-7.63-15.84-3.98-3.45-7.19-2.98-12.49-2.57Z"/>
      </g>
      <ellipse class="cls-1" cx="297.53" cy="86.55" rx="94.46" ry="86.55"/>
    </g>
  </g>
</svg>