<?xml version="1.0" encoding="UTF-8"?>
<svg id="Layer_2" data-name="Layer 2" xmlns="http://www.w3.org/2000/svg" xmlns:xlink="http://www.w3.org/1999/xlink" viewBox="0 0 358.63 319.86">
  <defs>
    <style>
      .cls-1 {
        fill: #29413e;
      }

      .cls-2 {
        clip-path: url(#clippath);
      }

      .cls-3 {
        fill: none;
      }

      .cls-4 {
        fill: #edc36d;
      }
    </style>
    <clipPath id="clippath">
      <rect class="cls-3" width="358.63" height="319.86"/>
    </clipPath>
  </defs>
  <g id="Layer_1-2" data-name="Layer 1">
    <g class="cls-2">
      <g>
        <path class="cls-4" d="M190.03,102.5c-3.98-7.48-11.53-11.13-18.8-11.76-7.24-.65-14.49,1.22-21.67,2.4-6.24,1.01-12.54,1.46-18.81,1.43-1.37-3.26-2.2-6.79-2.25-10.51-.08-6.09,1.88-11.89,3.67-17.58,1.81-5.68,3.49-11.7,2.78-17.74-.72-6.03-4.61-11.93-9.56-11.93-4.91-.06-8.71,5.48-10.53,11.06-1.88,5.85-2.42,12.18-2.61,18.45-.25,8.94,.16,17.84,1.26,26.69-10.19-1.69-20.24-4.78-29.85-9.17,0-.41-.03-.87-.05-1.26-.71-17.59,2.12-35.35,8.23-51.22,1.2-3.14,2.57-6.57,1.85-9.91-.97-4.69-5.76-6.82-9.52-5.46-3.74,1.38-6.52,5.3-8.63,9.3-7.93,15.01-9.74,34.62-4.82,51.46-5.13-3.33-9.95-7.3-14.2-12.18-7.37-8.53-12.47-19.53-15.66-31.43C46.54,14.84,55.19-2.93,68.91-12.68c2.47-1.79,5.18-3.32,7.11-5.94,1.92-2.68,2.82-6.83,1.18-9.79-2.68-4.81-8.82-2.19-12.71,1.24-9.66,8.54-18.08,19.2-24.73,31.31-.7,1.28-1.64,3.41-2.69,5.85-.04-.26-.07-.48-.08-.75-1.28-19.34,1.6-40.09,12.02-54.71,5.53-7.78,13.46-13.11,21.73-14.68,6.8-1.35,12.71,1.05,18.28-4.82,5.94-6.18,9.81-13.34,17.06-17.73,7.31-4.41,15.68-6.37,23.81-5.42,11.55,1.32,22.28,7.56,31.5,16.41-.64,.17-1.26,.29-1.89,.38-7.71,1.12-16.02-.5-22.86,4.06-1.7,1.11-3.42,3.04-3.27,5.39,.1,1.73,1.19,3.12,2.37,4.1,6.05,5.03,14.09,2.18,21.13-.02,4.59-1.48,9.28-2.61,13.96-3.42,1.2,1.52,2.34,3.09,3.43,4.65,7.28,10.47,13.14,22.37,17.41,35.09-.31-.07-.59-.12-.9-.19-8.26-1.62-16.7-.82-25.06-.03-1.17,.12-2.44,.26-3.38,1.19-2.35,2.37-.49,7.21,1.99,9.36,8.81,7.35,20.9,.69,31.27,3.58,1.7,7.27,2.87,14.67,3.52,22.19,.38,4.6,.56,9.17,.58,13.73-9.29-2.5-18.66-4.52-28.01-6.21-5.29-.94-12.4-.31-13.71,6.09-.89,4.51,2.26,9.05,5.89,10.39,3.63,1.4,7.5,.54,11.27-.08,8.2-1.33,17.25-1.22,24.11,4.09-1.31,20.15-5.25,40.21-9.23,59.89Z"/>
        <g>
          <path class="cls-1" d="M225.92,116.71c-5.64-.2-11.56-1.53-17.31-2.55-5.79-1.11-11.57-2.31-17.35-3.55-5.74-1.36-11.62-2.3-17.14-4.31-5.62-2-11.2-4.17-16.74-6.46-22.13-9.24-43.43-20.98-63.06-36.08-4.9-3.8-9.76-7.65-14.45-11.83-4.72-4.14-9.69-8.38-14.56-12.47-9.82-8.19-19.91-15.82-30.29-22.68C14.14,3.2-7.05-8.88-28.87-20.16l-.58,1.19C-11.04-.46,9.3,14.45,29.35,29.17c10.08,7.28,20.32,14.11,30.42,21.18,5.08,3.56,9.9,7.28,14.97,11.1,5.06,3.87,10.22,7.53,15.43,11.06,10.45,7.02,21.27,13.18,32.31,18.53,11.05,5.32,22.39,9.62,33.81,13.24,5.71,1.81,11.45,3.47,17.21,4.97,5.84,1.6,11.62,2.57,17.44,3.71,5.81,1.08,11.62,2.12,17.44,3.06,5.86,.85,11.56,2.03,17.66,2.06l-.13-1.38Z"/>
          <path class="cls-1" d="M229.81,141.7c8.4,9.34,18.83,15.4,29.25,20.86,22.26,11.67,47.23,21.36,70.3,12.39-19.78,2.31-40.77-1.16-57.04-15.19-4.08-3.52-7.8-7.64-11.99-10.94-6.91-5.45-14.87-8.51-22.04-13.42-9.71-6.64-20.76-21.23-32.49-21.18,9.5,7.23,15.83,18.39,24.01,27.49Z"/>
          <path class="cls-1" d="M270.34,134.42c24.61,7.13,52.16,8.8,73.54-7.8-11.33,2.64-22.81,5.29-34.32,4.38-23.87-1.89-45.9-18.9-69.82-18.98-11.08-.04-21.95,3.45-33.03,3.3,20.63-1.46,43.72,13.34,63.62,19.11Z"/>
          <path class="cls-1" d="M308.76,97c4.93-2.85,9.74-6.17,13.78-10.67,6.13-6.83,10.14-15.97,14.47-24.64,6.34-12.68,13.58-24.68,21.62-35.81-19.09,14.12-33.92,35.68-52.75,50.3-13.51,10.49-28.73,17.13-43.98,22.94-15.56,5.93-31.33,10.5-47.09,15.5,14.46,3.13,32.31-.04,46.87-2.16,16.19-2.35,32.27-6.9,47.08-15.46Z"/>
          <path class="cls-1" d="M278.85,62.23c3.89-3.43,7.93-7.33,9.39-12.94,1.1-4.23,.56-8.8,0-13.19-.82-6.53-1.64-13.07-2.47-19.6-2.52,23.65-13.78,45.68-30,58.71-6.06,4.86-12.7,8.49-19.31,12.09-16.08,8.77-32.97,13.67-49.05,22.43-6.2,3.38,8.07,5.3,13.06,3.07,18.38-9.43,6.75-3.01,25.26-13.17,18.66-10.24,36.49-22.79,53.11-37.42Z"/>
          <path class="cls-1" d="M192.35,99.97c24.14-12.72,47.39-28.02,69.39-45.69,6.99-5.61,14.14-11.85,17.92-21.02,3.45-8.36,3.65-18.11,3.78-27.49-8.71,19.65-22.17,35.62-37.05,48.46-14.89,12.84-31.27,22.79-47.58,32.68-3.97,2.41-28.46,13.47-28.85,18.16-.59,7.03,19.22-3.2,22.39-5.11Z"/>
          <path class="cls-1" d="M196.74,144.13c9.07,16.97,16.21,35.49,26.06,51.79,4.7,7.78,10.11,15.13,16.91,20,11.08,7.94,24.54,8.49,36.76,13.28-14.26-8.95-27.96-20.59-36.65-37.14-2.99-5.69-5.33-11.86-8.08-17.72-6.96-14.82-16.47-27.5-27.07-38.48-9.04-9.37-21.13-22.57-32.16-27.17,1.79,6.1,7.33,10.04,10.89,14.56,5.02,6.37,9.39,13.5,13.35,20.9Z"/>
          <path class="cls-1" d="M168.51,164.61c5.39,11.88,13.97,20.99,22.36,29.83,9.9,10.43,19.81,20.87,29.71,31.3-15-21.1-30.14-42.45-40.77-67.25-7.71-17.99-13.21-41.48-26.27-54.94-2.21,5.22,4.93,22.36,6.22,28.7,2.24,11.03,4.2,22.33,8.75,32.36Z"/>
          <path class="cls-1" d="M126.28,111.79c-4.33-7.38-7.31-15.36,.48-22.48,7.75-7.08,22.8-7.46,32.13-10.2,11.15-3.28,22.73-6.25,34.16-3.3-7.89-2.54-15.79-5.01-23.71-7.4-5-1.51-10.09-3-15.22-2.54-4.61,.41-9.02,2.38-13.52,3.69-12.21,3.58-24.97,2.37-37.48,1.14-.79,2-1.59,3.99-2.38,5.99,6.32,3.83,12.6,7.99,19.07,11.41,4.63,2.45,11.36,3.76,13.98,9.68,1.17,2.65,1.23,5.81,1.79,8.75,.67,3.51,2.06,6.73,3.47,9.89,4.82,10.82,13.01,22.41,16.11,33.81-.84-3.08-11.19-10.8-13.52-14.07-4.13-5.79-7.7-12.12-11.52-18.21-1.24-1.98-2.6-4.05-3.84-6.17Z"/>
        </g>
        <g>
          <path class="cls-1" d="M114.89,212.89c-.31-4.39-1.22-8.97-1.95-13.42-.79-4.48-1.62-8.95-2.47-13.41-.91-4.43-1.61-8.99-2.85-13.22-1.24-4.32-2.56-8.59-3.95-12.83-5.57-16.93-12.41-33.12-20.91-47.9-2.14-3.68-4.3-7.34-6.62-10.85-2.31-3.53-4.67-7.25-6.96-10.91-4.58-7.37-8.88-14.96-12.8-22.81-7.75-15.79-14.76-31.88-21.37-48.5l.59-.5c10.21,13.69,18.64,29.01,26.96,44.12,4.12,7.6,8.01,15.34,12.03,22.96,2.02,3.83,4.11,7.46,6.27,11.28,2.18,3.8,4.26,7.7,6.26,11.64,4,7.9,7.57,16.12,10.73,24.54,3.15,8.43,5.78,17.12,8.07,25.91,1.14,4.39,2.21,8.81,3.19,13.25,1.04,4.5,1.75,8.98,2.55,13.47,.77,4.49,1.52,8.99,2.22,13.5,.66,4.55,1.48,8.95,1.71,13.71l-.71-.05Z"/>
          <path class="cls-1" d="M127.89,215c5.12,6.21,8.62,14.13,11.82,22.06,6.83,16.95,12.74,36.08,8.98,54.42,.46-15.53-2.11-31.78-9.93-43.97-1.96-3.05-4.22-5.81-6.08-8.95-3.06-5.19-4.93-11.29-7.72-16.71-3.78-7.33-11.7-15.42-12.1-24.58,4.07,7.15,10.05,11.67,15.04,17.72Z"/>
          <path class="cls-1" d="M125.65,246.92c4.58,18.95,6.46,40.39-1.29,57.7,.94-8.94,1.88-18,.98-26.95-1.86-18.57-11.43-35.14-12.36-53.81-.43-8.65,.96-17.26,.48-25.9,.01,16.16,8.49,33.64,12.19,48.96Z"/>
          <path class="cls-1" d="M107.81,278.3c-1.28,3.95-2.82,7.83-4.98,11.15-3.29,5.03-7.85,8.51-12.15,12.21-6.29,5.42-12.2,11.52-17.63,18.2,6.56-15.42,17.11-27.8,23.94-43.05,4.9-10.93,7.75-23.06,10.18-35.18,2.48-12.37,4.24-24.85,6.23-37.34,2.15,11.17,1.17,25.22,.62,36.67-.61,12.73-2.35,25.45-6.22,37.33Z"/>
          <path class="cls-1" d="M88.8,256.23c-1.62,3.16-3.48,6.46-6.31,7.81-2.13,1.02-4.51,.76-6.79,.49-3.39-.4-6.79-.8-10.18-1.2,12.08-2.84,23-12.45,29.11-25.6,2.28-4.91,3.9-10.23,5.51-15.52,3.92-12.88,5.81-26.25,9.73-39.12,1.51-4.97,3.03,6.1,2.07,10.08-4.17,14.7-1.3,5.38-5.84,20.21-4.58,14.95-10.38,29.33-17.3,42.85Z"/>
          <path class="cls-1" d="M105.03,187.31c-5.65,19.32-12.67,38.03-20.95,55.86-2.63,5.67-5.58,11.48-10.15,14.77-4.18,3-9.19,3.52-14.01,3.97,9.79-7.53,17.51-18.62,23.57-30.72,6.06-12.1,10.57-25.26,15.06-38.35,1.09-3.19,5.88-22.71,8.28-23.2,3.6-.72-.94,15.13-1.8,17.67Z"/>
          <path class="cls-1" d="M127.92,189.09c9.07,6.45,18.87,11.34,27.62,18.43,4.18,3.38,8.16,7.33,10.92,12.46,4.49,8.36,5.28,18.85,8.2,28.2-5.14-10.8-11.63-21.06-20.48-27.24-3.04-2.12-6.3-3.72-9.42-5.65-7.89-4.88-14.77-11.84-20.81-19.71-5.16-6.71-12.4-15.66-15.18-24.1,3.21,1.17,5.44,5.35,7.9,7.96,3.46,3.68,7.29,6.83,11.25,9.64Z"/>
          <path class="cls-1" d="M137.41,166.3c6.31,3.77,11.32,10.13,16.18,16.35,5.74,7.34,11.48,14.69,17.21,22.03-11.42-10.93-22.97-21.96-36.13-29.34-9.55-5.35-21.84-8.78-29.25-18.47,2.6-1.92,11.69,3.02,15.01,3.79,5.76,1.34,11.65,2.45,16.98,5.64Z"/>
          <path class="cls-1" d="M108.66,135.29c-3.96-3.11-8.18-5.14-11.55,1.21-3.36,6.32-2.99,18.08-4.06,25.46-1.28,8.83-2.37,17.98-.43,26.79-1.6-6.06-3.16-12.14-4.69-18.24-.96-3.84-1.92-7.77-1.87-11.79,.04-3.62,.89-7.13,1.4-10.69,1.39-9.67,.3-19.58-.8-29.3,1-.69,2-1.39,2.99-2.08,2.21,4.79,4.58,9.54,6.58,14.47,1.43,3.52,2.35,8.73,5.5,10.55,1.41,.82,3.03,.75,4.57,1.08,1.83,.39,3.54,1.36,5.22,2.34,5.75,3.36,12.02,9.33,18,11.32-1.62-.54-5.97-8.34-7.74-10.03-3.13-3.01-6.52-5.56-9.8-8.32-1.07-.9-2.18-1.88-3.32-2.77Z"/>
        </g>
        <path class="cls-4" d="M21.28,230.27c4.67-.92,9.27-2.17,13.78-3.6-5.5-13.15-10.56-26.52-15.28-40.04-2.65-7.65-4.34-18.54,1.55-22.61,4.19-2.78,9.71,.44,12.24,5.46,2.55,5.01,2.98,11.1,3.59,16.98,1.33,12.75,4.4,26.33,11.9,34.89,19.53-8.52,38.1-20.98,56.33-33.39-8.74-3.53-14.79-13.7-17.78-24.38-3.01-10.7-3.51-22.19-4.71-33.36-1.04-9.69-2.63-19.29-4.72-28.72-3.67-.98-7.43-1.12-11.15,.06-6.04,1.86-11.16,6.69-16.21,11.24-5.03,4.58-10.46,9.05-16.66,9.96-6.2,.88-13.32-3.05-14.94-10.47-1.65-7.34,2.55-14.88,7.54-19.42,5.16-4.76,11.24-7.6,17.41-9.93,8.75-3.29,17.7-5.6,26.84-6.83-5.01-14.76-11.34-28.87-18.83-41.83-.4,.11-.86,.21-1.28,.32-17.62,4.66-34.31,14.7-48.04,29.06-2.7,2.86-5.67,6.02-9.2,6.01-4.94,.08-8.65-6.43-8.5-12.52,.13-6.06,3.11-11.51,6.41-15.99C3.83,24.32,22.68,15.24,40.97,17.11,36.01,10.51,30.48,4.55,24.28-.24,13.42-8.53,.87-12.61-11.94-13.53-28.23,1.01-43.02,19.79-48.19,43.56c-.96,4.3-1.6,8.88-3.57,12.61-2.03,3.77-5.86,6.47-9.3,4.96-5.66-2.46-5.06-12.55-2.93-19.49,5.29-17.29,13.13-33.41,22.94-47.38,1.04-1.48,2.83-3.54,4.92-5.91-.28,.01-.51,.05-.76,.11C-56.46-7.18-76.06,3.95-87.15,24.34c-5.89,10.85-8.61,24.51-7.45,37.47,.87,10.64,5.16,18.71,1.17,29.02-4.18,10.92-10.01,19.06-11.99,31.39-1.99,12.43-1.2,25.63,2.38,37.55,5.09,16.92,14.75,31,26.53,41.96-.03-1-.11-2-.22-2.99-1.43-11.94-5.72-23.88-3.42-35.62,.51-2.94,1.84-6.15,4.27-6.67,1.72-.44,3.45,.74,4.8,2.24,6.96,7.42,6.76,20.41,6.88,31.75,.04,7.34,.43,14.76,1.17,22.05,1.87,1.32,3.8,2.55,5.71,3.68,12.76,7.5,26.45,12.43,40.45,14.69-.17-.45-.32-.83-.49-1.25-4.29-11.92-6.26-24.86-8.2-37.65-.26-1.82-.53-3.77,.08-5.47,1.59-4.29,6.98-3.11,9.9-.06,10.15,10.85,7.51,31.18,13.74,45.81,7.77,.19,15.48-.48,23.13-1.94Z"/>
      </g>
    </g>
  </g>
</svg>