<?xml version="1.0" encoding="UTF-8"?>
<svg id="Layer_2" data-name="Layer 2" xmlns="http://www.w3.org/2000/svg" viewBox="0 0 246.22 231.39">
  <defs>
    <style>
      .cls-1 {
        fill: #e6e6e5;
      }

      .cls-1, .cls-2, .cls-3 {
        fill-rule: evenodd;
      }

      .cls-2 {
        fill: #333;
        opacity: .1;
      }

      .cls-4 {
        fill: #29413e;
        font-family: InkFree, 'Ink Free';
        font-size: 74.25px;
      }

      .cls-3 {
        fill: #b4b4b4;
      }
    </style>
  </defs>
  <g id="Layer_1-2" data-name="Layer 1">
    <g>
      <g>
        <path class="cls-2" d="M101.67,195.96l3.76-13.82c-19.54-1.5-45.38-18.19-63.96-39.04-8.24-9.27-15.09-19.37-19.31-29.36-4.29-10.11-5.9-20.1-3.64-29,2.32-9.15,8.7-17.08,20.46-22.73,3.95-33.33,40.2-33.46,46-33.27,4.39-11.68,11.93-19.77,20.87-24.34C111.75,1.39,118.25-.07,124.86,0c6.61,.06,13.32,1.66,19.64,4.8,9.63,4.75,18.35,13.03,24.43,24.82,5.77-.09,42.09,.81,50.86,34.26,12.58,5.9,20.11,13.98,23.77,23.19,3.55,8.96,3.37,18.93,.54,28.96-2.79,9.9-8.17,19.88-15.1,28.99-15.58,20.51-39.07,36.68-58.41,37.78l5.75,13.91,.06,.17s4.11,14.32-12.05,14.15l-48.6-.5c-16.14-.17-14.12-14.39-14.11-14.43l.04-.16Z"/>
        <g>
          <path class="cls-1" d="M108.74,200.46c-3.9-.04-8.54-.1-13.37-.15-2.13,0-4.3-.04-6.44-.06l-4.82,17.74s-1.82,12.73,12.86,12.89c14.69,.14,24.31,.25,24.31,.25,0,0,9.63,.11,24.3,.26,14.69,.15,11.02-12.66,11.02-12.66l-7.39-17.85c-2.14-.02-4.29-.04-6.43-.07-4.82-.05-9.48-.11-13.36-.15-6.12-.05-10.34-.09-10.34-.09,0,0-4.22-.05-10.34-.11Z"/>
          <path class="cls-1" d="M108.74,200.46c-3.9-.04-8.54-.1-13.37-.15-2.13,0-4.3-.04-6.44-.06l-1.75,6.46,52.12,4.9s13.98,1.44,4.42,19.74l1.86,.03c14.69,.15,11.02-12.66,11.02-12.66l-7.39-17.85c-2.14-.02-4.29-.04-6.43-.07-4.82-.05-9.48-.11-13.36-.15-6.12-.05-10.34-.09-10.34-.09,0,0-4.22-.05-10.34-.11Z"/>
          <path class="cls-1" d="M200.15,86.35c-8.87-35.93-50.53-33.89-50.53-33.89-19.59-39.1-68.54-39.61-82.51-.86,0,0-42.02-2.89-45.72,32.9-60.91,28.47,23.06,117.61,67.71,118.09,14.68,.15,30.13,.32,30.13,.32,0,0,15.48,.17,30.14,.3,44.66,.47,115.88-87.06,50.77-116.85Z"/>
          <path class="cls-1" d="M184.05,62.25c5.39,11.51,10.15,27.55,7.71,45.76-3.73,27.77-9.9,72.15-34.61,94.47,3.92-.75,7.97-2.05,12.03-3.81,9.18-4,18.51-10.37,26.88-18.16-1.97-9.58-2.59-19.87-.26-29.67,4.71-19.87,12.84-42.52,17.92-55.87-3.63-3.23-8.12-6.12-13.58-8.62-2.83-11.46-9-19.06-16.1-24.1h0ZM121.97,25.99c10.42,4.13,20.06,12.35,26.71,24.65,5.69,22.17,8.27,51.96,5.12,82.24-2.45,23.44-8.36,47.17-18.92,67.84-.41,.79-.81,1.55-1.21,2.32-8.24-.09-14.43-.14-14.43-.14,0,0-.23-.01-.69-.01,.73-.73,1.45-1.5,2.18-2.3,9.48-10.44,20.01-27.85,24.57-55.88,7.75-47.46-2.06-96.54-23.33-118.72h0ZM57.59,74c4.35,30.86,8.78,59.45,16.78,82.2,5.99,17.02,15.04,32.36,9.45,45.95,1.52,.22,3.03,.37,4.49,.42,.26,.01,.52,.02,.79,.02,4.23,.04,8.52,.08,12.51,.13-.51-.78-1.02-1.56-1.51-2.35-13.24-20.88-22.4-44.52-28.18-67.8-7.36-29.69-9.23-58.86-7.05-81.02-3.31,.01-9.86,.31-16.92,2.36,4.46,3.89,8.23,10.12,9.64,20.09h0Zm11.04,123.62q.32,.14,0,0c-9.03-3.87-18.44-9.77-27.32-16.93-7.26-22.88-18.2-57.23-22.61-69.91-3.56-10.23-8.89-13.25-13.21-13.79,2.98-4.18,7.25-7.92,13.02-11.04v.02s-.45,.26-.45,.26c3.05,20.07,11.07,49.71,25.81,76.79,6.78,12.45,14.98,24.38,24.77,34.61Z"/>
          <path class="cls-3" d="M151.86,52.45c5.37,22.24,7.71,51.41,4.63,80.99-2.52,24.07-8.62,48.44-19.61,69.63l-3.21-.03c11.32-21.21,17.59-45.84,20.13-70.16,3.15-30.28,.57-60.07-5.12-82.24,.32,.61,.64,1.2,.95,1.82,0,0,.81-.04,2.23,0h0Zm-84.07-2.66c-.22,.61-.46,1.2-.68,1.8,0,0-.83-.04-2.25-.05-2.17,22.15-.31,51.32,7.05,81.02,5.99,24.16,15.63,48.71,29.69,70.15l3.21,.03c-14.41-21.47-24.23-46.27-30.28-70.68-7.53-30.39-9.25-60.18-6.75-82.26h0ZM20.55,84.91c-.87,.42-1.71,.86-2.5,1.31,3.05,20.07,11.07,49.71,25.81,76.79,6.78,12.45,14.98,24.38,24.77,34.61,2.07,.88,4.11,1.66,6.14,2.33-11.52-10.88-20.97-24.21-28.61-38.23-14.8-27.24-22.75-57.05-25.61-76.81h0Zm142.82,115.95c1.92-.62,3.86-1.35,5.81-2.19,8.33-10.04,14.81-21.81,19.81-34.15,10.85-26.81,14.62-56.33,14.77-76.37-.86-.45-1.76-.91-2.68-1.36-.02,19.73-3.67,49.42-14.58,76.38-5.62,13.88-13.17,27.03-23.13,37.69Z"/>
        </g>
      </g>
      <text class="cls-4" transform="translate(25.21 149.12) scale(.7 1)"><tspan x="0" y="0">L I N K</tspan></text>
    </g>
  </g>
</svg>