<?xml version="1.0" encoding="UTF-8"?>
<svg id="Layer_2" data-name="Layer 2" xmlns="http://www.w3.org/2000/svg" xmlns:xlink="http://www.w3.org/1999/xlink" viewBox="0 0 595.28 361.26">
  <defs>
    <style>
      .cls-1 {
        fill: #f69184;
      }

      .cls-2, .cls-3 {
        fill: #fff;
      }

      .cls-4 {
        fill: #ee6065;
      }

      .cls-5 {
        fill: #f4785b;
      }

      .cls-6 {
        opacity: .5;
      }

      .cls-3, .cls-7, .cls-8 {
        fill-rule: evenodd;
      }

      .cls-9 {
        clip-path: url(#clippath-2);
      }

      .cls-10 {
        fill: #efc23f;
      }

      .cls-11 {
        filter: url(#drop-shadow-3);
      }

      .cls-12 {
        filter: url(#drop-shadow-1);
      }

      .cls-13 {
        clip-path: url(#clippath-1);
      }

      .cls-14 {
        clip-path: url(#clippath-4);
      }

      .cls-15 {
        filter: url(#drop-shadow-2);
      }

      .cls-16 {
        clip-path: url(#clippath);
      }

      .cls-17 {
        fill: none;
      }

      .cls-18 {
        clip-path: url(#clippath-3);
      }

      .cls-19 {
        fill: #5bc0b2;
      }

      .cls-20 {
        fill: #4e887f;
      }

      .cls-7 {
        fill: #c4464e;
      }

      .cls-8 {
        fill: #1c1b18;
        opacity: .1;
      }
    </style>
    <clipPath id="clippath">
      <rect class="cls-17" y="0" width="595.28" height="356.67"/>
    </clipPath>
    <filter id="drop-shadow-1" filterUnits="userSpaceOnUse">
      <feOffset dx="5.67" dy="5.67"/>
      <feGaussianBlur result="blur" stdDeviation="0"/>
      <feFlood flood-color="#231f20" flood-opacity=".25"/>
      <feComposite in2="blur" operator="in"/>
      <feComposite in="SourceGraphic"/>
    </filter>
    <filter id="drop-shadow-2" filterUnits="userSpaceOnUse">
      <feOffset dx="5.67" dy="5.67"/>
      <feGaussianBlur result="blur-2" stdDeviation="0"/>
      <feFlood flood-color="#232020" flood-opacity=".25"/>
      <feComposite in2="blur-2" operator="in"/>
      <feComposite in="SourceGraphic"/>
    </filter>
    <clipPath id="clippath-1">
      <path class="cls-17" d="M234.56,240.83c-6.63-21.94-26.47-18.64-26.47-18.64-4.6,.11-19.92,8.28-23.78,24.95-3.86,16.67-11.6,23.11-15.84,25.44-4.25,2.33-21.03,13.82-21.93,19.89-.89,6.07,3.45,13.22,17.25,15.32,13.8,2.11,29.1-17.09,30.02-18.01s7.49-10.3,21.45-17.67c13.96-7.37,21.47-22.93,19.31-31.29Z"/>
    </clipPath>
    <clipPath id="clippath-2">
      <path class="cls-17" d="M159.8,179.58c27.17-9.48,35.83,4.32,35.83,4.32,2.7,2.8,3.47,16.9-11.73,29.39-15.2,12.49-17.25,21.03-17.11,24.98,.14,3.95-1.69,20.95-7.53,25.19-5.85,4.25-16.03,6.04-26.69-.87-10.66-6.91,.2-27.74,.6-28.85,.41-1.11,6.26-10.75,5.49-23.55-.77-12.8,11.02-26.78,21.14-30.61Z"/>
    </clipPath>
    <filter id="drop-shadow-3" filterUnits="userSpaceOnUse">
      <feOffset dx="5.67" dy="5.67"/>
      <feGaussianBlur result="blur-3" stdDeviation="0"/>
      <feFlood flood-color="#232020" flood-opacity=".25"/>
      <feComposite in2="blur-3" operator="in"/>
      <feComposite in="SourceGraphic"/>
    </filter>
    <clipPath id="clippath-3">
      <path class="cls-17" d="M168.93,113.66s12.13-2.75,15.13,.36c3.01,3.11,3.77,16.52-.25,19.41-4.03,2.89-14.5,4.95-19.44,2.8-4.93-2.15-10.28-13.41-8.56-16.73,1.72-3.32,13.12-5.84,13.12-5.84Z"/>
    </clipPath>
    <clipPath id="clippath-4">
      <path class="cls-17" d="M128.08,119.55s-12.41,.79-14.42,4.62c-2.01,3.83,1.05,16.92,5.73,18.55,4.68,1.63,15.31,.65,19.44-2.8,4.13-3.45,6.08-15.77,3.49-18.47-2.59-2.7-14.23-1.9-14.23-1.9Z"/>
    </clipPath>
  </defs>
  <g id="Layer_1-2" data-name="Layer 1">
    <g class="cls-16">
      <g class="cls-12">
        <path class="cls-5" d="M530.06,64.3c2.59-.87,13.85,20.86,15.84,21.32,1.99,.46,23.52-10.07,24.97-7.82,1.45,2.25-16.45,19.46-16.32,22.57,.13,3.12,18.12,18.99,16.44,21.49-1.68,2.5-21.85-8.2-24.85-7.18-3,1.01-12.89,21.92-15.89,20.91-3-1.01,1.06-23.77-.53-26.17-1.59-2.4-24.45-6.22-24.76-9.4-.31-3.18,23.39-5.74,25.89-8.13,2.5-2.38-3.37-26.71-.78-27.59Z"/>
        <path class="cls-1" d="M538.87,99.97c.41,1.29,1.76,1.99,3.01,1.57,1.25-.42,1.93-1.81,1.52-3.09-.41-1.29-1.76-1.99-3.01-1.57-1.25,.42-1.93,1.81-1.52,3.09Z"/>
        <path class="cls-1" d="M544.61,96.43c.32,1,1.37,1.55,2.35,1.22,.98-.33,1.51-1.41,1.19-2.41-.32-1-1.37-1.55-2.35-1.22-.98,.33-1.51,1.41-1.19,2.41Z"/>
        <path class="cls-1" d="M549.4,92.92c.26,.82,1.12,1.26,1.91,1,.8-.27,1.23-1.15,.97-1.97-.26-.82-1.12-1.26-1.91-.99-.8,.27-1.23,1.15-.97,1.97Z"/>
        <path class="cls-1" d="M553.45,90.03c.24,.76,1.04,1.18,1.78,.93s1.15-1.07,.9-1.83c-.24-.76-1.04-1.18-1.78-.93-.74,.25-1.15,1.07-.9,1.83Z"/>
        <path class="cls-1" d="M557.51,87.13c.19,.58,.8,.9,1.36,.71,.57-.19,.88-.82,.69-1.4-.19-.58-.8-.9-1.36-.71-.57,.19-.88,.82-.69,1.4Z"/>
        <path class="cls-1" d="M560.61,84.76c.18,.56,.76,.86,1.3,.68,.54-.18,.84-.78,.66-1.34-.18-.56-.76-.86-1.3-.68-.54,.18-.84,.78-.66,1.34Z"/>
        <path class="cls-1" d="M563.85,82.35c.13,.42,.58,.65,.98,.51,.41-.14,.63-.59,.5-1.01s-.58-.65-.98-.51-.63,.59-.5,1.01Z"/>
        <path class="cls-1" d="M566.81,80.16c.11,.34,.46,.52,.79,.41,.33-.11,.51-.47,.4-.81-.11-.34-.46-.52-.79-.41-.33,.11-.51,.47-.4,.81Z"/>
        <path class="cls-1" d="M530.67,99.57c.26,.82-.18,1.7-.98,1.96-.8,.26-1.65-.19-1.91-1.01-.26-.82,.18-1.7,.98-1.96,.8-.26,1.65,.19,1.91,1.01Z"/>
        <path class="cls-1" d="M525.74,99.67c.24,.76-.17,1.58-.92,1.83-.74,.24-1.54-.18-1.78-.94-.24-.76,.17-1.58,.92-1.83,.74-.24,1.54,.18,1.78,.94Z"/>
        <path class="cls-1" d="M520.8,99.77c.18,.58-.13,1.21-.7,1.4-.57,.19-1.18-.14-1.36-.72-.18-.58,.13-1.21,.7-1.4,.57-.19,1.18,.14,1.36,.72Z"/>
        <path class="cls-1" d="M516.94,99.72c.17,.56-.13,1.16-.67,1.34-.54,.18-1.13-.13-1.3-.69-.17-.56,.13-1.16,.67-1.34,.54-.18,1.13,.13,1.3,.69Z"/>
        <path class="cls-1" d="M512.93,99.72c.13,.42-.09,.87-.51,1.01-.41,.13-.85-.1-.98-.52-.13-.42,.09-.87,.51-1.01s.85,.1,.98,.52Z"/>
        <path class="cls-1" d="M509.29,99.73c.11,.34-.08,.7-.4,.81s-.68-.08-.79-.42c-.11-.34,.08-.7,.4-.81,.33-.11,.68,.08,.79,.42Z"/>
        <path class="cls-1" d="M539.03,88.67c-.66,.53-1.61,.41-2.13-.27-.51-.68-.4-1.66,.26-2.19,.66-.53,1.61-.41,2.13,.27,.51,.68,.4,1.66-.26,2.19Z"/>
        <path class="cls-1" d="M537.25,83.95c-.62,.49-1.5,.38-1.98-.25-.48-.63-.37-1.55,.25-2.04,.62-.49,1.5-.38,1.98,.25,.48,.63,.37,1.55-.25,2.04Z"/>
        <path class="cls-1" d="M535.45,79.22c-.47,.38-1.15,.29-1.52-.19-.37-.48-.28-1.18,.19-1.56,.47-.38,1.15-.29,1.52,.19,.37,.48,.28,1.18-.19,1.56Z"/>
        <path class="cls-1" d="M534.17,75.48c-.45,.36-1.1,.28-1.45-.19-.35-.46-.27-1.13,.18-1.49s1.1-.28,1.45,.19c.35,.46,.27,1.13-.18,1.49Z"/>
        <path class="cls-1" d="M532.79,71.61c-.34,.27-.83,.21-1.1-.14-.26-.35-.2-.85,.14-1.13,.34-.27,.83-.21,1.1,.14,.26,.35,.2,.85-.14,1.13Z"/>
        <path class="cls-1" d="M531.52,68.1c-.27,.22-.66,.17-.88-.11-.21-.28-.16-.68,.11-.9,.27-.22,.66-.17,.88,.11,.21,.28,.16,.68-.11,.9Z"/>
        <path class="cls-1" d="M549.53,105.84c.29-.81,1.16-1.22,1.95-.92,.79,.3,1.19,1.19,.9,2-.29,.81-1.16,1.22-1.95,.92-.79-.3-1.19-1.19-.9-2Z"/>
        <path class="cls-1" d="M553.47,108.88c.27-.75,1.08-1.14,1.82-.86,.73,.28,1.11,1.11,.84,1.87-.27,.75-1.08,1.14-1.82,.86-.73-.28-1.11-1.11-.84-1.87Z"/>
        <path class="cls-1" d="M557.42,111.93c.21-.58,.83-.87,1.39-.66,.56,.21,.85,.85,.64,1.43s-.83,.87-1.39,.66-.85-.85-.64-1.43Z"/>
        <path class="cls-1" d="M560.44,114.41c.2-.55,.79-.83,1.33-.63,.54,.2,.81,.81,.61,1.36-.2,.55-.79,.83-1.33,.63-.54-.2-.81-.81-.61-1.36Z"/>
        <path class="cls-1" d="M563.59,116.94c.15-.42,.6-.63,1-.47,.4,.15,.61,.61,.46,1.03-.15,.42-.6,.63-1,.47-.4-.15-.61-.61-.46-1.03Z"/>
        <path class="cls-1" d="M566.47,119.24c.12-.33,.48-.5,.8-.38,.32,.12,.49,.49,.37,.82-.12,.33-.48,.5-.8,.38s-.49-.49-.37-.82Z"/>
        <path class="cls-1" d="M538.3,109.62c-.7-.47-1.64-.28-2.1,.44-.46,.72-.27,1.68,.43,2.16,.7,.47,1.64,.28,2.1-.44,.46-.72,.27-1.68-.43-2.16Z"/>
        <path class="cls-1" d="M536.88,114.47c-.65-.44-1.53-.26-1.96,.41-.43,.67-.25,1.57,.4,2.01,.65,.44,1.53,.26,1.96-.41,.43-.67,.25-1.57-.4-2.01Z"/>
        <path class="cls-1" d="M535.45,119.33c-.5-.34-1.17-.2-1.5,.31-.33,.51-.19,1.2,.31,1.54,.5,.34,1.17,.2,1.5-.31,.33-.51,.19-1.2-.31-1.54Z"/>
        <path class="cls-1" d="M534.45,123.16c-.48-.32-1.12-.19-1.43,.3-.31,.49-.18,1.15,.29,1.47,.48,.32,1.12,.19,1.43-.3,.31-.49,.18-1.15-.29-1.47Z"/>
        <path class="cls-1" d="M533.37,127.13c-.36-.24-.84-.14-1.08,.23-.24,.37-.14,.87,.22,1.11s.84,.14,1.08-.23,.14-.87-.22-1.11Z"/>
        <path class="cls-1" d="M532.37,130.73c-.29-.2-.68-.11-.87,.18-.19,.3-.11,.69,.18,.89,.29,.2,.68,.11,.87-.18,.19-.3,.11-.69-.18-.89Z"/>
        <path class="cls-1" d="M544.56,103.62c.32,1,1.37,1.55,2.35,1.22,.98-.33,1.51-1.41,1.19-2.41-.32-1-1.37-1.55-2.35-1.22-.98,.33-1.51,1.41-1.19,2.41Z"/>
        <path class="cls-1" d="M537.5,106c.32,1,1.37,1.55,2.35,1.22,.98-.33,1.51-1.41,1.19-2.41-.32-1-1.37-1.55-2.35-1.22-.98,.33-1.51,1.41-1.19,2.41Z"/>
        <path class="cls-1" d="M537.48,93.67c.32,1,1.37,1.55,2.35,1.22,.98-.33,1.51-1.41,1.19-2.41-.32-1-1.37-1.55-2.35-1.22-.98,.33-1.51,1.41-1.19,2.41Z"/>
        <path class="cls-1" d="M533.07,100.32c.32,1,1.37,1.55,2.35,1.22,.98-.33,1.51-1.41,1.19-2.41-.32-1-1.37-1.55-2.35-1.22-.98,.33-1.51,1.41-1.19,2.41Z"/>
      </g>
      <path class="cls-20" d="M593.97,361.21c-7.78-2.3-15.1-7.2-21.42-11.6-.89-.62-1.77-1.26-2.64-1.9-.03,.08-.06,.17-.09,.25,0,0-.08-.17-.21-.46-1.03-.76-2.05-1.53-3.07-2.31-5.76,1.31-32.57,5.92-67.12-12.09,0,0,37.49-2.3,64.25,9.82-5.24-4.24-10.17-8.76-14.83-13.49-7.28-.04-34-1.93-61.79-25.43,0,0,33.85,5,56.82,20.19-3.37-3.68-6.59-7.45-9.68-11.28-4.03-.78-32.36-7.24-54.04-38.31,0,0,29.68,11.57,47.7,30.12-1.61-2.16-3.2-4.34-4.74-6.52-3.15-4.45-6.16-8.97-9.04-13.54,0,0,0,.01,0,.02,0,0-30.49-7.74-49.52-43.06,0,0,30.58,15.45,45.67,36.8-4.23-7.05-8.19-14.21-11.91-21.44-6.42-6.06-19.41-21.71-20.56-49.82,0,0,17.34,25.33,24.1,52.78,4.13,7.84,8.54,15.6,13.3,23.22-4.6-8.06-13.72-28.26-10.57-57.69,0,0,16.79,34.13,13.05,61.61,4.55,7.05,9.42,13.95,14.65,20.65-2.77-8.11-7.91-29.58,1.92-58.46,0,0,8.91,34.75-.09,60.77,5,6.25,10.31,12.33,16,18.15,.69,.71,1.39,1.41,2.09,2.11-2.38-6.09-9.51-28.8,1.22-60.37,0,0,9.03,35.22-.27,61.3,4.78,4.71,9.9,9.3,15.39,13.53-2.73-7.83-8.17-29.49,1.79-58.81,0,0,8.79,34.28,.09,60.24,5.79,4.3,11.99,8.17,18.62,11.3,1.81,.85,3.69,1.72,5.64,2.29,1.16,.34,.42,1.77-.73,1.43Z"/>
      <g class="cls-15">
        <g>
          <g>
            <path class="cls-4" d="M234.56,240.83c-6.63-21.94-26.47-18.64-26.47-18.64-4.6,.11-19.92,8.28-23.78,24.95-3.86,16.67-11.6,23.11-15.84,25.44-4.25,2.33-21.03,13.82-21.93,19.89-.89,6.07,3.45,13.22,17.25,15.32,13.8,2.11,29.1-17.09,30.02-18.01s7.49-10.3,21.45-17.67c13.96-7.37,21.47-22.93,19.31-31.29Z"/>
            <g class="cls-13">
              <g>
                <polygon class="cls-19" points="262.02 253.1 193.86 215.85 195.26 214.41 263.41 251.66 262.02 253.1"/>
                <polygon class="cls-19" points="256.21 259.09 188.06 221.83 189.45 220.4 257.61 257.65 256.21 259.09"/>
                <polygon class="cls-19" points="250.41 265.07 182.26 227.82 183.65 226.38 251.8 263.64 250.41 265.07"/>
                <polygon class="cls-19" points="244.61 271.06 176.46 233.81 177.85 232.37 246 269.62 244.61 271.06"/>
                <polygon class="cls-19" points="238.81 277.04 170.66 239.79 172.05 238.36 240.2 275.61 238.81 277.04"/>
                <polygon class="cls-19" points="233.01 283.03 164.85 245.78 166.25 244.34 234.4 281.59 233.01 283.03"/>
                <polygon class="cls-19" points="227.2 289.02 159.05 251.76 160.44 250.33 228.6 287.58 227.2 289.02"/>
                <polygon class="cls-19" points="221.4 295 153.25 257.75 154.64 256.31 222.79 293.57 221.4 295"/>
                <polygon class="cls-19" points="215.6 300.99 147.45 263.74 148.84 262.3 216.99 299.55 215.6 300.99"/>
                <polygon class="cls-19" points="209.8 306.97 141.65 269.72 143.04 268.28 211.19 305.54 209.8 306.97"/>
                <polygon class="cls-19" points="204 312.96 135.84 275.71 137.24 274.27 205.39 311.52 204 312.96"/>
                <polygon class="cls-19" points="198.19 318.95 130.04 281.69 131.44 280.26 199.59 317.51 198.19 318.95"/>
                <polygon class="cls-19" points="192.39 324.93 124.24 287.68 125.63 286.24 193.79 323.5 192.39 324.93"/>
              </g>
            </g>
          </g>
          <path class="cls-10" d="M217.51,236.75s-1.7-.79-3.13,.59c-10.7-1.13-29.12,9.32-29.12,9.32,0,0-6.05,2.56-10.09,12.56-3.09,2.08-9.3,14.82-4.44,16.53,4.86,1.71,7.12-13.96,7.12-13.96,0,0-.09-6.35,4.69-8.88,4.78-2.53,24.45-12.26,29.84-9.99,5.39,2.28,5.83,20.36-4.17,34.52-1.99,1.86-8.23,2.5-8.23,2.5,0,0-14.33,1.86-13.87,6.74,1.53,4.74,13.44-2.63,14.76-3.56,1.31-.94,9.12-4.91,9.12-4.91,0,0,6.61-3.49,8.17-6.97,1.57-3.48,7.57-24.39-.35-32.15,1.42-1.67-.28-2.36-.28-2.36Z"/>
        </g>
        <g>
          <g>
            <path class="cls-4" d="M159.8,179.58c27.17-9.48,35.83,4.32,35.83,4.32,2.7,2.8,3.47,16.9-11.73,29.39-15.2,12.49-17.25,21.03-17.11,24.98,.14,3.95-1.69,20.95-7.53,25.19-5.85,4.25-16.03,6.04-26.69-.87-10.66-6.91,.2-27.74,.6-28.85,.41-1.11,6.26-10.75,5.49-23.55-.77-12.8,11.02-26.78,21.14-30.61Z"/>
            <g class="cls-9">
              <g>
                <polygon class="cls-19" points="130.08 170.78 211.01 188.47 211.68 186.76 130.74 169.07 130.08 170.78"/>
                <polygon class="cls-19" points="127.32 177.89 208.26 195.58 208.92 193.87 127.99 176.18 127.32 177.89"/>
                <polygon class="cls-19" points="124.57 184.99 205.5 202.68 206.17 200.98 125.23 183.29 124.57 184.99"/>
                <polygon class="cls-19" points="121.81 192.1 202.75 209.79 203.41 208.09 122.48 190.4 121.81 192.1"/>
                <polygon class="cls-19" points="119.06 199.21 199.99 216.9 200.66 215.2 119.72 197.51 119.06 199.21"/>
                <polygon class="cls-19" points="116.3 206.32 197.24 224.01 197.9 222.3 116.96 204.61 116.3 206.32"/>
                <polygon class="cls-19" points="113.55 213.43 194.48 231.12 195.15 229.41 114.21 211.72 113.55 213.43"/>
                <polygon class="cls-19" points="110.79 220.54 191.73 238.23 192.39 236.52 111.45 218.83 110.79 220.54"/>
                <polygon class="cls-19" points="108.04 227.65 188.97 245.34 189.63 243.63 108.7 225.94 108.04 227.65"/>
                <polygon class="cls-19" points="105.28 234.76 186.22 252.45 186.88 250.74 105.94 233.05 105.28 234.76"/>
                <polygon class="cls-19" points="102.53 241.86 183.46 259.55 184.12 257.85 103.19 240.16 102.53 241.86"/>
                <polygon class="cls-19" points="99.77 248.97 180.71 266.66 181.37 264.96 100.43 247.27 99.77 248.97"/>
                <polygon class="cls-19" points="97.02 256.08 177.95 273.77 178.61 272.07 97.68 254.38 97.02 256.08"/>
              </g>
            </g>
          </g>
          <path class="cls-10" d="M174.53,187.21s1.87,.53,1.29,2.22c7.73,5.66,8,23,8,23,0,0,1.01,5.16-7.06,13.68-.3,3.11-9.91,14.59-14.69,12.75-4.78-1.84,10.35-12.77,10.35-12.77,0,0,6.74-3.83,6.48-8.21-.26-4.38-2.04-22.02-7.74-23.84-5.7-1.81-25.02,8.99-33.81,23.6-.74,2.32,2.4,6.42,2.4,6.42,0,0,6.81,9.65,1.39,12.36-5.92,1.99-5.46-9.59-5.28-10.94,.18-1.35-.4-8.42-.4-8.42,0,0-.37-6.06,2.34-9.12,2.71-3.06,21.06-19.42,34.08-19.46,.89-1.86,2.66-1.28,2.66-1.28Z"/>
        </g>
      </g>
      <g class="cls-11">
        <path class="cls-4" d="M173.48,111.02c-13.78,1.56-19.97,5.35-20.93,5.79-.97,.44-3.89,.89-3.89,.89,0,0-2.92,.39-3.98,.25-1.05-.15-8.06-2.04-21.72,.36-13.66,2.4-15.99,3.37-15.99,3.37l.79,5.48s1.9,.72,2.35,2.36c.45,1.64,1.89,9.27,5.12,12.69,3.23,3.42,10.8,3.01,14.29,2.63,3.49-.38,9.43-2.13,11.55-4.57,2.12-2.44,4.19-7.99,4.83-11.96s1.56-4.45,3.6-4.74c2.04-.29,3.06-.1,4.79,3.53,1.74,3.63,5.29,8.37,8.01,10.11,2.72,1.74,8.91,1.74,12.37,1.12,3.46-.63,10.83-2.37,12.97-6.56,2.13-4.19,1.36-11.92,1.33-13.62s1.58-2.93,1.58-2.93l-.79-5.48s-2.51-.28-16.29,1.28Z"/>
        <g>
          <path class="cls-10" d="M168.93,113.66s12.13-2.75,15.13,.36c3.01,3.11,3.77,16.52-.25,19.41-4.03,2.89-14.5,4.95-19.44,2.8-4.93-2.15-10.28-13.41-8.56-16.73,1.72-3.32,13.12-5.84,13.12-5.84Z"/>
          <g class="cls-6">
            <g class="cls-18">
              <g>
                <polygon class="cls-2" points="157.17 136.16 155.38 134.31 186.25 107.08 188.04 108.93 157.17 136.16"/>
                <polygon class="cls-2" points="160.2 140.19 159.6 139.57 190.47 112.34 191.07 112.95 160.2 140.19"/>
              </g>
            </g>
          </g>
        </g>
        <g>
          <path class="cls-10" d="M128.08,119.55s-12.41,.79-14.42,4.62c-2.01,3.83,1.05,16.92,5.73,18.55,4.68,1.63,15.31,.65,19.44-2.8,4.13-3.45,6.08-15.77,3.49-18.47-2.59-2.7-14.23-1.9-14.23-1.9Z"/>
          <g class="cls-6">
            <g class="cls-14">
              <g>
                <polygon class="cls-2" points="113.2 142.74 111.41 140.89 142.28 113.66 144.07 115.51 113.2 142.74"/>
                <polygon class="cls-2" points="116.23 146.77 115.63 146.15 146.5 118.92 147.1 119.53 116.23 146.77"/>
              </g>
            </g>
          </g>
        </g>
      </g>
      <g>
        <path class="cls-8" d="M1.67,148.42V15.7L39.1,5.16c.77-.22,1.5-.22,2.26,0l50.12,14.11c.77,.22,1.36,.59,1.83,1.15l30.98,36.94c.47,.57,.7,1.16,.7,1.86v45.66c0,.7-.23,1.3-.7,1.86l-30.98,36.94c-.47,.57-1.06,.94-1.83,1.15l-50.12,14.11c-.77,.22-1.5,.22-2.26,0L1.67,148.42Z"/>
        <g>
          <path class="cls-7" d="M37.95,.16l47.92,14.11c.73,.22,1.3,.59,1.75,1.15l29.62,36.94c.45,.57,.67,1.17,.67,1.86v45.67c0,.7-.22,1.3-.67,1.86l-29.62,36.94c-.45,.57-1.02,.94-1.75,1.15l-47.92,14.11c-.73,.22-1.43,.22-2.16,0L0,143.43V10.7L35.79,.16c.73-.22,1.43-.22,2.16,0Z"/>
          <g>
            <path class="cls-3" d="M36.87,77.06L0,66.21v21.7l36.87-10.85h0ZM0,143.43v-20.38l36.87-45.99h0L0,31.08V10.7L35.79,.16C36.16,.05,36.51,0,36.87,0V77.06h0L86.86,14.72c.29,.19,.54,.42,.77,.71l29.62,36.94c.23,.29,.4,.58,.51,.89l-80.88,23.8,80.88,23.8c-.11,.31-.28,.61-.51,.89l-29.62,36.94c-.23,.28-.48,.52-.77,.71l-49.99-62.35v77.07c-.36,0-.72-.05-1.08-.16L0,143.43Z"/>
            <path class="cls-3" d="M36.87,74.98c1.27,0,2.3,.93,2.3,2.09s-1.03,2.09-2.3,2.09-2.3-.94-2.3-2.09,1.03-2.09,2.3-2.09Z"/>
          </g>
        </g>
      </g>
    </g>
  </g>
</svg>