<?xml version="1.0" encoding="UTF-8"?>
<svg id="Layer_2" data-name="Layer 2" xmlns="http://www.w3.org/2000/svg" xmlns:xlink="http://www.w3.org/1999/xlink" viewBox="0 0 595.28 630.65" >
  <defs>
    <style>
      .cls-1 {
        fill: #fff;
      }

      .cls-1, .cls-2, .cls-3, .cls-4 {
        fill-rule: evenodd;
      }

      .cls-2, .cls-5 {
        fill: #f4d79b;
      }

      .cls-6 {
        fill: #f7e3ae;
      }

      .cls-7 {
        clip-path: url(#clippath);
      }

      .cls-8 {
        fill: none;
      }

      .cls-3 {
        fill: #1c1b18;
        opacity: .1;
      }

      .cls-4 {
        fill: #d5e3cd;
      }
    </style>
    <clipPath id="clippath">
      <rect class="cls-8" width="595.28" height="630.65"/>
    </clipPath>
  </defs>
  <g id="Layer_1-2" data-name="Layer 1">
    <g class="cls-7">
      <g>
        <path class="cls-3" d="M462.09,445.04l1.9-.66c-1.71-2.23-2.33-6.32-1.8-9.94,.24-1.61,.71-3.13,1.41-4.36,.71-1.25,1.67-2.19,2.87-2.64,1.24-.46,2.73-.38,4.49,.46,4.08-2.15,7.58,1.76,8.11,2.4,1.72-.43,3.34-.24,4.71,.38,.9,.41,1.69,1,2.31,1.72,.63,.72,1.09,1.57,1.35,2.5,.4,1.41,.31,2.99-.41,4.56,.56,.62,3.95,4.62,1.07,8.15,.55,1.82,.38,3.26-.3,4.36-.65,1.08-1.78,1.83-3.17,2.3-1.37,.46-2.99,.65-4.67,.61-3.77-.1-7.83-1.39-9.81-3.4l-.99,1.7v.02s-1.21,1.55-2.74-.21l-4.61-5.3c-1.53-1.76,.24-2.64,.25-2.64h.02Z"/>
        <g>
          <path class="cls-1" d="M462.27,446.15c-.37-.42-.81-.93-1.27-1.46-.2-.23-.41-.47-.61-.7l-2.43,.85s-1.59,.79-.2,2.39c1.39,1.6,2.31,2.65,2.31,2.65,0,0,.91,1.05,2.3,2.65,1.39,1.6,2.46,.21,2.46,.21l1.28-2.18c-.2-.23-.41-.47-.61-.7-.46-.53-.9-1.03-1.27-1.46-.58-.67-.98-1.13-.98-1.13,0,0-.4-.46-.98-1.13Z"/>
          <path class="cls-4" d="M462.27,446.15c-.37-.42-.81-.93-1.27-1.46-.2-.23-.41-.47-.61-.7l-.89,.31,4.46,6.02s1.18,1.62-1.77,2l.17,.2c1.39,1.6,2.46,.21,2.46,.21l1.28-2.18c-.2-.23-.41-.47-.61-.7-.46-.53-.9-1.03-1.27-1.46-.58-.67-.98-1.13-.98-1.13,0,0-.4-.46-.98-1.13Z"/>
          <path class="cls-1" d="M483.73,447.22c3.14-3.74-1.08-8.09-1.08-8.09,2.47-5.14-2.17-10.48-7.82-8.99,0,0-3.71-4.77-8.04-2.4-9.01-4.39-10.86,11.59-6.63,16.46,1.39,1.6,2.86,3.28,2.86,3.28,0,0,1.47,1.69,2.86,3.28,4.23,4.87,20.8,5.8,17.86-3.54Z"/>
          <path class="cls-4" d="M484.86,443.61c-.76,1.47-2.09,3.23-4.35,4.37-3.45,1.74-8.97,4.51-13.82,3.56,.46,.37,.99,.7,1.58,1.01,1.33,.68,2.93,1.2,4.6,1.5,.88-.95,1.96-1.82,3.27-2.32,2.66-1.03,5.96-1.9,7.93-2.38,.01-.64-.1-1.35-.35-2.14,1-1.19,1.25-2.45,1.13-3.61h0Zm-1.93-9.52c.54,1.45,.55,3.12-.18,4.8-1.92,2.33-4.98,4.91-8.65,6.91-2.84,1.55-6.05,2.74-9.36,3.2-.13,.02-.25,.03-.37,.05-.78-.9-1.37-1.57-1.37-1.57,0,0-.02-.03-.06-.08,.15,.02,.31,.04,.47,.06,2.07,.22,5.02,.01,8.57-1.66,6.02-2.83,10.53-7.69,10.96-11.7h0Zm-11.51-3.25c-3.01,2.86-5.77,5.55-7.53,8.17-1.32,1.96-2.15,4.13-4.2,4.58,.12,.18,.25,.36,.38,.52,.02,.03,.05,.06,.07,.09,.4,.46,.81,.93,1.19,1.36,.04-.12,.08-.23,.12-.35,1.05-3.05,2.8-5.87,4.83-8.29,2.59-3.09,5.66-5.55,8.33-7.03-.32-.36-.98-1.04-1.89-1.65,0,.78-.34,1.67-1.31,2.6h0Zm-12.68,10.75s.02,.05,0,0c-.44-1.28-.68-2.75-.74-4.26,1.85-2.55,4.62-6.39,5.6-7.85,.8-1.18,.62-1.99,.27-2.5,.75,0,1.58,.17,2.48,.55h0s-.07-.03-.07-.03c-1.94,1.88-4.46,5.04-6.06,8.73-.73,1.7-1.27,3.51-1.47,5.36Z"/>
          <path class="cls-4" d="M482.86,439.37c-1.96,2.3-4.98,4.81-8.56,6.76-2.92,1.59-6.21,2.81-9.62,3.26l-.3-.35c3.44-.41,6.78-1.64,9.73-3.25,3.67-2,6.73-4.58,8.65-6.91-.04,.08-.07,.16-.11,.24,0,0,.08,.08,.22,.24h0Zm-7.77-9.3c-.09,.02-.18,.04-.27,.07,0,0-.07-.09-.21-.25-2.67,1.48-5.73,3.94-8.33,7.03-2.11,2.52-3.91,5.46-4.95,8.64l.31,.35c1-3.22,2.82-6.2,4.95-8.74,2.66-3.16,5.8-5.65,8.5-7.09h0Zm-8.44-2.4c-.13-.06-.26-.12-.39-.17-1.94,1.88-4.46,5.04-6.06,8.73-.73,1.7-1.27,3.51-1.47,5.36,.1,.29,.21,.57,.33,.84,.1-2.09,.68-4.14,1.5-6.05,1.61-3.71,4.16-6.87,6.08-8.71h0Zm.81,24.42c.25,.16,.52,.31,.8,.46,1.92,.12,3.85-.08,5.7-.5,4.02-.9,7.66-2.77,9.91-4.31-.03-.13-.07-.26-.11-.39-2.2,1.52-5.85,3.42-9.89,4.33-2.08,.47-4.27,.67-6.41,.41Z"/>
        </g>
      </g>
      <path class="cls-6" d="M596.14,621.54v13.07H-1.07V190.12c7.64,14.1,12.14,31.99,14.01,48.54,3.58,31.65,2.93,66.56,17.36,91.86,8.04,14.08,19.94,23.43,27.68,37.81,17.03,31.67,9.31,77.39,21.66,112.86,13.6,39.09,48.19,56.08,79.91,58.42,31.72,2.35,63.72-6,95.18-.07,65.68,12.39,121.14,85.22,187.45,84.58,40.33-.4,79.63-28.57,119.49-20.19,12.22,2.57,24.04,8.65,34.49,17.61Z"/>
      <path class="cls-5" d="M396.52,634.61H-1.07v-203.09c7.92,7.84,14.1,18,18.3,28.55,7.69,19.31,10.16,40.37,14.97,60.68,3.32,14,9.13,29.31,21.93,34.84,9.45,4.09,20.34,1.69,30.29,4.18,7.95,1.99,15.11,7.2,19.62,14.28,2.99,4.7,4.81,10.07,7.5,14.94,10.31,18.58,32.14,27.31,52.76,27.88,20.6,.56,40.74-5.56,60.92-9.9,40.24-8.67,82.8-10.23,121.83,3.18,17.38,5.97,33.68,14.76,49.48,24.46Z"/>
      <g>
        <path class="cls-2" d="M355.88,463.36c0,2.12-1.77,3.83-3.96,3.83s-3.96-1.72-3.96-3.83,1.77-3.83,3.96-3.83,3.96,1.72,3.96,3.83Z"/>
        <path class="cls-2" d="M444.39,564.62c0,2.12-1.77,3.83-3.96,3.83s-3.96-1.72-3.96-3.83,1.77-3.83,3.96-3.83,3.96,1.72,3.96,3.83Z"/>
        <ellipse class="cls-5" cx="264.64" cy="529.66" rx="3.96" ry="3.83"/>
        <path class="cls-2" d="M340.06,543.28c0,2.12-1.77,3.83-3.96,3.83s-3.96-1.72-3.96-3.83,1.77-3.83,3.96-3.83,3.96,1.72,3.96,3.83Z"/>
        <path class="cls-2" d="M465.69,568.45c0,1.06-.89,1.92-1.98,1.92s-1.98-.86-1.98-1.92,.89-1.92,1.98-1.92,1.98,.86,1.98,1.92Z"/>
        <ellipse class="cls-5" cx="426.07" cy="311.47" rx="1.98" ry="1.92"/>
        <path class="cls-2" d="M316.17,467.19c0,1.06-.89,1.92-1.98,1.92s-1.98-.86-1.98-1.92,.89-1.92,1.98-1.92,1.98,.86,1.98,1.92Z"/>
        <path class="cls-2" d="M151.62,413.04c0,1.06-.89,1.92-1.98,1.92s-1.98-.86-1.98-1.92,.89-1.92,1.98-1.92,1.98,.86,1.98,1.92Z"/>
        <ellipse class="cls-5" cx="372.12" cy="525.82" rx="1.98" ry="1.92"/>
        <ellipse class="cls-5" cx="244.43" cy="469.11" rx="1.98" ry="1.92"/>
        <path class="cls-2" d="M287.44,501.4c0,1.06-.89,1.92-1.98,1.92s-1.98-.86-1.98-1.92,.89-1.92,1.98-1.92,1.98,.86,1.98,1.92Z"/>
        <path class="cls-2" d="M527.25,452.51c0,1.06-.89,1.92-1.98,1.92s-1.98-.86-1.98-1.92,.89-1.92,1.98-1.92,1.98,.86,1.98,1.92Z"/>
        <ellipse class="cls-5" cx="543.22" cy="581.63" rx="3.96" ry="3.83"/>
        <path class="cls-2" d="M237.55,433.3c0,2.12-1.77,3.83-3.96,3.83s-3.96-1.72-3.96-3.83,1.77-3.83,3.96-3.83,3.96,1.72,3.96,3.83Z"/>
        <path class="cls-2" d="M319.3,427.75c0,1.06-.89,1.92-1.98,1.92s-1.98-.86-1.98-1.92,.89-1.92,1.98-1.92,1.98,.86,1.98,1.92Z"/>
        <path class="cls-2" d="M429.93,396.86c0,2.12-1.77,3.83-3.96,3.83s-3.96-1.72-3.96-3.83,1.77-3.83,3.96-3.83,3.96,1.72,3.96,3.83Z"/>
        <path class="cls-2" d="M489.56,365.27c0,1.06-.89,1.92-1.98,1.92s-1.98-.86-1.98-1.92,.89-1.92,1.98-1.92,1.98,.86,1.98,1.92Z"/>
        <ellipse class="cls-5" cx="414.46" cy="440.84" rx="3.96" ry="3.83"/>
        <ellipse class="cls-5" cx="506.18" cy="416.77" rx="3.96" ry="3.83"/>
        <ellipse class="cls-5" cx="446.42" cy="469.06" rx="3.96" ry="3.83"/>
        <ellipse class="cls-5" cx="192.84" cy="391.87" rx="3.96" ry="3.83"/>
        <ellipse class="cls-5" cx="555.15" cy="497.7" rx="3.96" ry="3.83"/>
        <path class="cls-2" d="M532.63,358.14c0,1.06-.89,1.92-1.98,1.92s-1.98-.86-1.98-1.92,.89-1.92,1.98-1.92,1.98,.86,1.98,1.92Z"/>
        <path class="cls-2" d="M508.14,464.8c0,1.06-.89,1.92-1.98,1.92s-1.98-.86-1.98-1.92,.89-1.92,1.98-1.92,1.98,.86,1.98,1.92Z"/>
        <path class="cls-2" d="M503.57,522.07c0,1.06-.89,1.92-1.98,1.92s-1.98-.86-1.98-1.92,.89-1.92,1.98-1.92,1.98,.86,1.98,1.92Z"/>
        <path class="cls-2" d="M550.89,393c0,1.06-.89,1.92-1.98,1.92s-1.98-.86-1.98-1.92,.89-1.92,1.98-1.92,1.98,.86,1.98,1.92Z"/>
        <path class="cls-2" d="M561.26,450.69c0,1.06-.89,1.92-1.98,1.92s-1.98-.86-1.98-1.92,.89-1.92,1.98-1.92,1.98,.86,1.98,1.92Z"/>
        <path class="cls-2" d="M430.53,513.35c0,1.06-.89,1.92-1.98,1.92s-1.98-.86-1.98-1.92,.89-1.92,1.98-1.92,1.98,.86,1.98,1.92Z"/>
        <path class="cls-2" d="M367.86,416.65c0,1.06-.89,1.92-1.98,1.92s-1.98-.86-1.98-1.92,.89-1.92,1.98-1.92,1.98,.86,1.98,1.92Z"/>
        <path class="cls-2" d="M135.87,533.69c0,1.06-.89,1.92-1.98,1.92s-1.98-.86-1.98-1.92,.89-1.92,1.98-1.92,1.98,.86,1.98,1.92Z"/>
        <path class="cls-2" d="M131.78,317.82c0,1.25-1.03,2.27-2.3,2.27s-2.3-1.02-2.3-2.27,1.03-2.27,2.3-2.27,2.3,1.02,2.3,2.27Z"/>
        <path class="cls-2" d="M214.36,173.26c0,2.12-1.77,3.83-3.96,3.83s-3.96-1.72-3.96-3.83,1.77-3.83,3.96-3.83,3.96,1.72,3.96,3.83Z"/>
        <path class="cls-2" d="M26.94,169.43c0,2.12-1.77,3.83-3.96,3.83s-3.96-1.72-3.96-3.83,1.77-3.83,3.96-3.83,3.96,1.72,3.96,3.83Z"/>
        <path class="cls-2" d="M65.83,211.3c0,1.06-.89,1.92-1.98,1.92s-1.98-.86-1.98-1.92,.89-1.92,1.98-1.92,1.98,.86,1.98,1.92Z"/>
        <path class="cls-2" d="M174.64,177.09c0,1.06-.89,1.92-1.98,1.92s-1.98-.86-1.98-1.92,.89-1.92,1.98-1.92,1.98,.86,1.98,1.92Z"/>
        <path class="cls-2" d="M10.1,122.94c0,1.06-.89,1.92-1.98,1.92s-1.98-.86-1.98-1.92,.89-1.92,1.98-1.92,1.98,.86,1.98,1.92Z"/>
        <ellipse class="cls-5" cx="102.91" cy="179.01" rx="1.98" ry="1.92"/>
        <path class="cls-2" d="M96.03,143.2c0,2.12-1.77,3.83-3.96,3.83s-3.96-1.72-3.96-3.83,1.77-3.83,3.96-3.83,3.96,1.72,3.96,3.83Z"/>
        <path class="cls-2" d="M116.78,99.21c0,2.12-1.77,3.83-3.96,3.83s-3.96-1.72-3.96-3.83,1.77-3.83,3.96-3.83,3.96,1.72,3.96,3.83Z"/>
        <path class="cls-2" d="M196.64,99.07c0,1.06-.89,1.92-1.98,1.92s-1.98-.86-1.98-1.92,.89-1.92,1.98-1.92,1.98,.86,1.98,1.92Z"/>
        <ellipse class="cls-5" cx="304.89" cy="178.96" rx="3.96" ry="3.83"/>
        <ellipse class="cls-5" cx="51.32" cy="101.77" rx="3.96" ry="3.83"/>
        <path class="cls-2" d="M20.91,214.95c0,1.06-.89,1.92-1.98,1.92s-1.98-.86-1.98-1.92,.89-1.92,1.98-1.92,1.98,.86,1.98,1.92Z"/>
        <path class="cls-2" d="M520.65,237.59c0,2.12-1.77,3.83-3.96,3.83s-3.96-1.72-3.96-3.83,1.77-3.83,3.96-3.83,3.96,1.72,3.96,3.83Z"/>
        <path class="cls-2" d="M316.39,187.27c0,1.06-.89,1.92-1.98,1.92s-1.98-.86-1.98-1.92,.89-1.92,1.98-1.92,1.98,.86,1.98,1.92Z"/>
        <path class="cls-2" d="M423.07,163.53c0,2.12-1.77,3.83-3.96,3.83s-3.96-1.72-3.96-3.83,1.77-3.83,3.96-3.83,3.96,1.72,3.96,3.83Z"/>
        <path class="cls-2" d="M502.92,163.39c0,1.06-.89,1.92-1.98,1.92s-1.98-.86-1.98-1.92,.89-1.92,1.98-1.92,1.98,.86,1.98,1.92Z"/>
        <path class="cls-2" d="M484.07,201.98c0,1.06-.89,1.92-1.98,1.92s-1.98-.86-1.98-1.92,.89-1.92,1.98-1.92,1.98,.86,1.98,1.92Z"/>
        <path class="cls-2" d="M594.69,171.09c0,2.12-1.77,3.83-3.96,3.83s-3.96-1.72-3.96-3.83,1.77-3.83,3.96-3.83,3.96,1.72,3.96,3.83Z"/>
        <ellipse class="cls-5" cx="579.22" cy="215.07" rx="3.96" ry="3.83"/>
        <ellipse class="cls-5" cx="499.12" cy="313.01" rx="3.96" ry="3.83"/>
        <ellipse class="cls-5" cx="357.6" cy="166.1" rx="3.96" ry="3.83"/>
        <path class="cls-2" d="M595.29,287.58c0,1.06-.89,1.92-1.98,1.92s-1.98-.86-1.98-1.92,.89-1.92,1.98-1.92,1.98,.86,1.98,1.92Z"/>
        <path class="cls-2" d="M532.63,190.88c0,1.06-.89,1.92-1.98,1.92s-1.98-.86-1.98-1.92,.89-1.92,1.98-1.92,1.98,.86,1.98,1.92Z"/>
        <path class="cls-2" d="M555.99,129.28c-1.22,1.73-3.65,2.12-5.44,.86s-2.25-3.68-1.04-5.41,3.65-2.12,5.44-.86c1.79,1.26,2.25,3.68,1.04,5.41Z"/>
        <path class="cls-2" d="M561.67,18.47c-1.22,1.73-3.65,2.12-5.44,.86s-2.25-3.68-1.04-5.41,3.65-2.12,5.44-.86,2.25,3.68,1.04,5.41Z"/>
        <path class="cls-2" d="M354.46,99.15c-.61,.87-1.83,1.06-2.72,.43s-1.13-1.84-.52-2.7,1.83-1.06,2.72-.43,1.13,1.84,.52,2.7Z"/>
        <path class="cls-2" d="M521.28,109.6c-.61,.87-1.83,1.06-2.72,.43s-1.13-1.84-.52-2.7,1.83-1.06,2.72-.43,1.13,1.84,.52,2.7Z"/>
        <path class="cls-2" d="M316.86,93.59c-.61,.87-1.83,1.06-2.72,.43s-1.13-1.84-.52-2.7,1.83-1.06,2.72-.43,1.13,1.84,.52,2.7Z"/>
        <ellipse class="cls-5" cx="461.46" cy="69.95" rx="1.92" ry="1.98" transform="translate(139.08 407.46) rotate(-54.93)"/>
        <path class="cls-2" d="M478.11,121.1c-.61,.87-1.83,1.06-2.72,.43s-1.13-1.84-.52-2.7,1.83-1.06,2.72-.43,1.13,1.84,.52,2.7Z"/>
        <path class="cls-2" d="M476.41,36.69c-1.22,1.73-3.65,2.12-5.44,.86-1.79-1.26-2.25-3.68-1.04-5.41s3.65-2.12,5.44-.86,2.25,3.68,1.04,5.41Z"/>
        <path class="cls-2" d="M518.67,12.61c-1.22,1.73-3.65,2.12-5.44,.86s-2.25-3.68-1.04-5.41,3.65-2.12,5.44-.86,2.25,3.68,1.04,5.41Z"/>
        <path class="cls-2" d="M584.11,58.38c-.61,.87-1.83,1.06-2.72,.43s-1.13-1.84-.52-2.7,1.83-1.06,2.72-.43,1.13,1.84,.52,2.7Z"/>
        <path class="cls-2" d="M546.5,79.13c-.61,.87-1.83,1.06-2.72,.43s-1.13-1.84-.52-2.7,1.83-1.06,2.72-.43c.89,.63,1.13,1.84,.52,2.7Z"/>
        <ellipse class="cls-5" cx="264.51" cy="92.63" rx="3.83" ry="3.96" transform="translate(36.72 255.91) rotate(-54.93)"/>
        <ellipse class="cls-5" cx="550.86" cy="273.54" rx="3.83" ry="3.96" transform="translate(10.48 567.24) rotate(-54.93)"/>
        <ellipse class="cls-5" cx="508.02" cy="67.98" rx="3.83" ry="3.96" transform="translate(160.5 444.72) rotate(-54.93)"/>
        <path class="cls-2" d="M588.36,213.09c-.61,.87-1.83,1.06-2.72,.43s-1.13-1.84-.52-2.7,1.83-1.06,2.72-.43,1.13,1.84,.52,2.7Z"/>
        <path class="cls-2" d="M592.62,97.94c-.61,.87-1.83,1.06-2.72,.43s-1.13-1.84-.52-2.7,1.83-1.06,2.72-.43,1.13,1.84,.52,2.7Z"/>
        <path class="cls-2" d="M255.83,70.11c-.61,.87-1.83,1.06-2.72,.43s-1.13-1.84-.52-2.7,1.83-1.06,2.72-.43,1.13,1.84,.52,2.7Z"/>
        <ellipse class="cls-5" cx="183.43" cy="340.03" rx="1.98" ry="1.92"/>
        <path class="cls-2" d="M176.54,304.23c0,2.12-1.77,3.83-3.96,3.83s-3.96-1.72-3.96-3.83,1.77-3.83,3.96-3.83,3.96,1.72,3.96,3.83Z"/>
        <ellipse class="cls-5" cx="131.83" cy="262.8" rx="3.96" ry="3.83"/>
        <path class="cls-2" d="M250.4,199.31c0,1.06-.89,1.92-1.98,1.92s-1.98-.86-1.98-1.92,.89-1.92,1.98-1.92,1.98,.86,1.98,1.92Z"/>
        <ellipse class="cls-5" cx="40.11" cy="41.59" rx="3.96" ry="3.83"/>
        <ellipse class="cls-5" cx="440.61" cy="344.56" rx="3.96" ry="3.83"/>
        <path class="cls-2" d="M26.94,3.83c0,2.12-1.77,3.83-3.96,3.83s-3.96-1.72-3.96-3.83,1.77-3.83,3.96-3.83,3.96,1.72,3.96,3.83Z"/>
        <path class="cls-2" d="M118.25,444.58c0,2.12-1.77,3.83-3.96,3.83s-3.96-1.72-3.96-3.83,1.77-3.83,3.96-3.83,3.96,1.72,3.96,3.83Z"/>
        <path class="cls-2" d="M131.11,503.1c0,2.12-1.77,3.83-3.96,3.83s-3.96-1.72-3.96-3.83,1.77-3.83,3.96-3.83,3.96,1.72,3.96,3.83Z"/>
      </g>
      <g>
        <path class="cls-3" d="M52.88,91.03l1.9-.66c-1.71-2.23-2.33-6.32-1.8-9.94,.24-1.61,.71-3.13,1.41-4.36,.71-1.25,1.67-2.19,2.87-2.64,1.24-.46,2.73-.38,4.49,.46,4.08-2.15,7.58,1.76,8.11,2.4,1.72-.43,3.34-.24,4.71,.38,.9,.41,1.69,1,2.31,1.72,.63,.72,1.09,1.57,1.35,2.5,.4,1.41,.31,2.99-.41,4.56,.56,.62,3.95,4.62,1.07,8.15,.55,1.82,.38,3.26-.3,4.36-.65,1.08-1.78,1.83-3.17,2.3-1.37,.46-2.99,.65-4.67,.61-3.77-.1-7.83-1.39-9.81-3.4l-.99,1.7v.02s-1.21,1.55-2.74-.21l-4.61-5.3c-1.53-1.76,.24-2.64,.25-2.64h.02Z"/>
        <g>
          <path class="cls-1" d="M53.06,92.14c-.37-.42-.81-.93-1.27-1.46-.2-.23-.41-.47-.61-.7l-2.43,.85s-1.59,.79-.2,2.39c1.39,1.6,2.31,2.65,2.31,2.65,0,0,.91,1.05,2.3,2.65,1.39,1.6,2.46,.21,2.46,.21l1.28-2.18c-.2-.23-.41-.47-.61-.7-.46-.53-.9-1.03-1.27-1.46-.58-.67-.98-1.13-.98-1.13,0,0-.4-.46-.98-1.13Z"/>
          <path class="cls-4" d="M53.06,92.14c-.37-.42-.81-.93-1.27-1.46-.2-.23-.41-.47-.61-.7l-.89,.31,4.46,6.02s1.18,1.62-1.77,2l.17,.2c1.39,1.6,2.46,.21,2.46,.21l1.28-2.18c-.2-.23-.41-.47-.61-.7-.46-.53-.9-1.03-1.27-1.46-.58-.67-.98-1.13-.98-1.13,0,0-.4-.46-.98-1.13Z"/>
          <path class="cls-1" d="M74.52,93.2c3.14-3.74-1.08-8.09-1.08-8.09,2.47-5.14-2.17-10.48-7.82-8.99,0,0-3.71-4.77-8.04-2.4-9.01-4.39-10.86,11.59-6.63,16.46,1.39,1.6,2.86,3.28,2.86,3.28,0,0,1.47,1.69,2.86,3.28,4.23,4.87,20.8,5.8,17.86-3.54Z"/>
          <path class="cls-4" d="M75.65,89.6c-.76,1.47-2.09,3.23-4.35,4.37-3.45,1.74-8.97,4.51-13.82,3.56,.46,.37,.99,.7,1.58,1.01,1.33,.68,2.93,1.2,4.6,1.5,.88-.95,1.96-1.82,3.27-2.32,2.66-1.03,5.96-1.9,7.93-2.38,.01-.64-.1-1.35-.35-2.14,1-1.19,1.25-2.45,1.13-3.61h0Zm-1.93-9.52c.54,1.45,.55,3.12-.18,4.8-1.92,2.33-4.98,4.91-8.65,6.91-2.84,1.55-6.05,2.74-9.36,3.2-.13,.02-.25,.03-.37,.05-.78-.9-1.37-1.57-1.37-1.57,0,0-.02-.03-.06-.08,.15,.02,.31,.04,.47,.06,2.07,.22,5.02,.01,8.57-1.66,6.02-2.83,10.53-7.69,10.96-11.7h0Zm-11.51-3.25c-3.01,2.86-5.77,5.55-7.53,8.17-1.32,1.96-2.15,4.13-4.2,4.58,.12,.18,.25,.36,.38,.52,.02,.03,.05,.06,.07,.09,.4,.46,.81,.93,1.19,1.36,.04-.12,.08-.23,.12-.35,1.05-3.05,2.8-5.87,4.83-8.29,2.59-3.09,5.66-5.55,8.33-7.03-.32-.36-.98-1.04-1.89-1.65,0,.78-.34,1.67-1.31,2.6h0Zm-12.68,10.75s.02,.05,0,0c-.44-1.28-.68-2.75-.74-4.26,1.85-2.55,4.62-6.39,5.6-7.85,.8-1.18,.62-1.99,.27-2.5,.75,0,1.58,.17,2.48,.55h0s-.07-.03-.07-.03c-1.94,1.88-4.46,5.04-6.06,8.73-.73,1.7-1.27,3.51-1.47,5.36Z"/>
          <path class="cls-4" d="M73.65,85.36c-1.96,2.3-4.98,4.81-8.56,6.76-2.92,1.59-6.21,2.81-9.62,3.26l-.3-.35c3.44-.41,6.78-1.64,9.73-3.25,3.67-2,6.73-4.58,8.65-6.91-.04,.08-.07,.16-.11,.24,0,0,.08,.08,.22,.24h0Zm-7.77-9.3c-.09,.02-.18,.04-.27,.07,0,0-.07-.09-.21-.25-2.67,1.48-5.73,3.94-8.33,7.03-2.11,2.52-3.91,5.46-4.95,8.64l.31,.35c1-3.22,2.82-6.2,4.95-8.74,2.66-3.16,5.8-5.65,8.5-7.09h0Zm-8.44-2.4c-.13-.06-.26-.12-.39-.17-1.94,1.88-4.46,5.04-6.06,8.73-.73,1.7-1.27,3.51-1.47,5.36,.1,.29,.21,.57,.33,.84,.1-2.09,.68-4.14,1.5-6.05,1.61-3.71,4.16-6.87,6.08-8.71h0Zm.81,24.42c.25,.16,.52,.31,.8,.46,1.92,.12,3.85-.08,5.7-.5,4.02-.9,7.66-2.77,9.91-4.31-.03-.13-.07-.26-.11-.39-2.2,1.52-5.85,3.42-9.89,4.33-2.08,.47-4.27,.67-6.41,.41Z"/>
        </g>
      </g>
      <g>
        <path class="cls-3" d="M540.53,60.73l1.9-.66c-1.71-2.23-2.33-6.32-1.8-9.94,.24-1.61,.71-3.13,1.41-4.36,.71-1.25,1.67-2.19,2.87-2.64,1.24-.46,2.73-.38,4.49,.46,4.08-2.15,7.58,1.76,8.11,2.4,1.72-.43,3.34-.24,4.71,.38,.9,.41,1.69,1,2.31,1.72,.63,.72,1.09,1.57,1.35,2.5,.4,1.41,.31,2.99-.41,4.56,.56,.62,3.95,4.62,1.07,8.15,.55,1.82,.38,3.26-.3,4.36-.65,1.08-1.78,1.83-3.17,2.3-1.37,.46-2.99,.65-4.67,.61-3.77-.1-7.83-1.39-9.81-3.4l-.99,1.7v.02s-1.21,1.55-2.74-.21l-4.61-5.3c-1.53-1.76,.24-2.64,.25-2.64h.02Z"/>
        <g>
          <path class="cls-1" d="M540.71,61.84c-.37-.42-.81-.93-1.27-1.46-.2-.23-.41-.47-.61-.7l-2.43,.85s-1.59,.79-.2,2.39c1.39,1.6,2.31,2.65,2.31,2.65,0,0,.91,1.05,2.3,2.65,1.39,1.6,2.46,.21,2.46,.21l1.28-2.18c-.2-.23-.41-.47-.61-.7-.46-.53-.9-1.03-1.27-1.46-.58-.67-.98-1.13-.98-1.13,0,0-.4-.46-.98-1.13Z"/>
          <path class="cls-4" d="M540.71,61.84c-.37-.42-.81-.93-1.27-1.46-.2-.23-.41-.47-.61-.7l-.89,.31,4.46,6.02s1.18,1.62-1.77,2l.17,.2c1.39,1.6,2.46,.21,2.46,.21l1.28-2.18c-.2-.23-.41-.47-.61-.7-.46-.53-.9-1.03-1.27-1.46-.58-.67-.98-1.13-.98-1.13,0,0-.4-.46-.98-1.13Z"/>
          <path class="cls-1" d="M562.17,62.91c3.14-3.74-1.08-8.09-1.08-8.09,2.47-5.14-2.17-10.48-7.82-8.99,0,0-3.71-4.77-8.04-2.4-9.01-4.39-10.86,11.59-6.63,16.46,1.39,1.6,2.86,3.28,2.86,3.28,0,0,1.47,1.69,2.86,3.28,4.23,4.87,20.8,5.8,17.86-3.54Z"/>
          <path class="cls-4" d="M563.3,59.3c-.76,1.47-2.09,3.23-4.35,4.37-3.45,1.74-8.97,4.51-13.82,3.56,.46,.37,.99,.7,1.58,1.01,1.33,.68,2.93,1.2,4.6,1.5,.88-.95,1.96-1.82,3.27-2.32,2.66-1.03,5.96-1.9,7.93-2.38,.01-.64-.1-1.35-.35-2.14,1-1.19,1.25-2.45,1.13-3.61h0Zm-1.93-9.52c.54,1.45,.55,3.12-.18,4.8-1.92,2.33-4.98,4.91-8.65,6.91-2.84,1.55-6.05,2.74-9.36,3.2-.13,.02-.25,.03-.37,.05-.78-.9-1.37-1.57-1.37-1.57,0,0-.02-.03-.06-.08,.15,.02,.31,.04,.47,.06,2.07,.22,5.02,.01,8.57-1.66,6.02-2.83,10.53-7.69,10.96-11.7h0Zm-11.51-3.25c-3.01,2.86-5.77,5.55-7.53,8.17-1.32,1.96-2.15,4.13-4.2,4.58,.12,.18,.25,.36,.38,.52,.02,.03,.05,.06,.07,.09,.4,.46,.81,.93,1.19,1.36,.04-.12,.08-.23,.12-.35,1.05-3.05,2.8-5.87,4.83-8.29,2.59-3.09,5.66-5.55,8.33-7.03-.32-.36-.98-1.04-1.89-1.65,0,.78-.34,1.67-1.31,2.6h0Zm-12.68,10.75s.02,.05,0,0c-.44-1.28-.68-2.75-.74-4.26,1.85-2.55,4.62-6.39,5.6-7.85,.8-1.18,.62-1.99,.27-2.5,.75,0,1.58,.17,2.48,.55h0s-.07-.03-.07-.03c-1.94,1.88-4.46,5.04-6.06,8.73-.73,1.7-1.27,3.51-1.47,5.36Z"/>
          <path class="cls-4" d="M561.3,55.06c-1.96,2.3-4.98,4.81-8.56,6.76-2.92,1.59-6.21,2.81-9.62,3.26l-.3-.35c3.44-.41,6.78-1.64,9.73-3.25,3.67-2,6.73-4.58,8.65-6.91-.04,.08-.07,.16-.11,.24,0,0,.08,.08,.22,.24h0Zm-7.77-9.3c-.09,.02-.18,.04-.27,.07,0,0-.07-.09-.21-.25-2.67,1.48-5.73,3.94-8.33,7.03-2.11,2.52-3.91,5.46-4.95,8.64l.31,.35c1-3.22,2.82-6.2,4.95-8.74,2.66-3.16,5.8-5.65,8.5-7.09h0Zm-8.44-2.4c-.13-.06-.26-.12-.39-.17-1.94,1.88-4.46,5.04-6.06,8.73-.73,1.7-1.27,3.51-1.47,5.36,.1,.29,.21,.57,.33,.84,.1-2.09,.68-4.14,1.5-6.05,1.61-3.71,4.16-6.87,6.08-8.71h0Zm.81,24.42c.25,.16,.52,.31,.8,.46,1.92,.12,3.85-.08,5.7-.5,4.02-.9,7.66-2.77,9.91-4.31-.03-.13-.07-.26-.11-.39-2.2,1.52-5.85,3.42-9.89,4.33-2.08,.47-4.27,.67-6.41,.41Z"/>
        </g>
      </g>
    </g>
  </g>
</svg>