<?xml version="1.0" encoding="UTF-8"?>
<svg id="Layer_2" data-name="Layer 2" xmlns="http://www.w3.org/2000/svg" xmlns:xlink="http://www.w3.org/1999/xlink" viewBox="0 0 595.2 608.14">
  <defs>
    <style>
      .cls-1 {
        fill: #f69184;
      }

      .cls-2, .cls-3 {
        fill: #fff;
      }

      .cls-4 {
        fill: #ee6065;
      }

      .cls-5 {
        fill: #f4785b;
      }

      .cls-6 {
        opacity: .5;
      }

      .cls-3, .cls-7, .cls-8, .cls-9, .cls-10 {
        fill-rule: evenodd;
      }

      .cls-11 {
        clip-path: url(#clippath-2);
      }

      .cls-12 {
        fill: #efc23f;
      }

      .cls-7, .cls-13 {
        fill: #f4d79b;
      }

      .cls-14 {
        fill: #f7e3ae;
      }

      .cls-15 {
        filter: url(#drop-shadow-3);
      }

      .cls-16 {
        filter: url(#drop-shadow-1);
      }

      .cls-17 {
        clip-path: url(#clippath-1);
      }

      .cls-18 {
        clip-path: url(#clippath-4);
      }

      .cls-19 {
        filter: url(#drop-shadow-2);
      }

      .cls-20 {
        clip-path: url(#clippath);
      }

      .cls-21 {
        fill: none;
      }

      .cls-22 {
        clip-path: url(#clippath-3);
      }

      .cls-23 {
        fill: #5bc0b2;
      }

      .cls-24 {
        fill: #4e887f;
      }

      .cls-8 {
        fill: #c4464e;
      }

      .cls-9 {
        fill: #1c1b18;
        opacity: .1;
      }

      .cls-10 {
        fill: #d5e3cd;
      }
    </style>
    <clipPath id="clippath">
      <rect class="cls-21" width="595.2" height="608.14"/>
    </clipPath>
    <filter id="drop-shadow-1" filterUnits="userSpaceOnUse">
      <feOffset dx="5.67" dy="5.67"/>
      <feGaussianBlur result="blur" stdDeviation="0"/>
      <feFlood flood-color="#231f20" flood-opacity=".25"/>
      <feComposite in2="blur" operator="in"/>
      <feComposite in="SourceGraphic"/>
    </filter>
    <filter id="drop-shadow-2" filterUnits="userSpaceOnUse">
      <feOffset dx="5.67" dy="5.67"/>
      <feGaussianBlur result="blur-2" stdDeviation="0"/>
      <feFlood flood-color="#232020" flood-opacity=".25"/>
      <feComposite in2="blur-2" operator="in"/>
      <feComposite in="SourceGraphic"/>
    </filter>
    <clipPath id="clippath-1">
      <path class="cls-21" d="M234.53,470.44c-6.63-21.94-26.47-18.64-26.47-18.64-4.6,.11-19.92,8.28-23.78,24.95-3.86,16.67-11.6,23.11-15.84,25.44-4.25,2.33-21.03,13.82-21.93,19.89-.89,6.07,3.45,13.21,17.25,15.32,13.8,2.11,29.1-17.09,30.01-18.01s7.49-10.3,21.44-17.67c13.95-7.37,21.46-22.93,19.3-31.29Z"/>
    </clipPath>
    <clipPath id="clippath-2">
      <path class="cls-21" d="M159.78,409.19c27.16-9.48,35.82,4.32,35.82,4.32,2.7,2.8,3.47,16.89-11.73,29.39-15.2,12.49-17.24,21.03-17.1,24.98,.14,3.95-1.69,20.95-7.53,25.19-5.85,4.25-16.03,6.04-26.69-.87-10.66-6.91,.2-27.74,.6-28.85,.41-1.11,6.26-10.75,5.49-23.55-.77-12.8,11.02-26.78,21.14-30.61Z"/>
    </clipPath>
    <filter id="drop-shadow-3" filterUnits="userSpaceOnUse">
      <feOffset dx="5.67" dy="5.67"/>
      <feGaussianBlur result="blur-3" stdDeviation="0"/>
      <feFlood flood-color="#232020" flood-opacity=".25"/>
      <feComposite in2="blur-3" operator="in"/>
      <feComposite in="SourceGraphic"/>
    </filter>
    <clipPath id="clippath-3">
      <path class="cls-21" d="M168.91,343.28s12.13-2.75,15.13,.36c3.01,3.11,3.77,16.52-.25,19.41-4.03,2.88-14.5,4.95-19.43,2.8-4.93-2.15-10.28-13.41-8.56-16.73,1.72-3.32,13.12-5.84,13.12-5.84Z"/>
    </clipPath>
    <clipPath id="clippath-4">
      <path class="cls-21" d="M128.07,349.17s-12.41,.79-14.41,4.62c-2.01,3.83,1.05,16.92,5.73,18.54,4.68,1.63,15.31,.65,19.43-2.8,4.12-3.45,6.07-15.77,3.49-18.46-2.59-2.7-14.23-1.9-14.23-1.9Z"/>
    </clipPath>
  </defs>
  <g id="Layer_1-2" data-name="Layer 1">
    <g class="cls-20">
      <g class="cls-16">
        <path class="cls-5" d="M530,293.93c2.59-.87,13.85,20.86,15.84,21.31,1.99,.46,23.52-10.07,24.97-7.81,1.45,2.25-16.45,19.45-16.32,22.57,.13,3.12,18.12,18.99,16.44,21.48-1.68,2.5-21.85-8.19-24.85-7.18-3,1.01-12.89,21.92-15.89,20.91-3-1.01,1.06-23.77-.53-26.17-1.59-2.4-24.45-6.22-24.76-9.4-.31-3.18,23.39-5.74,25.89-8.13,2.5-2.38-3.37-26.71-.78-27.58Z"/>
        <path class="cls-1" d="M538.8,329.6c.41,1.29,1.76,1.99,3.01,1.57,1.25-.42,1.93-1.81,1.52-3.09-.41-1.29-1.76-1.99-3.01-1.57-1.25,.42-1.93,1.81-1.52,3.09Z"/>
        <path class="cls-1" d="M544.55,326.05c.32,1,1.37,1.55,2.35,1.22,.98-.33,1.51-1.41,1.19-2.41-.32-1-1.37-1.55-2.35-1.22-.98,.33-1.51,1.41-1.19,2.41Z"/>
        <path class="cls-1" d="M549.33,322.54c.26,.82,1.12,1.26,1.91,.99,.8-.27,1.23-1.15,.97-1.97-.26-.82-1.12-1.26-1.91-.99-.8,.27-1.23,1.15-.97,1.97Z"/>
        <path class="cls-1" d="M553.38,319.65c.24,.76,1.04,1.18,1.78,.93s1.15-1.07,.9-1.83c-.24-.76-1.04-1.18-1.78-.93-.74,.25-1.15,1.07-.9,1.83Z"/>
        <path class="cls-1" d="M557.44,316.76c.19,.58,.8,.9,1.36,.71,.57-.19,.88-.82,.69-1.4-.19-.58-.8-.9-1.36-.71-.57,.19-.88,.82-.69,1.4Z"/>
        <path class="cls-1" d="M560.54,314.39c.18,.56,.76,.86,1.3,.68,.54-.18,.84-.78,.66-1.34-.18-.56-.76-.86-1.3-.68-.54,.18-.84,.78-.66,1.34Z"/>
        <path class="cls-1" d="M563.78,311.97c.13,.42,.58,.65,.98,.51,.41-.14,.63-.59,.5-1.01s-.58-.65-.98-.51-.63,.59-.5,1.01Z"/>
        <path class="cls-1" d="M566.74,309.79c.11,.34,.46,.52,.79,.41,.33-.11,.51-.47,.4-.81-.11-.34-.46-.52-.79-.41-.33,.11-.51,.47-.4,.81Z"/>
        <path class="cls-1" d="M530.6,329.2c.26,.82-.18,1.7-.98,1.96-.8,.26-1.65-.19-1.91-1.01-.26-.82,.18-1.7,.98-1.96,.8-.26,1.65,.19,1.91,1.01Z"/>
        <path class="cls-1" d="M525.68,329.29c.24,.76-.17,1.58-.92,1.83-.74,.24-1.54-.18-1.78-.94-.24-.76,.17-1.58,.92-1.83,.74-.24,1.54,.18,1.78,.94Z"/>
        <path class="cls-1" d="M520.73,329.39c.18,.58-.13,1.21-.7,1.4-.57,.19-1.18-.14-1.36-.72-.18-.58,.13-1.21,.7-1.4,.57-.19,1.18,.14,1.36,.72Z"/>
        <path class="cls-1" d="M516.87,329.34c.17,.56-.13,1.16-.67,1.34-.54,.18-1.13-.13-1.3-.69-.17-.56,.13-1.16,.67-1.34,.54-.18,1.13,.13,1.3,.69Z"/>
        <path class="cls-1" d="M512.87,329.34c.13,.42-.09,.87-.51,1.01-.41,.13-.85-.1-.98-.52-.13-.42,.09-.87,.51-1.01s.85,.1,.98,.52Z"/>
        <path class="cls-1" d="M509.23,329.35c.11,.34-.08,.7-.4,.81s-.68-.08-.78-.42c-.11-.34,.08-.7,.4-.81,.33-.11,.68,.08,.78,.42Z"/>
        <path class="cls-1" d="M538.97,318.3c-.66,.53-1.61,.41-2.13-.27-.51-.68-.4-1.66,.26-2.19,.66-.53,1.61-.41,2.13,.27,.51,.68,.4,1.66-.26,2.19Z"/>
        <path class="cls-1" d="M537.18,313.58c-.62,.49-1.5,.38-1.98-.25-.48-.63-.37-1.55,.25-2.04,.62-.49,1.5-.38,1.98,.25,.48,.63,.37,1.55-.25,2.04Z"/>
        <path class="cls-1" d="M535.39,308.85c-.47,.38-1.15,.29-1.52-.19-.37-.48-.28-1.18,.19-1.56,.47-.38,1.15-.29,1.52,.19,.37,.48,.28,1.18-.19,1.56Z"/>
        <path class="cls-1" d="M534.1,305.1c-.45,.36-1.1,.28-1.45-.19-.35-.46-.27-1.13,.18-1.49s1.1-.28,1.45,.19c.35,.46,.27,1.13-.18,1.49Z"/>
        <path class="cls-1" d="M532.72,301.24c-.34,.27-.83,.21-1.09-.14-.26-.35-.2-.85,.14-1.13,.34-.27,.83-.21,1.09,.14,.26,.35,.2,.85-.14,1.13Z"/>
        <path class="cls-1" d="M531.46,297.73c-.27,.22-.66,.17-.88-.11-.21-.28-.16-.68,.11-.9,.27-.22,.66-.17,.88,.11,.21,.28,.16,.68-.11,.9Z"/>
        <path class="cls-1" d="M549.46,335.46c.29-.81,1.16-1.22,1.95-.92,.79,.3,1.19,1.19,.9,2-.29,.81-1.16,1.22-1.95,.92-.79-.3-1.19-1.19-.9-2Z"/>
        <path class="cls-1" d="M553.4,338.5c.27-.75,1.08-1.14,1.82-.86,.73,.28,1.11,1.11,.84,1.87-.27,.75-1.08,1.14-1.82,.86-.73-.28-1.11-1.11-.84-1.87Z"/>
        <path class="cls-1" d="M557.36,341.55c.21-.58,.83-.87,1.39-.66,.56,.21,.85,.85,.64,1.43s-.83,.87-1.39,.66-.85-.85-.64-1.43Z"/>
        <path class="cls-1" d="M560.37,344.03c.2-.55,.79-.83,1.33-.63,.54,.2,.81,.81,.61,1.36-.2,.55-.79,.83-1.33,.63-.54-.2-.81-.81-.61-1.36Z"/>
        <path class="cls-1" d="M563.53,346.57c.15-.42,.6-.63,1-.47,.4,.15,.61,.61,.46,1.03-.15,.42-.6,.63-1,.47-.4-.15-.61-.61-.46-1.03Z"/>
        <path class="cls-1" d="M566.4,348.86c.12-.33,.48-.5,.8-.38,.32,.12,.49,.49,.37,.82-.12,.33-.48,.5-.8,.38s-.49-.49-.37-.82Z"/>
        <path class="cls-1" d="M538.24,339.24c-.7-.47-1.64-.28-2.1,.44-.46,.72-.27,1.68,.43,2.16,.7,.47,1.64,.28,2.1-.44,.46-.72,.27-1.68-.43-2.16Z"/>
        <path class="cls-1" d="M536.81,344.09c-.65-.44-1.53-.26-1.96,.41-.43,.67-.25,1.57,.4,2.01,.65,.44,1.53,.26,1.96-.41,.43-.67,.25-1.57-.4-2.01Z"/>
        <path class="cls-1" d="M535.38,348.95c-.5-.34-1.17-.2-1.5,.31-.33,.51-.19,1.2,.31,1.54,.5,.34,1.17,.2,1.5-.31,.33-.51,.19-1.2-.31-1.54Z"/>
        <path class="cls-1" d="M534.38,352.79c-.48-.32-1.12-.19-1.43,.3-.31,.49-.18,1.15,.29,1.47,.48,.32,1.12,.19,1.43-.3,.31-.49,.18-1.15-.29-1.47Z"/>
        <path class="cls-1" d="M533.3,356.75c-.36-.24-.84-.14-1.08,.23-.24,.37-.14,.87,.22,1.11s.84,.14,1.08-.23,.14-.87-.22-1.11Z"/>
        <path class="cls-1" d="M532.31,360.35c-.29-.2-.68-.11-.87,.18-.19,.3-.11,.69,.18,.89,.29,.2,.68,.11,.87-.18,.19-.3,.11-.69-.18-.89Z"/>
        <path class="cls-1" d="M544.5,333.24c.32,1,1.37,1.55,2.35,1.22,.98-.33,1.51-1.41,1.19-2.41-.32-1-1.37-1.55-2.35-1.22-.98,.33-1.51,1.41-1.19,2.41Z"/>
        <path class="cls-1" d="M537.43,335.62c.32,1,1.37,1.55,2.35,1.22,.98-.33,1.51-1.41,1.19-2.41-.32-1-1.37-1.55-2.35-1.22-.98,.33-1.51,1.41-1.19,2.41Z"/>
        <path class="cls-1" d="M537.41,323.3c.32,1,1.37,1.55,2.35,1.22,.98-.33,1.51-1.41,1.19-2.41-.32-1-1.37-1.55-2.35-1.22-.98,.33-1.51,1.41-1.19,2.41Z"/>
        <path class="cls-1" d="M533.01,329.94c.32,1,1.37,1.55,2.35,1.22,.98-.33,1.51-1.41,1.19-2.41-.32-1-1.37-1.55-2.35-1.22-.98,.33-1.51,1.41-1.19,2.41Z"/>
      </g>
      <path class="cls-7" d="M248.83,373.58c0,2.03-1.7,3.68-3.8,3.68s-3.8-1.65-3.8-3.68,1.7-3.68,3.8-3.68,3.8,1.65,3.8,3.68Z"/>
      <path class="cls-14" d="M573.02,596.43v12.55H-.07V182.44c7.34,13.53,11.65,30.7,13.44,46.58,3.44,30.37,2.81,63.87,16.66,88.15,7.71,13.52,19.14,22.48,26.56,36.29,16.34,30.39,8.93,74.27,20.79,108.3,13.05,37.51,46.24,53.81,76.68,56.06,30.44,2.25,61.14-5.76,91.33-.07,63.03,11.89,116.25,81.78,179.88,81.16,38.7-.38,76.41-27.41,114.66-19.38,11.73,2.46,23.07,8.3,33.1,16.9Z"/>
      <path class="cls-13" d="M381.46,608.98H-.07v-194.89c7.6,7.52,13.53,17.27,17.56,27.4,7.38,18.53,9.75,38.74,14.36,58.23,3.18,13.44,8.76,28.12,21.05,33.43,9.07,3.92,19.52,1.63,29.07,4.01,7.63,1.91,14.5,6.91,18.83,13.71,2.87,4.51,4.61,9.67,7.2,14.34,9.9,17.83,30.85,26.2,50.63,26.75,19.77,.53,39.1-5.33,58.46-9.5,38.62-8.32,79.46-9.82,116.91,3.05,16.68,5.73,32.32,14.16,47.48,23.47Z"/>
      <path class="cls-24" d="M593.89,590.8c-7.78-2.3-15.1-7.2-21.42-11.6-.89-.62-1.77-1.26-2.64-1.9-.03,.08-.06,.17-.09,.25,0,0-.08-.17-.21-.46-1.03-.76-2.05-1.53-3.07-2.31-5.76,1.31-32.56,5.92-67.11-12.08,0,0,37.49-2.3,64.25,9.82-5.24-4.24-10.17-8.76-14.82-13.49-7.28-.04-33.99-1.92-61.78-25.43,0,0,33.85,5,56.82,20.19-3.37-3.68-6.59-7.45-9.68-11.28-4.03-.78-32.36-7.24-54.03-38.3,0,0,29.67,11.57,47.69,30.12-1.61-2.16-3.2-4.34-4.74-6.52-3.15-4.45-6.16-8.97-9.04-13.54,0,0,0,.01,0,.02,0,0-30.49-7.74-49.52-43.06,0,0,30.58,15.44,45.66,36.8-4.23-7.05-8.18-14.21-11.91-21.44-6.42-6.06-19.41-21.71-20.56-49.82,0,0,17.34,25.32,24.1,52.78,4.13,7.84,8.54,15.6,13.29,23.22-4.6-8.06-13.72-28.26-10.57-57.68,0,0,16.79,34.12,13.05,61.6,4.55,7.05,9.41,13.95,14.64,20.65-2.77-8.11-7.9-29.58,1.92-58.46,0,0,8.91,34.74-.09,60.76,4.99,6.25,10.3,12.32,16,18.15,.69,.7,1.38,1.41,2.09,2.11-2.38-6.09-9.51-28.79,1.22-60.36,0,0,9.03,35.22-.27,61.29,4.78,4.71,9.9,9.3,15.39,13.53-2.73-7.82-8.17-29.49,1.79-58.8,0,0,8.78,34.28,.09,60.23,5.79,4.3,11.99,8.17,18.62,11.29,1.81,.85,3.69,1.72,5.64,2.29,1.16,.34,.42,1.77-.73,1.43Z"/>
      <path class="cls-7" d="M140.98,202.77c0,1.02-.85,1.84-1.9,1.84s-1.9-.82-1.9-1.84,.85-1.84,1.9-1.84,1.9,.82,1.9,1.84Z"/>
      <path class="cls-7" d="M284.27,214.24c0,1.02-.85,1.84-1.9,1.84s-1.9-.82-1.9-1.84,.85-1.84,1.9-1.84,1.9,.82,1.9,1.84Z"/>
      <path class="cls-7" d="M328.69,223.52c0,2.03-1.7,3.68-3.8,3.68s-3.8-1.65-3.8-3.68,1.7-3.68,3.8-3.68,3.8,1.65,3.8,3.68Z"/>
      <path class="cls-7" d="M387.02,199.14c0,2.03-1.7,3.68-3.8,3.68s-3.8-1.65-3.8-3.68,1.7-3.68,3.8-3.68,3.8,1.65,3.8,3.68Z"/>
      <path class="cls-7" d="M202.68,206.09c0,2.03-1.7,3.68-3.8,3.68s-3.8-1.65-3.8-3.68,1.7-3.68,3.8-3.68,3.8,1.65,3.8,3.68Z"/>
      <g>
        <path class="cls-7" d="M342.47,444.64c0,2.03-1.7,3.68-3.8,3.68s-3.8-1.65-3.8-3.68,1.7-3.68,3.8-3.68,3.8,1.65,3.8,3.68Z"/>
        <path class="cls-7" d="M427.39,541.81c0,2.03-1.7,3.68-3.8,3.68s-3.8-1.65-3.8-3.68,1.7-3.68,3.8-3.68,3.8,1.65,3.8,3.68Z"/>
        <ellipse class="cls-13" cx="254.9" cy="508.26" rx="3.8" ry="3.68"/>
        <path class="cls-7" d="M327.28,521.33c0,2.03-1.7,3.68-3.8,3.68s-3.8-1.65-3.8-3.68,1.7-3.68,3.8-3.68,3.8,1.65,3.8,3.68Z"/>
        <path class="cls-7" d="M447.83,545.49c0,1.02-.85,1.84-1.9,1.84s-1.9-.82-1.9-1.84,.85-1.84,1.9-1.84,1.9,.82,1.9,1.84Z"/>
        <ellipse class="cls-13" cx="409.82" cy="298.89" rx="1.9" ry="1.84"/>
        <path class="cls-7" d="M304.35,448.32c0,1.02-.85,1.84-1.9,1.84s-1.9-.82-1.9-1.84,.85-1.84,1.9-1.84,1.9,.82,1.9,1.84Z"/>
        <path class="cls-7" d="M146.46,396.36c0,1.02-.85,1.84-1.9,1.84s-1.9-.82-1.9-1.84,.85-1.84,1.9-1.84,1.9,.82,1.9,1.84Z"/>
        <ellipse class="cls-13" cx="358.04" cy="504.58" rx="1.9" ry="1.84"/>
        <ellipse class="cls-13" cx="235.52" cy="450.16" rx="1.9" ry="1.84"/>
        <path class="cls-7" d="M276.79,481.15c0,1.02-.85,1.84-1.9,1.84s-1.9-.82-1.9-1.84,.85-1.84,1.9-1.84,1.9,.82,1.9,1.84Z"/>
        <path class="cls-7" d="M506.91,434.23c0,1.02-.85,1.84-1.9,1.84s-1.9-.82-1.9-1.84,.85-1.84,1.9-1.84,1.9,.82,1.9,1.84Z"/>
        <ellipse class="cls-13" cx="522.24" cy="558.14" rx="3.8" ry="3.68"/>
        <path class="cls-7" d="M228.91,415.8c0,2.03-1.7,3.68-3.8,3.68s-3.8-1.65-3.8-3.68,1.7-3.68,3.8-3.68,3.8,1.65,3.8,3.68Z"/>
        <path class="cls-7" d="M307.36,410.48c0,1.02-.85,1.84-1.9,1.84s-1.9-.82-1.9-1.84,.85-1.84,1.9-1.84,1.9,.82,1.9,1.84Z"/>
        <path class="cls-7" d="M413.52,380.83c0,2.03-1.7,3.68-3.8,3.68s-3.8-1.65-3.8-3.68,1.7-3.68,3.8-3.68,3.8,1.65,3.8,3.68Z"/>
        <path class="cls-7" d="M470.74,350.52c0,1.02-.85,1.84-1.9,1.84s-1.9-.82-1.9-1.84,.85-1.84,1.9-1.84,1.9,.82,1.9,1.84Z"/>
        <ellipse class="cls-13" cx="398.68" cy="423.03" rx="3.8" ry="3.68"/>
        <ellipse class="cls-13" cx="486.69" cy="399.94" rx="3.8" ry="3.68"/>
        <ellipse class="cls-13" cx="429.34" cy="450.12" rx="3.8" ry="3.68"/>
        <ellipse class="cls-13" cx="186.01" cy="376.04" rx="3.8" ry="3.68"/>
        <ellipse class="cls-13" cx="533.68" cy="477.6" rx="3.8" ry="3.68"/>
        <path class="cls-7" d="M512.07,343.67c0,1.02-.85,1.84-1.9,1.84s-1.9-.82-1.9-1.84,.85-1.84,1.9-1.84,1.9,.82,1.9,1.84Z"/>
        <path class="cls-7" d="M488.57,446.02c0,1.02-.85,1.84-1.9,1.84s-1.9-.82-1.9-1.84,.85-1.84,1.9-1.84,1.9,.82,1.9,1.84Z"/>
        <path class="cls-7" d="M484.19,500.98c0,1.02-.85,1.84-1.9,1.84s-1.9-.82-1.9-1.84,.85-1.84,1.9-1.84,1.9,.82,1.9,1.84Z"/>
        <path class="cls-7" d="M529.59,377.12c0,1.02-.85,1.84-1.9,1.84s-1.9-.82-1.9-1.84,.85-1.84,1.9-1.84,1.9,.82,1.9,1.84Z"/>
        <path class="cls-7" d="M539.55,432.48c0,1.02-.85,1.84-1.9,1.84s-1.9-.82-1.9-1.84,.85-1.84,1.9-1.84,1.9,.82,1.9,1.84Z"/>
        <path class="cls-7" d="M414.1,492.62c0,1.02-.85,1.84-1.9,1.84s-1.9-.82-1.9-1.84,.85-1.84,1.9-1.84,1.9,.82,1.9,1.84Z"/>
        <path class="cls-7" d="M353.96,399.83c0,1.02-.85,1.84-1.9,1.84s-1.9-.82-1.9-1.84,.85-1.84,1.9-1.84,1.9,.82,1.9,1.84Z"/>
        <path class="cls-7" d="M131.33,512.13c0,1.02-.85,1.84-1.9,1.84s-1.9-.82-1.9-1.84,.85-1.84,1.9-1.84,1.9,.82,1.9,1.84Z"/>
        <path class="cls-7" d="M127.41,304.98c0,1.2-.99,2.18-2.21,2.18s-2.21-.98-2.21-2.18,.99-2.18,2.21-2.18,2.21,.98,2.21,2.18Z"/>
        <path class="cls-7" d="M206.66,166.26c0,2.03-1.7,3.68-3.8,3.68s-3.8-1.65-3.8-3.68,1.7-3.68,3.8-3.68,3.8,1.65,3.8,3.68Z"/>
        <path class="cls-7" d="M26.81,162.58c0,2.03-1.7,3.68-3.8,3.68s-3.8-1.65-3.8-3.68,1.7-3.68,3.8-3.68,3.8,1.65,3.8,3.68Z"/>
        <path class="cls-7" d="M64.13,202.77c0,1.02-.85,1.84-1.9,1.84s-1.9-.82-1.9-1.84,.85-1.84,1.9-1.84,1.9,.82,1.9,1.84Z"/>
        <path class="cls-7" d="M168.55,169.94c0,1.02-.85,1.84-1.9,1.84s-1.9-.82-1.9-1.84,.85-1.84,1.9-1.84,1.9,.82,1.9,1.84Z"/>
        <path class="cls-7" d="M10.65,117.98c0,1.02-.85,1.84-1.9,1.84s-1.9-.82-1.9-1.84,.85-1.84,1.9-1.84,1.9,.82,1.9,1.84Z"/>
        <ellipse class="cls-13" cx="99.71" cy="171.78" rx="1.9" ry="1.84"/>
        <path class="cls-7" d="M93.11,137.41c0,2.03-1.7,3.68-3.8,3.68s-3.8-1.65-3.8-3.68,1.7-3.68,3.8-3.68,3.8,1.65,3.8,3.68Z"/>
        <path class="cls-7" d="M113.02,95.2c0,2.03-1.7,3.68-3.8,3.68s-3.8-1.65-3.8-3.68,1.7-3.68,3.8-3.68,3.8,1.65,3.8,3.68Z"/>
        <path class="cls-7" d="M189.65,95.06c0,1.02-.85,1.84-1.9,1.84s-1.9-.82-1.9-1.84,.85-1.84,1.9-1.84,1.9,.82,1.9,1.84Z"/>
        <ellipse class="cls-13" cx="293.54" cy="171.73" rx="3.8" ry="3.68"/>
        <ellipse class="cls-13" cx="50.2" cy="97.66" rx="3.8" ry="3.68"/>
        <path class="cls-7" d="M21.02,206.27c0,1.02-.85,1.84-1.9,1.84s-1.9-.82-1.9-1.84,.85-1.84,1.9-1.84,1.9,.82,1.9,1.84Z"/>
        <path class="cls-7" d="M500.57,227.99c0,2.03-1.7,3.68-3.8,3.68s-3.8-1.65-3.8-3.68,1.7-3.68,3.8-3.68,3.8,1.65,3.8,3.68Z"/>
        <path class="cls-7" d="M304.56,179.71c0,1.02-.85,1.84-1.9,1.84s-1.9-.82-1.9-1.84,.85-1.84,1.9-1.84,1.9,.82,1.9,1.84Z"/>
        <path class="cls-7" d="M406.94,156.93c0,2.03-1.7,3.68-3.8,3.68s-3.8-1.65-3.8-3.68,1.7-3.68,3.8-3.68,3.8,1.65,3.8,3.68Z"/>
        <path class="cls-7" d="M483.57,156.79c0,1.02-.85,1.84-1.9,1.84s-1.9-.82-1.9-1.84,.85-1.84,1.9-1.84,1.9,.82,1.9,1.84Z"/>
        <path class="cls-7" d="M465.47,193.83c0,1.02-.85,1.84-1.9,1.84s-1.9-.82-1.9-1.84,.85-1.84,1.9-1.84,1.9,.82,1.9,1.84Z"/>
        <path class="cls-7" d="M571.63,164.18c0,2.03-1.7,3.68-3.8,3.68s-3.8-1.65-3.8-3.68,1.7-3.68,3.8-3.68,3.8,1.65,3.8,3.68Z"/>
        <ellipse class="cls-13" cx="556.78" cy="206.38" rx="3.8" ry="3.68"/>
        <ellipse class="cls-13" cx="479.92" cy="300.37" rx="3.8" ry="3.68"/>
        <ellipse class="cls-13" cx="344.11" cy="159.39" rx="3.8" ry="3.68"/>
        <path class="cls-7" d="M572.21,275.97c0,1.02-.85,1.84-1.9,1.84s-1.9-.82-1.9-1.84,.85-1.84,1.9-1.84,1.9,.82,1.9,1.84Z"/>
        <path class="cls-7" d="M512.07,183.17c0,1.02-.85,1.84-1.9,1.84s-1.9-.82-1.9-1.84,.85-1.84,1.9-1.84,1.9,.82,1.9,1.84Z"/>
        <path class="cls-7" d="M534.49,124.06c-1.17,1.66-3.5,2.03-5.22,.83s-2.16-3.53-.99-5.19,3.5-2.03,5.22-.83c1.72,1.2,2.16,3.53,.99,5.19Z"/>
        <path class="cls-7" d="M539.94,17.72c-1.17,1.66-3.5,2.03-5.22,.83s-2.16-3.53-.99-5.19,3.5-2.03,5.22-.83,2.16,3.53,.99,5.19Z"/>
        <path class="cls-7" d="M341.1,95.15c-.58,.83-1.75,1.02-2.61,.41s-1.08-1.76-.5-2.6,1.75-1.02,2.61-.41,1.08,1.76,.5,2.6Z"/>
        <path class="cls-7" d="M501.18,105.17c-.58,.83-1.75,1.02-2.61,.41s-1.08-1.76-.5-2.6,1.75-1.02,2.61-.41,1.08,1.76,.5,2.6Z"/>
        <path class="cls-7" d="M305.02,89.81c-.58,.83-1.75,1.02-2.61,.41s-1.08-1.76-.5-2.6,1.75-1.02,2.61-.41,1.08,1.76,.5,2.6Z"/>
        <ellipse class="cls-13" cx="443.78" cy="67.13" rx="1.84" ry="1.9" transform="translate(133.86 391.78) rotate(-54.93)"/>
        <path class="cls-7" d="M459.76,116.21c-.58,.83-1.75,1.02-2.61,.41s-1.08-1.76-.5-2.6,1.75-1.02,2.61-.41,1.08,1.76,.5,2.6Z"/>
        <path class="cls-7" d="M458.12,35.21c-1.17,1.66-3.5,2.03-5.22,.83s-2.16-3.53-.99-5.19,3.5-2.03,5.22-.83,2.16,3.53,.99,5.19Z"/>
        <path class="cls-7" d="M498.67,12.1c-1.17,1.66-3.5,2.03-5.22,.83-1.72-1.2-2.16-3.53-.99-5.19s3.5-2.03,5.22-.83,2.16,3.53,.99,5.19Z"/>
        <path class="cls-7" d="M561.47,56.02c-.58,.83-1.75,1.02-2.61,.41s-1.08-1.76-.5-2.6,1.75-1.02,2.61-.41,1.08,1.76,.5,2.6Z"/>
        <path class="cls-7" d="M525.39,75.93c-.58,.83-1.75,1.02-2.61,.41s-1.08-1.76-.5-2.6,1.75-1.02,2.61-.41,1.08,1.76,.5,2.6Z"/>
        <ellipse class="cls-13" cx="254.79" cy="88.89" rx="3.68" ry="3.8" transform="translate(35.65 246.35) rotate(-54.93)"/>
        <ellipse class="cls-13" cx="529.56" cy="262.49" rx="3.68" ry="3.8" transform="translate(10.47 545.11) rotate(-54.93)"/>
        <ellipse class="cls-13" cx="488.46" cy="65.24" rx="3.68" ry="3.8" transform="translate(154.42 427.54) rotate(-54.93)"/>
        <path class="cls-7" d="M565.55,204.49c-.58,.83-1.75,1.02-2.61,.41s-1.08-1.76-.5-2.6,1.75-1.02,2.61-.41,1.08,1.76,.5,2.6Z"/>
        <path class="cls-7" d="M569.64,93.98c-.58,.83-1.75,1.02-2.61,.41s-1.08-1.76-.5-2.6,1.75-1.02,2.61-.41,1.08,1.76,.5,2.6Z"/>
        <path class="cls-7" d="M246.45,67.27c-.58,.83-1.75,1.02-2.61,.41s-1.08-1.76-.5-2.6,1.75-1.02,2.61-.41,1.08,1.76,.5,2.6Z"/>
        <ellipse class="cls-13" cx="176.97" cy="326.3" rx="1.9" ry="1.84"/>
        <path class="cls-7" d="M170.37,291.94c0,2.03-1.7,3.68-3.8,3.68s-3.8-1.65-3.8-3.68,1.7-3.68,3.8-3.68,3.8,1.65,3.8,3.68Z"/>
        <ellipse class="cls-13" cx="127.46" cy="252.18" rx="3.8" ry="3.68"/>
        <path class="cls-7" d="M241.24,191.26c0,1.02-.85,1.84-1.9,1.84s-1.9-.82-1.9-1.84,.85-1.84,1.9-1.84,1.9,.82,1.9,1.84Z"/>
        <ellipse class="cls-13" cx="39.45" cy="39.91" rx="3.8" ry="3.68"/>
        <ellipse class="cls-13" cx="423.77" cy="330.64" rx="3.8" ry="3.68"/>
        <path class="cls-7" d="M26.81,3.68c0,2.03-1.7,3.68-3.8,3.68s-3.8-1.65-3.8-3.68,1.7-3.68,3.8-3.68,3.8,1.65,3.8,3.68Z"/>
        <path class="cls-7" d="M114.43,426.63c0,2.03-1.7,3.68-3.8,3.68s-3.8-1.65-3.8-3.68,1.7-3.68,3.8-3.68,3.8,1.65,3.8,3.68Z"/>
        <path class="cls-7" d="M126.77,482.78c0,2.03-1.7,3.68-3.8,3.68s-3.8-1.65-3.8-3.68,1.7-3.68,3.8-3.68,3.8,1.65,3.8,3.68Z"/>
      </g>
      <g class="cls-19">
        <g>
          <g>
            <path class="cls-4" d="M234.53,470.44c-6.63-21.94-26.47-18.64-26.47-18.64-4.6,.11-19.92,8.28-23.78,24.95-3.86,16.67-11.6,23.11-15.84,25.44-4.25,2.33-21.03,13.82-21.93,19.89-.89,6.07,3.45,13.21,17.25,15.32,13.8,2.11,29.1-17.09,30.01-18.01s7.49-10.3,21.44-17.67c13.95-7.37,21.46-22.93,19.3-31.29Z"/>
            <g class="cls-17">
              <g>
                <polygon class="cls-23" points="261.98 482.71 193.84 445.46 195.23 444.02 263.38 481.27 261.98 482.71"/>
                <polygon class="cls-23" points="256.18 488.69 188.04 451.44 189.43 450.01 257.58 487.26 256.18 488.69"/>
                <polygon class="cls-23" points="250.38 494.68 182.24 457.43 183.63 455.99 251.77 493.24 250.38 494.68"/>
                <polygon class="cls-23" points="244.58 500.66 176.44 463.41 177.83 461.98 245.97 499.23 244.58 500.66"/>
                <polygon class="cls-23" points="238.78 506.65 170.64 469.4 172.03 467.96 240.17 505.21 238.78 506.65"/>
                <polygon class="cls-23" points="232.98 512.63 164.83 475.38 166.23 473.95 234.37 511.2 232.98 512.63"/>
                <polygon class="cls-23" points="227.18 518.62 159.03 481.37 160.43 479.93 228.57 517.18 227.18 518.62"/>
                <polygon class="cls-23" points="221.38 524.6 153.23 487.36 154.62 485.92 222.77 523.17 221.38 524.6"/>
                <polygon class="cls-23" points="215.57 530.59 147.43 493.34 148.82 491.9 216.97 529.15 215.57 530.59"/>
                <polygon class="cls-23" points="209.77 536.57 141.63 499.33 143.02 497.89 211.17 535.14 209.77 536.57"/>
                <polygon class="cls-23" points="203.97 542.56 135.83 505.31 137.22 503.87 205.36 541.12 203.97 542.56"/>
                <polygon class="cls-23" points="198.17 548.54 130.03 511.3 131.42 509.86 199.56 547.11 198.17 548.54"/>
                <polygon class="cls-23" points="192.37 554.53 124.23 517.28 125.62 515.84 193.76 553.09 192.37 554.53"/>
              </g>
            </g>
          </g>
          <path class="cls-12" d="M217.48,466.36s-1.7-.79-3.13,.59c-10.7-1.13-29.12,9.32-29.12,9.32,0,0-6.05,2.56-10.09,12.56-3.09,2.08-9.3,14.81-4.44,16.53,4.86,1.71,7.12-13.95,7.12-13.95,0,0-.09-6.35,4.69-8.87,4.78-2.53,24.45-12.26,29.84-9.98,5.39,2.28,5.83,20.36-4.17,34.52-1.99,1.86-8.23,2.5-8.23,2.5,0,0-14.33,1.86-13.87,6.74,1.52,4.74,13.44-2.63,14.75-3.56,1.31-.94,9.12-4.91,9.12-4.91,0,0,6.61-3.49,8.17-6.97,1.57-3.48,7.57-24.39-.35-32.14,1.42-1.67-.28-2.36-.28-2.36Z"/>
        </g>
        <g>
          <g>
            <path class="cls-4" d="M159.78,409.19c27.16-9.48,35.82,4.32,35.82,4.32,2.7,2.8,3.47,16.89-11.73,29.39-15.2,12.49-17.24,21.03-17.1,24.98,.14,3.95-1.69,20.95-7.53,25.19-5.85,4.25-16.03,6.04-26.69-.87-10.66-6.91,.2-27.74,.6-28.85,.41-1.11,6.26-10.75,5.49-23.55-.77-12.8,11.02-26.78,21.14-30.61Z"/>
            <g class="cls-11">
              <g>
                <polygon class="cls-23" points="130.06 400.39 210.99 418.08 211.65 416.37 130.72 398.69 130.06 400.39"/>
                <polygon class="cls-23" points="127.31 407.5 208.23 425.19 208.9 423.48 127.97 405.8 127.31 407.5"/>
                <polygon class="cls-23" points="124.55 414.61 205.48 432.3 206.14 430.59 125.22 412.9 124.55 414.61"/>
                <polygon class="cls-23" points="121.8 421.72 202.73 439.4 203.39 437.7 122.46 420.01 121.8 421.72"/>
                <polygon class="cls-23" points="119.04 428.82 199.97 446.51 200.63 444.81 119.71 427.12 119.04 428.82"/>
                <polygon class="cls-23" points="116.29 435.93 197.22 453.62 197.88 451.91 116.95 434.23 116.29 435.93"/>
                <polygon class="cls-23" points="113.53 443.04 194.46 460.73 195.12 459.02 114.2 441.33 113.53 443.04"/>
                <polygon class="cls-23" points="110.78 450.15 191.71 467.84 192.37 466.13 111.44 448.44 110.78 450.15"/>
                <polygon class="cls-23" points="108.03 457.26 188.95 474.94 189.61 473.24 108.69 455.55 108.03 457.26"/>
                <polygon class="cls-23" points="105.27 464.36 186.2 482.05 186.86 480.35 105.93 462.66 105.27 464.36"/>
                <polygon class="cls-23" points="102.52 471.47 183.44 489.16 184.1 487.45 103.18 469.77 102.52 471.47"/>
                <polygon class="cls-23" points="99.76 478.58 180.69 496.27 181.35 494.56 100.42 476.87 99.76 478.58"/>
                <polygon class="cls-23" points="97.01 485.69 177.93 503.38 178.59 501.67 97.67 483.98 97.01 485.69"/>
              </g>
            </g>
          </g>
          <path class="cls-12" d="M174.51,416.82s1.87,.53,1.29,2.22c7.73,5.66,8,23,8,23,0,0,1.01,5.16-7.06,13.68-.3,3.11-9.91,14.59-14.69,12.75-4.78-1.84,10.34-12.76,10.34-12.76,0,0,6.74-3.83,6.48-8.21-.26-4.38-2.04-22.02-7.74-23.83-5.7-1.81-25.02,8.99-33.81,23.6-.74,2.32,2.4,6.42,2.4,6.42,0,0,6.81,9.65,1.39,12.36-5.92,1.99-5.46-9.59-5.28-10.94,.18-1.35-.4-8.42-.4-8.42,0,0-.37-6.06,2.34-9.12,2.71-3.06,21.05-19.42,34.07-19.46,.89-1.86,2.66-1.28,2.66-1.28Z"/>
        </g>
      </g>
      <g class="cls-15">
        <path class="cls-4" d="M173.46,340.64c-13.78,1.56-19.96,5.35-20.93,5.79-.97,.44-3.89,.89-3.89,.89,0,0-2.92,.39-3.98,.25-1.05-.15-8.06-2.04-21.72,.36-13.66,2.4-15.98,3.37-15.98,3.37l.79,5.48s1.9,.72,2.35,2.36c.45,1.64,1.89,9.27,5.12,12.69,3.23,3.42,10.8,3.01,14.29,2.63,3.49-.38,9.43-2.13,11.55-4.57,2.12-2.44,4.19-7.99,4.83-11.96s1.56-4.45,3.6-4.74c2.04-.29,3.06-.1,4.79,3.53,1.74,3.63,5.29,8.37,8.01,10.11,2.72,1.74,8.91,1.74,12.37,1.12,3.46-.63,10.83-2.37,12.97-6.56,2.13-4.19,1.36-11.92,1.33-13.62s1.58-2.93,1.58-2.93l-.79-5.48s-2.51-.28-16.29,1.28Z"/>
        <g>
          <path class="cls-12" d="M168.91,343.28s12.13-2.75,15.13,.36c3.01,3.11,3.77,16.52-.25,19.41-4.03,2.88-14.5,4.95-19.43,2.8-4.93-2.15-10.28-13.41-8.56-16.73,1.72-3.32,13.12-5.84,13.12-5.84Z"/>
          <g class="cls-6">
            <g class="cls-22">
              <g>
                <polygon class="cls-2" points="157.15 365.78 155.36 363.93 186.23 336.7 188.02 338.55 157.15 365.78"/>
                <polygon class="cls-2" points="160.18 369.81 159.58 369.19 190.45 341.96 191.05 342.58 160.18 369.81"/>
              </g>
            </g>
          </g>
        </g>
        <g>
          <path class="cls-12" d="M128.07,349.17s-12.41,.79-14.41,4.62c-2.01,3.83,1.05,16.92,5.73,18.54,4.68,1.63,15.31,.65,19.43-2.8,4.12-3.45,6.07-15.77,3.49-18.46-2.59-2.7-14.23-1.9-14.23-1.9Z"/>
          <g class="cls-6">
            <g class="cls-18">
              <g>
                <polygon class="cls-2" points="113.19 372.36 111.4 370.51 142.26 343.28 144.06 345.13 113.19 372.36"/>
                <polygon class="cls-2" points="116.22 376.39 115.62 375.77 146.49 348.54 147.08 349.16 116.22 376.39"/>
              </g>
            </g>
          </g>
        </g>
      </g>
      <g>
        <path class="cls-9" d="M51.7,87.35l1.82-.64c-1.64-2.14-2.24-6.06-1.72-9.54,.23-1.54,.68-3,1.35-4.18,.68-1.2,1.6-2.1,2.76-2.53,1.19-.44,2.62-.36,4.31,.44,3.92-2.06,7.27,1.69,7.78,2.31,1.65-.41,3.21-.23,4.52,.36,.86,.39,1.62,.96,2.22,1.65,.6,.69,1.05,1.51,1.3,2.4,.38,1.35,.3,2.87-.4,4.38,.54,.59,3.79,4.43,1.03,7.82,.53,1.74,.36,3.13-.29,4.19-.63,1.03-1.71,1.75-3.04,2.21-1.31,.45-2.87,.63-4.48,.58-3.62-.1-7.51-1.33-9.41-3.26l-.95,1.63v.02s-1.16,1.49-2.63-.2l-4.42-5.08c-1.47-1.69,.24-2.53,.24-2.54h.02Z"/>
        <g>
          <path class="cls-3" d="M51.87,88.42c-.35-.41-.78-.89-1.22-1.4-.2-.22-.39-.45-.59-.67l-2.34,.82s-1.53,.76-.19,2.29c1.34,1.54,2.21,2.54,2.21,2.54,0,0,.87,1.01,2.21,2.54,1.34,1.54,2.36,.2,2.36,.2l1.22-2.09c-.19-.22-.39-.45-.58-.67-.44-.5-.86-.99-1.21-1.4-.56-.64-.94-1.08-.94-1.08,0,0-.38-.44-.94-1.08Z"/>
          <path class="cls-10" d="M51.87,88.42c-.35-.41-.78-.89-1.22-1.4-.2-.22-.39-.45-.59-.67l-.85,.3,4.28,5.77s1.13,1.56-1.7,1.92l.17,.2c1.34,1.54,2.36,.2,2.36,.2l1.22-2.09c-.19-.22-.39-.45-.58-.67-.44-.5-.86-.99-1.21-1.4-.56-.64-.94-1.08-.94-1.08,0,0-.38-.44-.94-1.08Z"/>
          <path class="cls-3" d="M72.46,89.44c3.02-3.59-1.04-7.76-1.04-7.76,2.37-4.94-2.09-10.05-7.51-8.63,0,0-3.56-4.58-7.72-2.31-8.65-4.21-10.42,11.12-6.36,15.79,1.34,1.53,2.74,3.15,2.74,3.15,0,0,1.41,1.62,2.74,3.15,4.06,4.67,19.96,5.57,17.14-3.4Z"/>
          <path class="cls-10" d="M73.55,85.98c-.73,1.41-2,3.1-4.17,4.2-3.31,1.67-8.61,4.33-13.27,3.42,.44,.35,.95,.68,1.51,.97,1.27,.66,2.81,1.15,4.41,1.44,.84-.91,1.88-1.74,3.14-2.23,2.55-.99,5.72-1.82,7.61-2.28,0-.62-.09-1.3-.33-2.05,.96-1.14,1.2-2.35,1.09-3.46h0Zm-1.85-9.14c.52,1.39,.53,3-.17,4.6-1.84,2.24-4.78,4.71-8.3,6.63-2.73,1.48-5.8,2.63-8.98,3.07-.12,.02-.24,.03-.36,.05-.75-.86-1.31-1.51-1.31-1.51,0,0-.02-.02-.06-.07,.15,.02,.29,.04,.45,.06,1.99,.21,4.81,.01,8.22-1.6,5.78-2.72,10.11-7.38,10.52-11.23h0Zm-11.05-3.12c-2.89,2.74-5.53,5.32-7.22,7.84-1.26,1.89-2.07,3.96-4.03,4.39,.12,.17,.24,.34,.37,.5,.02,.03,.05,.06,.07,.08,.38,.44,.78,.89,1.14,1.31,.04-.11,.07-.22,.11-.33,1.01-2.92,2.69-5.63,4.64-7.96,2.49-2.97,5.43-5.33,7.99-6.74-.31-.34-.94-1-1.81-1.58,0,.75-.32,1.61-1.26,2.49h0Zm-12.17,10.32s.01,.04,0,0c-.42-1.22-.66-2.64-.71-4.09,1.77-2.45,4.43-6.14,5.38-7.54,.76-1.13,.59-1.91,.26-2.39,.72,0,1.51,.17,2.38,.53h0s-.07-.03-.07-.03c-1.86,1.81-4.28,4.84-5.81,8.38-.7,1.63-1.22,3.36-1.41,5.14Z"/>
          <path class="cls-10" d="M71.63,81.91c-1.88,2.21-4.77,4.61-8.21,6.49-2.8,1.52-5.96,2.7-9.23,3.13l-.29-.34c3.3-.4,6.51-1.58,9.34-3.12,3.52-1.92,6.46-4.4,8.3-6.63-.04,.08-.07,.16-.11,.23,0,0,.08,.08,.21,.23h0Zm-7.46-8.92c-.09,.02-.17,.04-.25,.06,0,0-.07-.09-.2-.24-2.56,1.42-5.5,3.78-7.99,6.74-2.03,2.41-3.76,5.24-4.75,8.29l.29,.34c.96-3.09,2.7-5.95,4.75-8.39,2.55-3.04,5.57-5.43,8.15-6.8h0Zm-8.1-2.3c-.12-.06-.25-.11-.37-.16-1.86,1.81-4.28,4.84-5.81,8.38-.7,1.63-1.22,3.36-1.41,5.14,.1,.28,.2,.55,.32,.81,.1-2,.65-3.97,1.44-5.81,1.54-3.56,3.99-6.59,5.84-8.36h0Zm.78,23.43c.24,.15,.5,.3,.77,.44,1.84,.12,3.69-.08,5.47-.48,3.86-.86,7.35-2.66,9.51-4.13-.03-.12-.07-.25-.1-.38-2.11,1.46-5.61,3.29-9.49,4.15-2,.45-4.1,.64-6.15,.4Z"/>
        </g>
      </g>
      <g>
        <path class="cls-9" d="M519.66,58.28l1.82-.64c-1.64-2.14-2.24-6.06-1.72-9.54,.23-1.54,.68-3,1.35-4.18,.68-1.2,1.6-2.1,2.76-2.53,1.19-.44,2.62-.36,4.31,.44,3.92-2.06,7.27,1.69,7.78,2.31,1.65-.41,3.21-.23,4.52,.36,.86,.39,1.62,.96,2.22,1.65,.6,.69,1.05,1.51,1.3,2.4,.38,1.35,.3,2.87-.4,4.38,.54,.59,3.79,4.43,1.03,7.82,.53,1.74,.36,3.13-.29,4.19-.63,1.03-1.71,1.75-3.04,2.21-1.31,.45-2.87,.63-4.48,.58-3.62-.1-7.51-1.33-9.41-3.26l-.95,1.63v.02s-1.16,1.49-2.63-.2l-4.42-5.08c-1.47-1.69,.24-2.53,.24-2.54h.02Z"/>
        <g>
          <path class="cls-3" d="M519.83,59.34c-.35-.41-.78-.89-1.22-1.4-.2-.22-.39-.45-.59-.67l-2.34,.82s-1.53,.76-.19,2.29c1.34,1.54,2.21,2.54,2.21,2.54,0,0,.87,1.01,2.21,2.54,1.34,1.54,2.36,.2,2.36,.2l1.22-2.09c-.19-.22-.39-.45-.58-.67-.44-.5-.86-.99-1.21-1.4-.56-.64-.94-1.08-.94-1.08,0,0-.38-.44-.94-1.08Z"/>
          <path class="cls-10" d="M519.83,59.34c-.35-.41-.78-.89-1.22-1.4-.2-.22-.39-.45-.59-.67l-.85,.3,4.28,5.77s1.13,1.56-1.7,1.92l.17,.2c1.34,1.54,2.36,.2,2.36,.2l1.22-2.09c-.19-.22-.39-.45-.58-.67-.44-.5-.86-.99-1.21-1.4-.56-.64-.94-1.08-.94-1.08,0,0-.38-.44-.94-1.08Z"/>
          <path class="cls-3" d="M540.42,60.37c3.02-3.59-1.04-7.76-1.04-7.76,2.37-4.94-2.09-10.05-7.51-8.63,0,0-3.56-4.58-7.72-2.31-8.65-4.21-10.42,11.12-6.36,15.79,1.34,1.53,2.74,3.15,2.74,3.15,0,0,1.41,1.62,2.74,3.15,4.06,4.67,19.96,5.57,17.14-3.4Z"/>
          <path class="cls-10" d="M541.5,56.91c-.73,1.41-2,3.1-4.17,4.2-3.31,1.67-8.61,4.33-13.27,3.42,.44,.35,.95,.68,1.51,.97,1.27,.66,2.81,1.15,4.41,1.44,.84-.91,1.88-1.74,3.14-2.23,2.55-.99,5.72-1.82,7.61-2.28,0-.62-.09-1.3-.33-2.05,.96-1.14,1.2-2.35,1.09-3.46h0Zm-1.85-9.14c.52,1.39,.53,3-.17,4.6-1.84,2.24-4.78,4.71-8.3,6.63-2.73,1.48-5.8,2.63-8.98,3.07-.12,.02-.24,.03-.36,.05-.75-.86-1.31-1.51-1.31-1.51,0,0-.02-.02-.06-.07,.15,.02,.29,.04,.45,.06,1.99,.21,4.81,.01,8.22-1.6,5.78-2.72,10.11-7.38,10.52-11.23h0Zm-11.05-3.12c-2.89,2.74-5.53,5.32-7.22,7.84-1.26,1.89-2.07,3.96-4.03,4.39,.12,.17,.24,.34,.37,.5,.02,.03,.05,.06,.07,.08,.38,.44,.78,.89,1.14,1.31,.04-.11,.07-.22,.11-.33,1.01-2.92,2.69-5.63,4.64-7.96,2.49-2.97,5.43-5.33,7.99-6.74-.31-.34-.94-1-1.81-1.58,0,.75-.32,1.61-1.26,2.49h0Zm-12.17,10.32s.01,.04,0,0c-.42-1.22-.66-2.64-.71-4.09,1.77-2.45,4.43-6.14,5.38-7.54,.76-1.13,.59-1.91,.26-2.39,.72,0,1.51,.17,2.38,.53h0s-.07-.03-.07-.03c-1.86,1.81-4.28,4.84-5.81,8.38-.7,1.63-1.22,3.36-1.41,5.14Z"/>
          <path class="cls-10" d="M539.58,52.84c-1.88,2.21-4.77,4.61-8.21,6.49-2.8,1.52-5.96,2.7-9.23,3.13l-.29-.34c3.3-.4,6.51-1.58,9.34-3.12,3.52-1.92,6.46-4.4,8.3-6.63-.04,.08-.07,.16-.11,.23,0,0,.08,.08,.21,.23h0Zm-7.46-8.92c-.09,.02-.17,.04-.25,.06,0,0-.07-.09-.2-.24-2.56,1.42-5.5,3.78-7.99,6.74-2.03,2.41-3.76,5.24-4.75,8.29l.29,.34c.96-3.09,2.7-5.95,4.75-8.39,2.55-3.04,5.57-5.43,8.15-6.8h0Zm-8.1-2.3c-.12-.06-.25-.11-.37-.16-1.86,1.81-4.28,4.84-5.81,8.38-.7,1.63-1.22,3.36-1.41,5.14,.1,.28,.2,.55,.32,.81,.1-2,.65-3.97,1.44-5.81,1.54-3.56,3.99-6.59,5.84-8.36h0Zm.78,23.43c.24,.15,.5,.3,.77,.44,1.84,.12,3.69-.08,5.47-.48,3.86-.86,7.35-2.66,9.51-4.13-.03-.12-.07-.25-.1-.38-2.11,1.46-5.61,3.29-9.49,4.15-2,.45-4.1,.64-6.15,.4Z"/>
        </g>
      </g>
      <g>
        <path class="cls-9" d="M1.67,378.04V245.33l37.43-10.54c.77-.22,1.5-.22,2.26,0l50.12,14.11c.77,.22,1.36,.59,1.83,1.15l30.98,36.94c.47,.56,.7,1.16,.7,1.86v45.66c0,.7-.23,1.3-.7,1.86l-30.98,36.94c-.47,.57-1.06,.94-1.83,1.15l-50.12,14.11c-.77,.22-1.5,.22-2.26,0L1.67,378.04Z"/>
        <g>
          <path class="cls-8" d="M37.95,229.8l47.92,14.11c.73,.22,1.3,.59,1.75,1.15l29.61,36.94c.45,.57,.67,1.17,.67,1.86v45.66c0,.7-.22,1.3-.67,1.86l-29.61,36.94c-.45,.57-1.02,.94-1.75,1.15l-47.92,14.11c-.73,.22-1.43,.22-2.16,0L0,373.05V240.34l35.79-10.54c.73-.22,1.43-.22,2.16,0Z"/>
          <g>
            <path class="cls-3" d="M36.87,306.69L0,295.84v21.7l36.87-10.85h0ZM0,373.05v-20.37l36.87-45.98h0L0,260.71v-20.37l35.79-10.54c.37-.11,.72-.16,1.08-.16v77.06h0l49.98-62.34c.29,.19,.54,.42,.77,.71l29.61,36.94c.23,.29,.4,.58,.51,.89l-80.87,23.8,80.87,23.8c-.11,.31-.28,.61-.51,.89l-29.61,36.94c-.23,.28-.48,.52-.77,.71l-49.98-62.34v77.06c-.36,0-.72-.05-1.08-.16L0,373.05Z"/>
            <path class="cls-3" d="M36.87,304.61c1.27,0,2.3,.93,2.3,2.09s-1.03,2.09-2.3,2.09-2.3-.94-2.3-2.09,1.03-2.09,2.3-2.09Z"/>
          </g>
        </g>
      </g>
    </g>
  </g>
</svg>