<?xml version="1.0" encoding="UTF-8"?>
<svg id="Layer_2" data-name="Layer 2" xmlns="http://www.w3.org/2000/svg" xmlns:xlink="http://www.w3.org/1999/xlink" viewBox="0 0 592.99 281.6" preserveAspectRatio="none"> 
  <defs>
    <style>
      .cls-1 {
        fill: #fee053;
      }

      .cls-2 {
        fill: #ef4f80;
      }

      .cls-3 {
        fill: #0c8568;
      }

      .cls-4 {
        fill: #036952;
      }

      .cls-5 {
        fill: #f0c62b;
      }

      .cls-6 {
        clip-path: url(#clippath-2);
      }

      .cls-7 {
        fill: #ee2a58;
      }

      .cls-8 {
        fill: #014f4f;
      }

      .cls-9 {
        clip-path: url(#clippath-1);
      }

      .cls-10 {
        fill: #026768;
      }

      .cls-11 {
        fill: #046264;
      }

      .cls-12 {
        fill: #f78f1e;
      }

      .cls-13 {
        fill: #2d414d;
      }

      .cls-14 {
        fill: #004331;
      }

      .cls-15 {
        stroke: #0b2115;
        stroke-miterlimit: 10;
        stroke-width: 3px;
      }

      .cls-15, .cls-16 {
        fill: none;
      }

      .cls-17 {
        clip-path: url(#clippath);
      }

      .cls-18 {
        fill: #ed7023;
      }

      .cls-19 {
        fill: #055d44;
      }

      .cls-20 {
        fill: #054627;
      }

      .cls-21 {
        fill: #0b2115;
      }

      .cls-22 {
        fill: #015d35;
      }
    </style>
    <clipPath id="clippath">
      <rect class="cls-16" width="592.99" height="281.6"/>
    </clipPath>
    <clipPath id="clippath-1">
      <path class="cls-16" d="M556.18,126.9c.11-.3,.16-.61,.07-.95-.1-.37-.32-.69-.28-1.1,.06-.53,.32-.95,.78-1.24,.37-.24,.77-.24,1.19-.36,.47-.14,.77-.41,1.08-.76,.39-.44,.76-.91,1.45-.81,.67,.09,1.1,.74,1.79,.79,1.2,.09,2.03,.13,2.42,1.45,.15,.5,.2,.69,.6,1.03,.4,.33,.64,.57,.76,1.09,.21,.85,.03,1.71-.56,2.39-.32,.36-.86,.48-1.1,.91-.24,.43-.17,1.02-.37,1.49-.25,.56-.75,.93-1.37,1.03-.29,.05-.7,.07-.97-.04-.23-.09-.38-.34-.62-.38-.18-.03-.45,.1-.63,.12-.48,.05-.96-.06-1.42-.2-.59-.17-.72-.34-1.02-.86-.18-.31-.52-.46-.83-.62-.69-.34-1.48-.61-1.45-1.5,.02-.53,.32-.99,.49-1.47Z"/>
    </clipPath>
    <clipPath id="clippath-2">
      <path class="cls-16" d="M31.9,127.28c-.11-.3-.16-.61-.07-.95,.1-.37,.32-.69,.28-1.1-.06-.53-.32-.95-.78-1.24-.37-.24-.77-.24-1.19-.36-.47-.14-.77-.41-1.08-.76-.39-.44-.76-.91-1.45-.81-.67,.09-1.1,.74-1.79,.79-1.2,.09-2.03,.13-2.42,1.45-.15,.5-.2,.69-.6,1.03-.4,.33-.64,.57-.76,1.09-.21,.85-.03,1.71,.56,2.39,.32,.36,.86,.48,1.1,.91,.24,.43,.17,1.02,.37,1.49,.25,.56,.75,.93,1.37,1.03,.29,.05,.7,.07,.97-.04,.23-.09,.38-.34,.62-.38,.18-.03,.45,.1,.63,.12,.48,.05,.96-.06,1.42-.2,.59-.17,.72-.34,1.02-.86,.18-.31,.52-.46,.83-.62,.69-.34,1.48-.61,1.45-1.5-.02-.53-.32-.99-.49-1.47Z"/>
    </clipPath>
  </defs>
  <g id="Layer_1-2" data-name="Layer 1">
    <g class="cls-17">
      <g>
        <g>
          <path class="cls-15" d="M537.52,97.29c9.28,17.31,15.23,40.81,23.37,58.64,5.1,11.17,10.07,17.77,16.02,28.51"/>
          <g>
            <path class="cls-21" d="M525.43,87.1c-3.11-3.8-5.85-9.25-6.84-13.69,4.53,4.41,6.43,5.52,7.97,7.43,.7,.87,2.56,2.29,3.49,3.49,3.6,4.63,5.46,8.05,8.6,15.41-.26-.62-.59-.36-1.8-1.48-2.85-2.65-7.31-6.62-10.46-10.03-.33-.35-.64-.74-.96-1.13Z"/>
            <path class="cls-21" d="M529.1,91.68c5.85,4.3,8.34,8.34,11.92,14.24-5.71-1.03-10.06-4.23-13.74-8.07-.69-.73-1.37-1.47-2.02-2.23-2.19-2.56-4.52-5.47-6.05-8.45-1.18-2.29-1.86-4.9-3.69-6.85,3.22,2.7,6.38,5.59,9.69,8.31,1.27,1.05,2.57,2.07,3.9,3.05Z"/>
            <path class="cls-21" d="M531.55,102.29c4.94,3.01,9.53,9.06,13.71,12.86-5.08-3.35-11.02-5.25-16.15-7.49-2.6-1.14-4.99-2.36-6.96-3.9-3.58-2.82-6.56-6.02-8.79-9.97,3.79,3.55,9.54,4.69,14.51,6.7,1.29,.52,2.53,1.1,3.67,1.79Z"/>
            <path class="cls-21" d="M535.93,113.5c4.9,2.78,8.99,8.21,13.14,11.69-5.04-.91-13.07-4.3-19.09-8.24-.24-.16-.46-.33-.69-.5-4.62-3.28-7.65-7.99-11.84-11.55,3.87,1.51,7.96,3.25,11.88,5.15,2.28,1.1,4.51,2.26,6.6,3.44Z"/>
            <path class="cls-21" d="M538.28,123.77c4.03,3.27,9.27,7.18,14.09,9.32-8.49-1.34-17.01-4.49-23.14-8.74-.42-.29-.83-.59-1.23-.89-3.76-2.85-6.99-6.62-10.94-9.16,4.23,.96,8.26,2.19,12.05,3.89,3.24,1.46,6.31,3.26,9.16,5.58Z"/>
            <path class="cls-21" d="M564.99,124.84c-1.4,1.11-2.5,2.13-3.63,3.19-2.04,1.92-4.18,3.99-8.32,7.09,1.19-1.07,4.61-7.16,7.73-12.37,1.69-2.84,3.3-5.42,4.39-6.78,4.66-5.81,10.49-9.38,16.36-13.79-1.97,6.71-5.63,12.14-8.37,15.4-2.53,3.01-5.04,4.78-8.15,7.26Z"/>
            <path class="cls-21" d="M583.02,132.56c-4.84,2.42-11.37,5.51-19.1,6.68-3.09,.47-6.36,.64-9.81,.33,.27,.07,.54,.16,.8,.22-5.22,1.57-11.24,.22-14.72-1.07-.33-.12-.64-.24-.92-.36-3.96-1.69-8.04-3.16-11.85-5.16-3.92-2.06-6.95-4.84-9.86-8.04,5.33,.94,10.34,3,15.19,5.29,1.35,.64,2.68,1.29,4.01,1.94,5.04,2.48,11.59,5.65,17.21,7.15,3-.8,5.68-2.24,8.3-3.83,3.24-1.97,6.39-4.17,9.96-5.68,8.31-3.53,16.37-8.52,25.11-10.43-1.71,1.31-2.93,3.34-4.35,4.95-2.79,3.18-6.14,6.11-9.98,8.03Z"/>
            <path class="cls-21" d="M558.06,147.81c3.24-1.3,6.28-3.03,9.32-4.78,3.81-2.18,7.63-4.36,11.86-5.68,4.67-1.45,9.82-2.74,14.75-2.85,1.73-.04,3.78,.31,5.6,.18-1.72,.59-3.56,1.98-4.92,2.69-2.93,1.53-5.74,3.15-8.95,4.09-4.04,1.18-8.94,3.01-15.15,4.44-3.68,.85-7.82,1.56-12.51,1.91Z"/>
            <path class="cls-21" d="M581.96,148.64c6.94-.86,13.87-.76,20.67,.78-4.05-.89-9.13,1.38-12.79,2.77-4.07,1.55-7.83,1.77-12.64,1.49-4.53-.27-9.98-.98-17.54-1.46,4.72-.36,9.85-1.43,14.92-2.38,2.49-.47,4.98-.9,7.39-1.2Z"/>
            <path class="cls-21" d="M578.96,161.68c.14,.07,.29,.14,.42,.21,5.3,2.68,10.92,4.95,16.04,7.91-2.87-.47-6.49-.77-9.61-1.35-1.74-.33-3.51-.67-5.36-1.13-5.47-1.37-11.6-3.77-19.41-9.83,5.18-1.21,13.32,1.92,17.92,4.19Z"/>
            <path class="cls-21" d="M552.63,166.52c2.95-2.94,6.13-5.4,10.29-5.72-1.35,2.61-3.31,5.35-5.59,7.83-5.24,5.71-12.2,10.09-17.58,8.53,5.18-1.62,8.82-6.59,12.88-10.65Z"/>
            <path class="cls-21" d="M549.73,164.06c-4.16,1.57-8.44,2.74-12.06,4.26-4.12,1.74-9.19,4.15-13.88,3.77,6.58-.8,12.47-6.1,17.62-9.86,1.77-1.29,3.61-2.19,5.51-2.83,4.41-1.5,9.14-1.59,14.1-1.92-3.15,3.07-7.17,5.02-11.3,6.58Z"/>
            <path class="cls-21" d="M526.17,152.24c-3.17-.73-7.85-1.5-10.66-3.21,9.06,1.93,18.89,1.24,28.48,1.39,5.2,.08,10.34,.41,15.25,1.56-4.74,2.14-9.4,2.96-13.9,3.05-6.8,.13-13.26-1.43-19.17-2.79Z"/>
            <path class="cls-21" d="M542.82,140.77c5.16,1.71,9.25,4.68,14.08,6.77-4.98,.2-9.52-.07-13.79-.66-10.29-1.42-18.94-4.8-27.86-8.57,3.1,.56,6.49-.11,9.63-.19,5.48-.14,10.84,.54,16.05,2.06,.64,.18,1.27,.38,1.9,.59Z"/>
            <path class="cls-21" d="M559.26,118.63c-2.51,2.89-5.64,5.67-9.31,8.57,1.4-2.54,1.94-5.65,3.06-8.33,.74-1.78,1.57-3.53,2.46-5.25,1.62-3.14,3.44-6.19,5.34-9.14,2.3-3.57,2.49-4.48,4.95-7.95,.75-1.06,3.2-5.05,3.78-6.21-1.49,5.59-2.56,11.27-3.99,16.86-1.09,4.27-3.24,7.94-6.28,11.45Z"/>
            <path class="cls-21" d="M553.62,111.76c-1.76,2.29-4.1,4.36-7.23,6.07,.89-2.13,.29-5.39,.97-7.82,.3-1.07,.68-2.11,1.1-3.14,1.01-2.44,2.33-4.76,3.75-7,3.09-4.87,5.84-9.97,8.09-15.2-1.48,7.57-.27,18.77-6.69,27.09Z"/>
            <path class="cls-21" d="M544.66,102.27c-.82,1.37-1.79,2.41-2.96,2.86,.15-3.89-.05-7.72,.33-11.57,.15-1.51,.37-3.02,.76-4.53,1.31-5.19,3.17-10.15,4.6-15.22,1.42,4.2,1.48,9.9,1,14.28-.48,4.4-1.54,10.52-3.72,14.18Z"/>
            <path class="cls-21" d="M534.09,80.94c-.05-1.07-.01-2.12,.08-3.16,.45-4.85,1.32-9.64,2.42-14.29,.54,4.89,2.31,9.58,2.69,14.6,.05,.65,.07,1.31,.09,1.98,.2,6.28-.39,13.4-1.21,18.86-1.16-2.11-2.36-6.26-2.88-8.54-.73-3.13-1.04-6.25-1.2-9.45Z"/>
          </g>
        </g>
        <g>
          <path class="cls-22" d="M618.93,190.78c-2.17,1.44-4.68,4.64-7.19,5.22-4.41,.93-6.02-1.45-3.21-4.77,2.89-4,9.4-5.68,13.19-9.99,1.15-1.64,2.23-3.43,3.35-5.15-.65-3.97-.89-7.9-4.24-11.29-2.02-1.95-4.51-3.2-6.65-4.82-.31,5.55-1.25,11.58-2.84,16.45-.72,2.56-3.31,9.08-6.64,9.29-4.75,.06-2.72-5.26-2-7.82,2.27-7.84,5.89-14.63,7.21-22.64-1.1-1.66-2.06-3.31-3.45-4.68-3.14-2.82-6.87-5.42-10.65-6.36-2.85-.71-5.83-.26-8.57-.32,2.9,5.22,4.35,11.03,4.72,16.82,.48,4.76,2.88,18.03-2.18,20.83-10.22,5.32-3.75-14.1-2.73-16.77,2.6-8.71-2.54-15.14-5.71-22.56-2.5-1.52-4.68-3.73-7.22-4.68-3.81-1.92-6.62-1.24-10.77-1.39-1.07-.05-2.12-.13-3.16-.21,4.05,4.3,7.62,9.03,9.94,14.21,1.19,2.2,2.86,6.53,2.15,9.09-1.77,4.25-5.02,3.77-6.58-.27-1.23-3.17-.25-6.81-1.47-9.99-1.23-3.18-2.91-4.87-5.22-7.33-1.68-2.01-3.97-4.08-5.84-6.31-3.37-.25-6.75-.37-10.33-.04,.7,.52,1.39,1.04,2.04,1.56,5.41,4.3,10.27,9.79,12.42,16.25,2.72,7.9-1.79,14.78-5.02,3.78-2.6-9.09-7.44-14.74-13.64-21.05-8.6,1.16-17.11,1.84-25.09,4.71-.37,.8-.34,1.77-.72,2.56-.93,1.64-1.53,3.71-1.93,5.97,7.06,2.54,24.66,8.3,22.88,11.16-1.49,2.32-15.81-2.03-23.6-4.95-.24,3.39-.32,6.74-.61,9.38-.11,1.17-.15,2.3-.16,3.41,5.65,2.98,13.71,4.26,19.34,3.83,4.75-.07,16.4-5.23,20.77-1.87,7.1,6-10.71,5.82-13.25,5.42-6.58-.26-12.83,.34-19.41,.07-1.87-.11-4.68-.82-7.13-1.82,.41,3.55,1.18,7.03,2.1,10.87,.41,1.85,.9,3.73,1.44,5.62,11.73,.1,24.27,5.36,35.58,.15,2.58-1.26,15.61-7.26,10.4-.45-3.08,4.39-12.73,8.52-18.05,9.77-8.2,1.84-16.55-.46-24.82-.51,3.2,7.74,7.69,15.08,13.82,20.57,.19,.18,.39,.36,.59,.54,7.28-3.32,15.62-5.3,22.03-9.98,3.26-2.16,12-14.83,16.67-11.58,5.31,4.01-8.78,11.7-11.14,13.54-5.28,4.86-7.69,8.35-14.61,9.86-1.95,.36-4.84,1.75-7.55,2.97,6.13,5.18,12.58,9.57,19.92,12.15,2.95-2.52,6.2-6.72,8.78-8.92,2.74-2.63,6.11-4.5,7.91-7.77,2.21-3.1,1.43-7.75,3.87-10.27,6.68-8.31,7.2,8.92,5.02,12.99-3.98,7.48-13.48,8.86-16.25,16.14,1.15,.13,2.31,.23,3.5,.27,5.87,.19,13.17,.53,18.3-2.96,2.36-1.83,4.09-7.06,6.79-8.03,3.18-1.47,6.54,1.93,10.21-.06-2.38-7.03-12.54-13.9-12.79-20.72l1.01-.03c2.96,.59,5.27,3.04,7.85,4.41,3.7,1.63,8.49,2.54,12.23,2.52,3.44,.08,6.85-.82,9.62-2.47,4.64-2.99,3.45-5.18,4.21-9.4,1.58-7.42,4.04-11.19,1.81-17.7-2.79,2.12-6.78,3.75-9.23,5.57Zm-92.65-25.23c-3.67,1.98-7.74-1.49-11.21-2.55l-.03-.97c2.36-1.83,10.51-.16,11.25,3.52Zm30.07,61.85c.52,3.1-4.05,5.4-4.79,1.72l.08-.68c.23-2.05,4.16-5.11,4.72-1.04Zm12.08-54.31c-1.68-1.7-1-5.23,.57-6.45l.19-.4c7.6-2.4,4.94,13.67-.76,6.85Z"/>
          <path class="cls-20" d="M591.11,207.44c-6.39-8.69-13.78-16.47-21.33-24.13-12.5-12.85-25.86-24.71-39.93-35.89,12.18,7.67,23.38,16.87,33.72,26.88,10.17,10.14,20.27,20.68,27.54,33.14h0Z"/>
          <g>
            <path class="cls-20" d="M575.37,187.55c2.79-4.29,4.26-8.95,5.71-13.81,.67,5.14-1.28,10.88-5.71,13.81h0Z"/>
            <path class="cls-20" d="M544.79,158.23c-1.59-5.87-5.34-10.48-8.16-15.75,4.48,3.96,8.64,9.47,8.16,15.75h0Z"/>
            <path class="cls-20" d="M582.6,196.18c8.03-1.31,16.79-1.71,22.93-7.75-4.63,7.66-14.83,8.61-22.93,7.75h0Z"/>
            <path class="cls-20" d="M534.01,183.51c10.37,.32,20.69-2.23,30.15-6.37-7.75,5.82-20.72,8.9-30.15,6.37h0Z"/>
          </g>
        </g>
        <g>
          <path class="cls-4" d="M630.75,131.61c-.33,3.53,.69-3.31,.72-4.28,.26-6.59-.97-12.13-2.92-18.46-3.19-10.34-7.68-21.83-16.26-29.15-6.45-5.5-12.33-6.68-15.87-14.38-2.76-6.01-2.65-13.61-7.22-18.96-3.35-3.92-9.33-5.37-13.25-8.65-5.1-4.26-9.36-9.84-14.34-14.35-9.94-9.01-19.39-17.42-30.96-24.62,16.68,15.73,14.16,24.13,19.86,38.87,4.03,10.42,14.18,20.14,17.35,29.33,2.72,7.86,1.92,16.15,6.69,24.39,4.39,7.58,10.25,14.69,15.08,22.16,8.37,12.94,20.93,56.5,41.1,18.11Z"/>
          <g>
            <path class="cls-14" d="M619.66,133.26c-2.61-10.32-4.82-21.21-11.26-29.9-6.45-8.47-15.32-15.09-21.38-24.28-4.56-6.83-7.13-14.91-7.62-23.1-.47-7.21-8.42-14.21-13.36-19.12-3.89-3.72-8.04-7.16-12.07-10.75,4.24,3.33,8.49,6.65,12.57,10.21,5.14,4.77,10.9,9.71,13.58,16.44,.97,3.61,.76,7.42,1.78,11.02,2.37,10.54,9.16,19.22,16.64,26.78,15.01,14.52,17.38,22.59,21.12,42.72h0Z"/>
            <path class="cls-14" d="M582.09,66.05c.09-3.92,2.98-6.85,3.33-10.75,1.81,3.82-1.3,7.69-3.33,10.75h0Z"/>
            <path class="cls-14" d="M565.88,35.64c-2.33-1.87-3.87-5.04-3.48-8.04,1.65,2.53,2.88,5.03,3.48,8.04h0Z"/>
            <path class="cls-14" d="M571.13,50.14c-5.9-1.44-11.26-4.72-15.76-8.74,5.61,2.26,10.72,5.43,15.76,8.74h0Z"/>
            <path class="cls-14" d="M597.32,90.49c-6.57-.33-13.72-2.85-17.7-8.34,5.43,3.92,11.55,5.94,17.7,8.34h0Z"/>
            <path class="cls-14" d="M592.99,86.19c-3.1-.43-6.09-1.93-8.15-4.32-.68-.81-1.25-1.74-1.52-2.77,.8,.69,1.55,1.33,2.33,1.92,2.29,1.78,5.08,3.3,7.33,5.16h0Z"/>
          </g>
        </g>
        <g>
          <path class="cls-3" d="M597.85,162.94c1.19-14.67,4.76-34.95-6.14-49.4-4.22-5.59-10.11-5.65-12.45-11.83-3.84-10.14,1.91-21.22-7.9-29.56-6.99-5.94-17.67-5.16-26.04-7.92-6.62-2.17-8.14-5.42-12.21-10.14-10.37-12.04-21.25-3.33-33.33-7.58,13.62,6.38,22.11,10.36,27.55,23.93,2.94,7.33,6.55,8.43,13.31,11.64,8.29,3.94,13.9,9.38,16.69,17.98,5.15,15.85,6.83,28.78,25.17,34.28,7.11,2.13,11.07,3.66,13.15,11.16,1.05,3.78,2.21,15.19,2.19,17.44Z"/>
          <g>
            <path class="cls-19" d="M527.02,58.68c7.13,4.53,12.7,11.26,19.95,15.57,3.72,2.08,7.57,3.99,10.78,6.86,5.86,4.89,9.2,11.93,11.72,18.96,3.48,9,11.6,14.85,16.59,22.93,2.22,3.65,3.75,7.74,4.2,11.97-.79-4.17-2.44-8.12-4.82-11.57-5.31-7.88-13.72-13.65-17.26-22.79-2.59-6.8-5.7-13.64-11.32-18.46-3.11-2.86-6.93-4.71-10.5-6.91-7.24-4.62-12.51-11.45-19.34-16.54h0Z"/>
            <path class="cls-19" d="M558.32,73.11c1,3.54,1.58,7.04,1.89,10.7-2.29-2.97-2.97-7.13-1.89-10.7h0Z"/>
            <path class="cls-19" d="M535.25,70.45c2.9,.52,5.69,.99,8.44,2.03,3.21,1.39,3.22,1.67-.3,1.13-2.87-.44-5.94-1.12-8.14-3.16h0Z"/>
            <path class="cls-19" d="M566.75,107.39l2.05,.53c1.35,.36,2.68,.81,3.88,1.57,.61,.38,1.21,.85,1.64,1.48-.76-.1-1.43-.24-2.11-.41-2.02-.55-4.32-1.27-5.47-3.18h0Z"/>
          </g>
        </g>
        <g>
          <g>
            <path class="cls-12" d="M561.19,127.48c.78-2.25,.07-4.61-1.04-6.6-.68-1.21-1.38-2.32-2.52-3.2-1.29-1-2.91-1.88-4.48-2.39-2.86-.93-5.76-.38-7.88,1.73-.61,.61-1.34,1.33-1.62,2.16-.18,.55,.17,1.25-.04,1.73-.1,.23-.48,.46-.64,.67-.31,.42-.57,1-.66,1.5-.17,1.02,.56,1.71,.91,2.59,.24,.6-.03,.96-.1,1.56-.06,.54,.1,1.11,.42,1.55,.62,.84,2.22,1.86,3.3,1.91,1.61,.06,3.21-.17,4.75-.58,.7-.18,1.54-.41,2.12-.87,.64-.51,.96-1.34,1.59-1.88,1.19-1.01,3.14-1.05,4.37-.09,.2,.16,.38,.33,.6,.46,.22,.12,.5,.19,.73,.09,.12-.05,.14-.24,.18-.37Z"/>
            <path class="cls-12" d="M546.3,130.38c-.98,1.78-1.36,4.06-1.19,6.84,.1,1.6,1.18,3.41,2.84,3.35,.34-.01,.71-.1,1,.08,.25,.15,.36,.45,.49,.71,1.25,2.43,5.97,1.48,7.73,.1,2.12-1.66,1.74-2.58,2.14-5.24,.1-.68,.49-1.51,.13-2.16-.35-.61-.76-.82-.89-1.54-.14-.78-.22-1.59,.08-2.35,.42-1.08,1.36-1.66,2.32-2.21,.21-.12,.51-.09,.48-.48-.03-.36-.63-.76-.91-.93-1.17-.7-2.86-.94-4.19-.89-5.12,.2-8.39,1.77-10.01,4.72Z"/>
            <path class="cls-12" d="M560.88,127.23c-.69,.24-1.56,.63-2.03,1.18-.68,.78-.45,1.71-.72,2.61-.15,.49-.44,.93-.56,1.43-.15,.59,.05,1.14,.09,1.73,.08,1.15,.03,2.13,.51,3.22,1.18,2.68,4.14,4.78,7.01,5.58,1.93,.54,3.73-.33,5.57-.75,1.1-.25,1.81-.42,2.56-1.33,.82-1,1.47-2.17,1.4-3.45-.04-.74,.41-.8,.88-1.32,.59-.65,.9-1.96,.66-2.8-.18-.65-.77-1.22-1.4-1.47-.19-.08-.54-.09-.71-.2-.24-.17-.26-.46-.36-.72-.38-.99-1.68-1.51-2.69-1.73-1.69-.36-3.44,.84-5.08,1.14-1.33,.24-2.42,.1-3.06-1.13-.39-.76-.64-2.14-2.06-1.99Z"/>
            <path class="cls-12" d="M561.01,127.3c0-.08-.01-.17-.01-.26,0-.96,1.09-.72,1.73-1.1,.74-.44,1.77-.89,2.24-1.62,.34-.53,.48-1.21,.55-1.82,.21-1.91,1.06-3.31,2.58-4.55,.64-.52,.97-.82,1.78-.95,.62-.1,.85-.58,1.38-.83,1.24-.59,3.45,.37,4.4,1.13,.53,.43,.69,1.11,1.18,1.54,.64,.55,1.52,.72,2.08,1.4,.93,1.13,1.25,3.19,.85,4.56-.11,.38-.35,.68-.52,1.03-.21,.43-.25,.89-.36,1.35-.24,1.03-.6,2.11-1.36,2.91-1.16,1.22-3.34,1.9-5.02,1.93-1.84,.03-3.68-.09-5.49-.34-.72-.1-1.44-.22-2.11-.49-1.09-.43-1.99-1.22-2.86-1.99-.59-.52-.98-1.13-1.06-1.89Z"/>
            <path class="cls-12" d="M560.21,127.47c.67-1.51,.12-3.35-1.11-4.51-.64-.61-1.53-.9-2.31-1.31-.74-.38-1.41-.87-1.98-1.46-.96-.98-1.88-2.31-2.21-3.63-.45-1.79,.55-2.96,1.8-4.14,.32-.31,.61-.68,.99-.91,.37-.22,.81-.25,1.19-.45,.72-.37,.89-1.05,1.47-1.54,1.31-1.11,4.08-.23,5.44,.43,.71,.35,1.46,.2,2.18,.47,1.13,.43,1.84,1.61,2.43,2.56,.98,1.58,1.26,2.79,.63,4.52-.26,.73-.77,1.51-1.33,2.07-.52,.52-1.19,.89-1.57,1.54-.56,.96-.34,2.09-.99,3.02-1.05,1.52-1.94,3.67-4.65,3.33Z"/>
          </g>
          <g>
            <path class="cls-18" d="M567.35,135.7c1.96-.13,3.63,.32,5.38,1.19-1.9,.5-3.84-.01-5.38-1.19h0Z"/>
            <path class="cls-18" d="M569.81,134.75c1.9-.5,3.58-.62,5.51-.22-1.69,.97-3.76,1.1-5.51,.22h0Z"/>
            <path class="cls-18" d="M554.52,130.06c-1.8,2.06-3.34,4.1-4.99,6.24,.37-2.74,2.36-5.32,4.99-6.24h0Z"/>
            <path class="cls-18" d="M551.48,135.81c.34,.95,.1,1.58-.74,2.13-.5-.88-.18-1.73,.74-2.13h0Z"/>
            <path class="cls-18" d="M544.97,121.66c3.28-1.4,7.19-.33,9.96,1.66-3.34-.69-6.5-1.65-9.96-1.66h0Z"/>
            <path class="cls-18" d="M549.54,123.79c-.69,.97-1.54,1.27-2.69,.94,.62-.95,1.62-1.29,2.69-.94h0Z"/>
            <path class="cls-18" d="M545.5,130.31c1.24,.43,2.55,.08,3.8-.12,1.19-.26,2.54-.54,3.62-1.03,1.16-.5,1.54-2.12,2.87-2.55,1.34-.59,2.96-.27,3.89,.69-1.16-.64-2.54-.55-3.54,.01-1.13,.6-1.49,2.25-2.77,2.75-1.92,.78-3.92,1.04-5.96,.9-.65-.04-1.36-.24-1.9-.65h0Z"/>
            <path class="cls-18" d="M559.15,138.74c-.11-1.04-.27-2.08-.11-3.12,.08-.5,.17-.97,.02-1.23-.27-.46-1.08-1.26-1.05-2.11-.45-2.13,1-3.83,2.93-4.32-.78,.68-1.57,1.33-1.88,2.17-.29,.79-.19,1.83,.07,2.6,.11,.32,.55,.66,.81,1.3,.22,.72,0,1.29-.15,1.76-.29,.94-.35,1.97-.65,2.94h0Z"/>
            <path class="cls-18" d="M574.35,131.75c-.34,0-.57-.34-.66-.63-.65-1.2-2.38-1.61-3.63-1.49-1.8,.28-3.35,1.45-5.36,1.18-.68-.07-1.38-.48-1.71-1.07-.36-.59-.39-1.2-.62-1.77,.42,.46,.63,1.09,1.02,1.47,1.34,1.27,3.13,.23,4.7-.3,1.8-.79,4.11-.56,5.45,.99,.21,.26,.37,.58,.42,.9,.04,.3,.08,.59,.4,.71h0Z"/>
            <path class="cls-18" d="M573.2,131.97c-1.68,.8-3.67,.68-5.32-.19,1.82-.5,3.57-.37,5.32,.19h0Z"/>
            <path class="cls-18" d="M562.89,125.85c.66-.61,1.46-1.12,1.78-1.77,.35-.69,.31-1.48,.5-2.45,.37-1.86,1.79-3.4,3.49-4.11-1.14,1.32-2.19,2.61-2.52,4.32-.17,.74-.19,1.81-.81,2.65-.67,.86-1.59,1.09-2.44,1.36h0Z"/>
            <path class="cls-18" d="M560.5,126.09c-.21-1.2-.87-2.22-1.72-2.9-.82-.64-2.1-.89-3.16-1.66-1.89-1.45-3.82-3.97-3.07-6.44,.07,2.35,1.91,4.28,3.64,5.62,.97,.74,2.19,1,3.11,1.9,.92,.93,1.41,2.26,1.2,3.48h0Z"/>
            <g>
              <path class="cls-18" d="M545.5,130.31c1.24,.43,2.55,.08,3.8-.12,1.19-.26,2.54-.54,3.62-1.03,1.16-.5,1.54-2.12,2.87-2.55,1.34-.59,2.96-.27,3.89,.69-1.16-.64-2.54-.55-3.54,.01-1.13,.6-1.49,2.25-2.77,2.75-1.92,.78-3.92,1.04-5.96,.9-.65-.04-1.36-.24-1.9-.65h0Z"/>
              <path class="cls-18" d="M559.15,138.74c-.11-1.04-.27-2.08-.11-3.12,.08-.5,.17-.97,.02-1.23-.27-.46-1.08-1.26-1.05-2.11-.45-2.13,1-3.83,2.93-4.32-.78,.68-1.57,1.33-1.88,2.17-.29,.79-.19,1.83,.07,2.6,.11,.32,.55,.66,.81,1.3,.22,.72,0,1.29-.15,1.76-.29,.94-.35,1.97-.65,2.94h0Z"/>
              <path class="cls-18" d="M574.35,131.75c-.34,0-.57-.34-.66-.63-.65-1.2-2.38-1.61-3.63-1.49-1.8,.28-3.35,1.45-5.36,1.18-.68-.07-1.38-.48-1.71-1.07-.36-.59-.39-1.2-.62-1.77,.42,.46,.63,1.09,1.02,1.47,1.34,1.27,3.13,.23,4.7-.3,1.8-.79,4.11-.56,5.45,.99,.21,.26,.37,.58,.42,.9,.04,.3,.08,.59,.4,.71h0Z"/>
              <path class="cls-18" d="M562.89,125.85c.66-.61,1.46-1.12,1.78-1.77,.35-.69,.31-1.48,.5-2.45,.37-1.86,1.79-3.4,3.49-4.11-1.14,1.32-2.19,2.61-2.52,4.32-.17,.74-.19,1.81-.81,2.65-.67,.86-1.59,1.09-2.44,1.36h0Z"/>
              <path class="cls-18" d="M560.5,126.09c-.21-1.2-.87-2.22-1.72-2.9-.82-.64-2.1-.89-3.16-1.66-1.89-1.45-3.82-3.97-3.07-6.44,.07,2.35,1.91,4.28,3.64,5.62,.97,.74,2.19,1,3.11,1.9,.92,.93,1.41,2.26,1.2,3.48h0Z"/>
            </g>
            <path class="cls-18" d="M558.89,112.66c2.04,1.78,3.97,4.85,2.75,7.59-.26-2.88-1.84-4.9-2.75-7.59h0Z"/>
            <path class="cls-18" d="M563,112.78c.81,1.48,.86,3.45-.37,4.71-.11-1.73-.21-3.06,.37-4.71h0Z"/>
            <path class="cls-18" d="M578.02,125.11c-1.94,1.53-4.39,2.25-6.81,2.59-2.87,.17-2.91-.04-.14-.77,2.24-.69,4.65-1.34,6.96-1.82h0Z"/>
            <path class="cls-18" d="M573.32,124.4c-1.5,1.39-3.5,2.05-5.54,1.8,1.74-1.11,3.49-1.67,5.54-1.8h0Z"/>
            <path class="cls-18" d="M572.76,118.15c-.16,1.21-.87,2.03-2.05,2.32,.17-1.22,.86-2.01,2.05-2.32h0Z"/>
            <g>
              <g>
                <path class="cls-2" d="M556.18,126.9c.11-.3,.16-.61,.07-.95-.1-.37-.32-.69-.28-1.1,.06-.53,.32-.95,.78-1.24,.37-.24,.77-.24,1.19-.36,.47-.14,.77-.41,1.08-.76,.39-.44,.76-.91,1.45-.81,.67,.09,1.1,.74,1.79,.79,1.2,.09,2.03,.13,2.42,1.45,.15,.5,.2,.69,.6,1.03,.4,.33,.64,.57,.76,1.09,.21,.85,.03,1.71-.56,2.39-.32,.36-.86,.48-1.1,.91-.24,.43-.17,1.02-.37,1.49-.25,.56-.75,.93-1.37,1.03-.29,.05-.7,.07-.97-.04-.23-.09-.38-.34-.62-.38-.18-.03-.45,.1-.63,.12-.48,.05-.96-.06-1.42-.2-.59-.17-.72-.34-1.02-.86-.18-.31-.52-.46-.83-.62-.69-.34-1.48-.61-1.45-1.5,.02-.53,.32-.99,.49-1.47Z"/>
                <g class="cls-9">
                  <g>
                    <path class="cls-7" d="M545.5,130.31c1.24,.43,2.55,.08,3.8-.12,1.19-.26,2.54-.54,3.62-1.03,1.16-.5,1.54-2.12,2.87-2.55,1.34-.59,2.96-.27,3.89,.69-1.16-.64-2.54-.55-3.54,.01-1.13,.6-1.49,2.25-2.77,2.75-1.92,.78-3.92,1.04-5.96,.9-.65-.04-1.36-.24-1.9-.65h0Z"/>
                    <path class="cls-7" d="M559.15,138.74c-.11-1.04-.27-2.08-.11-3.12,.08-.5,.17-.97,.02-1.23-.27-.46-1.08-1.26-1.05-2.11-.45-2.13,1-3.83,2.93-4.32-.78,.68-1.57,1.33-1.88,2.17-.29,.79-.19,1.83,.07,2.6,.11,.32,.55,.66,.81,1.3,.22,.72,0,1.29-.15,1.76-.29,.94-.35,1.97-.65,2.94h0Z"/>
                    <path class="cls-7" d="M574.35,131.75c-.34,0-.57-.34-.66-.63-.65-1.2-2.38-1.61-3.63-1.49-1.8,.28-3.35,1.45-5.36,1.18-.68-.07-1.38-.48-1.71-1.07-.36-.59-.39-1.2-.62-1.77,.42,.46,.63,1.09,1.02,1.47,1.34,1.27,3.13,.23,4.7-.3,1.8-.79,4.11-.56,5.45,.99,.21,.26,.37,.58,.42,.9,.04,.3,.08,.59,.4,.71h0Z"/>
                    <path class="cls-7" d="M562.89,125.85c.66-.61,1.46-1.12,1.78-1.77,.35-.69,.31-1.48,.5-2.45,.37-1.86,1.79-3.4,3.49-4.11-1.14,1.32-2.19,2.61-2.52,4.32-.17,.74-.19,1.81-.81,2.65-.67,.86-1.59,1.09-2.44,1.36h0Z"/>
                    <path class="cls-7" d="M560.5,126.09c-.21-1.2-.87-2.22-1.72-2.9-.82-.64-2.1-.89-3.16-1.66-1.89-1.45-3.82-3.97-3.07-6.44,.07,2.35,1.91,4.28,3.64,5.62,.97,.74,2.19,1,3.11,1.9,.92,.93,1.41,2.26,1.2,3.48h0Z"/>
                  </g>
                </g>
              </g>
              <g>
                <path class="cls-1" d="M558.96,125.18c.62-.24,1.71-1.88,2.44-.88,.66-.8,1.85-.13,1.86,.82,.89-.27,1.2,1.68,.49,2.02,.37,.67-.52,2.17-1.36,1.99-.24,.66-.94,.42-1.48,.37-.94-.1-1.37-.28-1.45-1.28-.97,.19-1.48-1.36-.92-1.97-.65-.56,.08-1.19,.43-1.06Z"/>
                <g>
                  <path class="cls-5" d="M561.09,125.33c.46-.71,1.59-.33,1.41,.54,0,0-.35-.57-.35-.57,.54,.08,1.34,.82,.86,1.39-.2,.17-.38,.15-.55,.1,.07-.16,.14-.31,.09-.38-.07-.04-.09,.08-.16,.04-.24-.09-.66-.28-.91-.4,0,0,.06-.38,.06-.38,0-.03,.01,0,.06,.04,.22,.02-.34-.32-.52-.38h0Z"/>
                  <path class="cls-5" d="M561.66,128.41c.38,.53-.24,1.1-.79,.66-.23-.26-.08-.48,.11-.55,.2,.09,.38,.04,.29-.12-.11-.14-.18-.12-.16-.14,.17,.02,.27,.1,.56,.15h0Z"/>
                  <path class="cls-5" d="M560.1,126.63c.56,.9,.32-.31,0,.54-.76,.6-.93-1.04,0-.54h0Z"/>
                </g>
              </g>
            </g>
          </g>
        </g>
        <path class="cls-13" d="M607.05,193.48c-15.27-10.38-41.14-20.59-49.45,1.11-5.72,14.61-11.53,11.75-24.08,4.97-4.31-2.75-12.43-8.22-18.17-5.74-6.28,2.92-3.83,9.9-6.22,14.58-4.25,8.9-9.79,2.66-18.22,1.05-3.47-.75-8.39-2.09-11.59,.09-3.24,2.67-1.17,8.16-3.87,10.39-6.44,4.85-14.66-5.48-21.53-1.63-6.36,3.89-4.88,16.62-3.31,22.08-7.62-5.43-14.98-1.62-17.15,6.47-2.09,7.12,3.29,15.3-6.26,15.06-8.05-.12-13.47-7.81-22.37-3.63-8.4,4.22-6.11,13.13-8.2,20.25,67.5,6.08,135,12.16,202.38,19.68,1.5,.11,3,.23,4.5,.34,1,.08-1-.08-1.5-.11l5.02-104.95Z"/>
        <g>
          <path class="cls-11" d="M517.14,257.92c-.94-1.11-2.31-2.08-3.69-2.98,.31-2.14,.75-4.24,1.33-6.28,7.38,3.56,17.82,8.14,19.05,5.48,1.34-2.5-9.74-10.68-15.34-15.53,2.23-5.24,4.82-10.38,7.58-15.43,1.49,1.53,2.97,3.06,4.51,4.24,4.65,3.54,10.32,5.67,15.68,8.18-4.35-3.44-8.47-8.39-11.81-12.75-1.44-1.8-3.33-3.7-4.99-5.71,1.74-3.01,3.5-5.98,5.27-8.92,4.31,2.87,8.73,6.47,13.4,8.69-1.87-3.85-5.45-6.7-8.14-9.71-.96-1.25-1.72-2.6-2.67-3.76,5.49-10.92,17.05-36.33,17.05-36.33-.61,.75,6.35,14.05,9.13,20.78,1,2.47,1.93,4.93,2.81,7.41-1.79,7.53-5,15.26-8.02,21.97,3.51-2.84,7.89-8.82,10.46-14.46,.96,3.22,1.8,6.46,2.51,9.71-1.6,2.84-3.51,5.52-5.07,8.46,2.13-.83,4.21-2.57,5.86-4.6,.27,1.44,.51,2.89,.73,4.34-3.48,4.92-9.04,9.86-12.85,13.43,2.99-1,9.78-5.17,13.45-8.79,.31,2.82,.51,5.67,.61,8.52-4.24,5.08-8.66,9.82-13.93,14.06,2.64-.39,9.4-2.32,13.84-4.43-.17,3.27-.47,6.56-.95,9.88-.83,5.31-1.01,11.97-3.41,17.04-2.31,5.27-5.9,10.42-9.57,14.9-6.23,7.74-15.99,18.74-26.52,21.14l.4-.18c-5.93,.33-14.73-18.25-16.59-22.58-3.39-7.65-4.82-16.52-4.21-25.04,3.81,1.57,7.75,3.08,4.09-.75Z"/>
          <path class="cls-11" d="M509.41,249.92c-2.8-3.07-20.35-4.02-22.51-4.32l-4.28-5.91c4.09,.79,27.86,5.07,31.01,1.74-1.87-2.05-17.96-5.79-22.19-6.45-4.41-.65-8.95-1.15-13.41-1.63l-5.13-7.08c4.08-.4,8.18-1.16,12.05-2.07,6.78-1.37-12.92-6.75-18.77-7.22l-16.73-23.11s25.6,8.42,32.14,11.11c20.83,8.55,42.68,21.47,49.74,43.5,1.91,5.96,3.6,13.19,3.49,19.45-.26,8.31-4.38,23.41-14.76,23.45l-27.48-37.95c6.47-.02,13.68-.46,16.84-3.51Z"/>
          <path class="cls-10" d="M546.1,222.92c12.72,20.72,16.83,50.55,3.3,72.04-3.28,5.26-6.94,7.13-12.6,8.88l-.54-2.1c-.64-13.17-3.07-26.42-6.94-39.27,.56,.21,5.78,.59,7.73,1.12,3.79,.68,8.53,2.81,12.52,3.05-5.44-5.69-14.26-7.61-22.01-9.67-1.2-3.56-2.49-7.08-3.9-10.54,3.92,.97,9.91,2.29,13.07,1.42-3.01-1.69-9.54-4.37-14.44-4.67-.81-1.89-1.64-3.76-2.51-5.61,.5,.11,.99,.22,1.44,.34,2.69,.73,7.19,2.44,10.02,1.67-3.87-2.8-8.86-4.28-13.5-6.2-.74-1.47-1.49-2.93-2.26-4.37-2.43-4.45-5.03-8.97-7.8-13.46,5.88,2.28,11.76,5.97,17.61,6.2-5.25-6.19-14.49-9.98-22.3-13.52-8.14-12.21-17.58-23.81-28.34-32.73,27.72,6.62,56.81,23.19,71.47,47.44Z"/>
          <path class="cls-8" d="M522.63,201.26c9.74,7.96,19.27,17.16,24.25,28.99,3.42,7.78,5.33,16.14,6.77,24.47,1.55,8.3,2.57,16.79,2.19,25.25-.22,4.23-.74,8.44-1.71,12.55,1.31-8.32,1.25-16.78,.19-25.12-1.79-12.4-3.93-24.98-8.7-36.62-4.82-11.72-13.9-20.95-22.99-29.52h0Z"/>
          <path class="cls-10" d="M484.45,299.82c-1.42,.41-2.88,1.27-4.27,2.15-1.93-1.09-3.78-2.28-5.52-3.58,6.23-5.22,14.61-12.77,12.53-14.88-1.89-2.14-13.96,4.61-20.75,7.74-4.18-3.99-8.12-8.26-11.91-12.64,2.04-.74,4.07-1.48,5.78-2.4,5.17-2.79,9.38-7.03,13.83-10.85-4.96,2.57-11.28,4.34-16.74,5.66-2.27,.59-4.82,1.56-7.38,2.26-2.22-2.69-4.4-5.4-6.55-8.1,4.39-2.74,9.54-5.31,13.45-8.62-4.41,.2-8.5,2.3-12.42,3.54-1.57,.38-3.14,.54-4.62,.94-8.37-9.06-28.34-29.05-28.34-29.05,.48,.83,15.89-.29,23.41-.21,2.75,.05,5.47,.16,8.18,.32,6.53,4.47,12.73,10.28,18.01,15.53-1.39-4.21-5.45-10.39-9.88-14.83,3.46,.37,6.88,.86,10.27,1.46,2.11,2.51,3.95,5.23,6.18,7.75,.02-2.21-.86-4.73-2.18-6.97,1.49,.31,2.96,.65,4.44,1.01,3.39,4.98,6.01,11.81,7.98,16.57,.18-3.04-1.23-10.69-3.3-15.33,2.83,.8,5.63,1.7,8.41,2.71,3.25,5.72,6.12,11.46,8.18,17.77,.63-2.5,1.36-9.26,1.03-14.02,3.07,1.4,6.11,2.92,9.12,4.62,4.78,2.76,11.09,5.46,15.05,9.54,4.18,4.07,7.74,9.23,10.64,14.21,5.05,8.5,11.87,21.39,10.16,31.69l-.02-.43c-1.95,5.41-23.12,6.16-27.98,6.17-8.64,.1-17.68-2.01-25.62-5.8,2.96-2.8,5.91-5.72,.84-3.93Z"/>
          <path class="cls-8" d="M431.79,240.51c7.77,2.72,18.86,7.48,26.55,10.77,8.68,3.93,17.53,7.56,25.99,12.11,4.18,2.37,8.28,4.75,12.42,7.16,12.32,7.21,24.62,15.26,33.64,26.51-6.43-7.06-14.06-12.86-22.09-17.97-8.02-5.11-16.39-9.72-24.69-14.39-8.3-4.61-17.15-8.22-25.76-12.38-7.6-3.51-18.48-8.53-26.07-11.81h0Z"/>
        </g>
        <g>
          <path class="cls-13" d="M328.28,209.51c-14.29-9.71-38.48-19.26-46.26,1.04-5.35,13.67-10.79,10.99-22.53,4.65-4.03-2.57-11.62-7.69-17-5.37-5.88,2.73-3.58,9.27-5.82,13.64-3.98,8.33-9.16,2.49-17.04,.98-3.24-.7-7.85-1.96-10.85,.09-3.03,2.5-1.09,7.64-3.62,9.72-6.02,4.54-13.72-5.12-20.14-1.52-5.95,3.64-4.57,15.55-3.1,20.65-7.13-5.08-14.01-1.51-16.04,6.05-1.96,6.66,3.08,14.31-5.86,14.09-7.53-.12-12.6-7.31-20.93-3.4-7.86,3.95-5.71,12.28-7.67,18.95,63.15,5.69,126.3,11.37,189.34,18.41,1.4,.11,2.81,.21,4.21,.32,.94,.07-.94-.07-1.4-.11l4.7-98.19Z"/>
          <path class="cls-13" d="M271.5,209.51c14.29-9.71,38.48-19.26,46.26,1.04,5.35,13.67,10.79,10.99,22.53,4.65,4.03-2.57,11.62-7.69,17-5.37,5.88,2.73,3.58,9.27,5.82,13.64,3.98,8.33,9.16,2.49,17.04,.98,3.24-.7,7.85-1.96,10.85,.09,3.03,2.5,1.09,7.64,3.62,9.72,6.03,4.54,13.72-5.12,20.14-1.52,5.95,3.64,4.57,15.55,3.1,20.65,7.13-5.08,14.01-1.51,16.04,6.05,1.96,6.66-3.08,14.31,5.86,14.09,7.53-.12,12.6-7.31,20.93-3.4,7.86,3.95,5.71,12.28,7.67,18.95-63.15,5.69-126.3,11.37-189.34,18.41-1.4,.11-2.81,.21-4.21,.32-.94,.07,.94-.07,1.4-.11l-4.7-98.19Z"/>
          <g>
            <path class="cls-11" d="M355.61,269.79c.88-1.04,2.16-1.95,3.45-2.79-.29-2-.7-3.97-1.24-5.87-6.9,3.33-16.67,7.62-17.82,5.13-1.25-2.34,9.12-9.99,14.35-14.53-2.09-4.91-4.51-9.71-7.09-14.43-1.4,1.44-2.78,2.86-4.22,3.96-4.35,3.31-9.65,5.31-14.67,7.66,4.07-3.21,7.92-7.85,11.05-11.93,1.34-1.68,3.12-3.46,4.66-5.34-1.62-2.81-3.28-5.6-4.93-8.35-4.03,2.68-8.16,6.06-12.54,8.13,1.75-3.6,5.1-6.27,7.61-9.09,.9-1.17,1.61-2.43,2.5-3.52-5.14-10.21-15.95-33.99-15.95-33.99,.57,.7-5.94,13.14-8.54,19.44-.94,2.31-1.81,4.62-2.63,6.93,1.68,7.04,4.68,14.28,7.5,20.55-3.28-2.66-7.38-8.25-9.79-13.53-.9,3.02-1.68,6.04-2.35,9.08,1.5,2.65,3.29,5.16,4.74,7.92-1.99-.77-3.94-2.4-5.48-4.31-.25,1.35-.48,2.7-.68,4.06,3.26,4.61,8.45,9.23,12.02,12.57-2.79-.93-9.15-4.84-12.58-8.22-.29,2.64-.48,5.3-.57,7.97,3.97,4.75,8.1,9.19,13.03,13.16-2.47-.36-8.8-2.17-12.95-4.15,.16,3.06,.44,6.14,.89,9.25,.78,4.97,.94,11.19,3.19,15.95,2.16,4.93,5.52,9.75,8.96,13.94,5.83,7.25,14.96,17.53,24.81,19.78l-.37-.17c5.55,.31,13.78-17.07,15.52-21.12,3.18-7.16,4.51-15.45,3.94-23.42-3.57,1.47-7.25,2.88-3.83-.7Z"/>
            <path class="cls-11" d="M362.84,262.31c2.62-2.87,19.04-3.76,21.06-4.04l4-5.53c-3.83,.74-26.07,4.75-29.02,1.62,1.75-1.91,16.8-5.41,20.76-6.03,4.13-.6,8.38-1.07,12.55-1.52l4.8-6.63c-3.82-.37-7.65-1.09-11.27-1.93-6.34-1.28,12.09-6.31,17.56-6.75l15.65-21.62s-23.95,7.88-30.07,10.39c-19.49,8-39.93,20.09-46.54,40.7-1.79,5.57-3.37,12.34-3.26,18.2,.24,7.78,4.1,21.9,13.81,21.94l25.71-35.51c-6.06-.02-12.8-.43-15.75-3.29Z"/>
            <path class="cls-10" d="M328.52,237.05c-11.9,19.38-15.74,47.3-3.08,67.39,3.07,4.92,6.5,6.67,11.79,8.3l.51-1.97c.6-12.32,2.87-24.72,6.5-36.74-.52,.19-5.41,.55-7.23,1.04-3.54,.64-7.98,2.63-11.71,2.86,5.09-5.32,13.34-7.12,20.59-9.05,1.12-3.33,2.33-6.62,3.65-9.86-3.66,.91-9.27,2.14-12.23,1.33,2.81-1.58,8.93-4.09,13.51-4.37,.76-1.76,1.53-3.52,2.35-5.25-.47,.1-.93,.2-1.35,.32-2.51,.68-6.73,2.28-9.38,1.57,3.62-2.62,8.29-4,12.63-5.8,.69-1.37,1.39-2.74,2.12-4.09,2.27-4.16,4.71-8.39,7.3-12.59-5.5,2.13-11,5.58-16.47,5.8,4.92-5.79,13.56-9.33,20.87-12.65,7.62-11.42,16.45-22.28,26.52-30.62-25.93,6.2-53.15,21.7-66.87,44.38Z"/>
            <path class="cls-8" d="M350.47,216.78c-5.68,5.42-11.34,10.97-15.82,17.43-9.02,12.96-11.42,29.17-13.79,44.45-1,7.8-1.06,15.71,.14,23.5-1.84-7.71-2.03-15.75-1.29-23.62,1.35-11.79,3.35-23.68,8.01-34.66,4.7-11.06,13.61-19.67,22.75-27.1h0Z"/>
            <path class="cls-10" d="M386.19,308.99c1.33,.38,2.7,1.18,3.99,2.01,1.81-1.02,3.54-2.14,5.16-3.35-5.83-4.88-13.67-11.95-11.72-13.92,1.77-2.01,13.06,4.31,19.41,7.24,3.91-3.73,7.6-7.72,11.14-11.82-1.91-.7-3.81-1.38-5.41-2.25-4.84-2.61-8.77-6.57-12.94-10.15,4.64,2.4,10.55,4.06,15.66,5.29,2.13,.56,4.51,1.46,6.9,2.12,2.08-2.52,4.12-5.06,6.13-7.58-4.11-2.57-8.92-4.96-12.58-8.07,4.13,.19,7.96,2.15,11.62,3.32,1.46,.35,2.94,.5,4.33,.88,7.83-8.47,26.52-27.18,26.52-27.18-.45,.78-14.87-.27-21.9-.2-2.57,.05-5.12,.15-7.65,.3-6.11,4.18-11.91,9.62-16.85,14.52,1.3-3.94,5.1-9.72,9.24-13.88-3.23,.35-6.44,.8-9.61,1.37-1.97,2.35-3.7,4.9-5.78,7.25-.02-2.07,.8-4.42,2.04-6.52-1.39,.29-2.77,.61-4.15,.94-3.17,4.66-5.63,11.05-7.47,15.51-.17-2.85,1.15-10,3.09-14.35-2.65,.75-5.27,1.6-7.87,2.53-3.04,5.35-5.72,10.72-7.65,16.63-.59-2.34-1.27-8.67-.96-13.12-2.87,1.31-5.72,2.74-8.53,4.32-4.47,2.59-10.38,5.11-14.08,8.92-3.91,3.81-7.24,8.64-9.95,13.29-4.73,7.95-11.11,20.02-9.51,29.65l.02-.4c1.82,5.06,21.63,5.76,26.18,5.77,8.08,.1,16.54-1.88,23.97-5.43-2.77-2.62-5.53-5.36-.78-3.68Z"/>
            <path class="cls-8" d="M435.46,253.51c-7.05,3.06-17.28,7.8-24.37,11.09-8.05,3.9-16.33,7.28-24.09,11.59-7.77,4.36-15.6,8.68-23.1,13.45-7.51,4.77-14.65,10.19-20.68,16.78,8.42-10.54,19.92-18.09,31.45-24.84,11.45-7.11,23.63-12.74,35.94-18.03,7.21-3.08,17.54-7.49,24.86-10.04h0Z"/>
          </g>
          <g>
            <path class="cls-11" d="M244.18,269.79c-.88-1.04-2.16-1.95-3.45-2.79,.29-2,.7-3.97,1.24-5.87,6.91,3.33,16.67,7.62,17.82,5.13,1.25-2.34-9.12-9.99-14.35-14.53,2.09-4.91,4.51-9.71,7.09-14.43,1.4,1.44,2.78,2.86,4.22,3.96,4.35,3.31,9.65,5.31,14.67,7.66-4.07-3.21-7.92-7.85-11.05-11.93-1.35-1.68-3.12-3.46-4.66-5.34,1.62-2.81,3.28-5.6,4.93-8.35,4.03,2.68,8.16,6.06,12.54,8.13-1.75-3.6-5.1-6.27-7.61-9.09-.9-1.17-1.6-2.43-2.5-3.52,5.14-10.21,15.95-33.99,15.95-33.99-.57,.7,5.94,13.14,8.54,19.44,.94,2.31,1.81,4.62,2.63,6.93-1.68,7.04-4.68,14.28-7.51,20.55,3.28-2.66,7.38-8.25,9.79-13.53,.9,3.02,1.68,6.04,2.35,9.08-1.5,2.65-3.29,5.16-4.74,7.92,1.99-.77,3.94-2.4,5.48-4.31,.25,1.35,.48,2.7,.68,4.06-3.26,4.61-8.45,9.23-12.02,12.57,2.8-.93,9.15-4.84,12.58-8.22,.29,2.64,.48,5.3,.57,7.97-3.97,4.75-8.1,9.19-13.03,13.16,2.47-.36,8.8-2.17,12.95-4.15-.16,3.06-.44,6.14-.89,9.25-.78,4.97-.94,11.19-3.19,15.95-2.16,4.93-5.52,9.75-8.96,13.94-5.83,7.25-14.96,17.53-24.81,19.78l.37-.17c-5.55,.31-13.78-17.07-15.52-21.12-3.18-7.16-4.51-15.45-3.94-23.42,3.57,1.47,7.25,2.88,3.83-.7Z"/>
            <path class="cls-11" d="M236.95,262.31c-2.62-2.87-19.04-3.76-21.06-4.04l-4-5.53c3.83,.74,26.07,4.75,29.02,1.62-1.75-1.91-16.8-5.41-20.76-6.03-4.13-.6-8.38-1.07-12.55-1.52l-4.8-6.63c3.82-.37,7.65-1.09,11.27-1.93,6.35-1.28-12.09-6.31-17.56-6.75l-15.66-21.62s23.95,7.88,30.07,10.39c19.49,8,39.93,20.09,46.53,40.7,1.79,5.57,3.37,12.34,3.27,18.2-.24,7.78-4.1,21.9-13.81,21.94l-25.71-35.51c6.06-.02,12.8-.43,15.75-3.29Z"/>
            <path class="cls-10" d="M271.27,237.05c11.9,19.38,15.75,47.3,3.08,67.39-3.07,4.92-6.5,6.67-11.79,8.3l-.51-1.97c-.6-12.32-2.87-24.72-6.5-36.74,.52,.19,5.41,.55,7.23,1.04,3.54,.64,7.98,2.63,11.71,2.86-5.09-5.32-13.34-7.12-20.59-9.05-1.12-3.33-2.33-6.62-3.65-9.86,3.66,.91,9.27,2.14,12.23,1.33-2.81-1.58-8.93-4.09-13.51-4.37-.76-1.76-1.53-3.52-2.35-5.25,.47,.1,.92,.2,1.35,.32,2.51,.68,6.73,2.28,9.38,1.57-3.62-2.62-8.29-4-12.63-5.8-.69-1.37-1.39-2.74-2.12-4.09-2.27-4.16-4.71-8.39-7.3-12.59,5.51,2.13,11.01,5.58,16.47,5.8-4.92-5.79-13.56-9.33-20.87-12.65-7.62-11.42-16.45-22.28-26.51-30.62,25.93,6.2,53.15,21.7,66.87,44.38Z"/>
            <path class="cls-8" d="M249.31,216.78c9.14,7.43,18.05,16.04,22.75,27.1,4.66,10.98,6.66,22.88,8.01,34.66,.74,7.87,.55,15.92-1.29,23.62,1.21-7.79,1.14-15.7,.14-23.5-2.38-15.28-4.77-31.5-13.79-44.45-4.48-6.46-10.14-12.01-15.82-17.43h0Z"/>
            <path class="cls-10" d="M213.59,308.99c-1.33,.38-2.7,1.18-3.99,2.01-1.81-1.02-3.54-2.14-5.16-3.35,5.83-4.88,13.67-11.95,11.72-13.92-1.76-2.01-13.06,4.31-19.41,7.24-3.91-3.73-7.6-7.72-11.14-11.82,1.91-.7,3.81-1.38,5.41-2.25,4.83-2.61,8.77-6.57,12.94-10.15-4.64,2.4-10.55,4.06-15.66,5.29-2.13,.56-4.51,1.46-6.9,2.12-2.08-2.52-4.12-5.06-6.13-7.58,4.11-2.57,8.92-4.96,12.58-8.07-4.13,.19-7.96,2.15-11.62,3.32-1.47,.35-2.94,.5-4.33,.88-7.83-8.47-26.52-27.18-26.52-27.18,.45,.78,14.87-.27,21.9-.2,2.57,.05,5.12,.15,7.65,.3,6.11,4.18,11.91,9.62,16.85,14.52-1.3-3.94-5.1-9.72-9.24-13.88,3.23,.35,6.44,.8,9.61,1.37,1.97,2.35,3.7,4.9,5.78,7.25,.02-2.07-.8-4.42-2.04-6.52,1.39,.29,2.77,.61,4.15,.94,3.17,4.66,5.63,11.05,7.47,15.51,.17-2.85-1.15-10-3.09-14.35,2.65,.75,5.27,1.6,7.87,2.53,3.04,5.35,5.72,10.72,7.65,16.63,.59-2.34,1.28-8.67,.96-13.12,2.87,1.31,5.72,2.74,8.53,4.32,4.47,2.59,10.38,5.11,14.08,8.92,3.91,3.81,7.24,8.64,9.95,13.29,4.73,7.95,11.11,20.02,9.51,29.65l-.02-.4c-1.82,5.06-21.63,5.76-26.18,5.77-8.08,.1-16.54-1.88-23.97-5.43,2.77-2.62,5.53-5.36,.78-3.68Z"/>
            <path class="cls-8" d="M164.32,253.51c7.27,2.53,17.66,6.97,24.86,10.04,12.32,5.29,24.49,10.92,35.94,18.03,11.53,6.75,23.03,14.29,31.45,24.84-6.03-6.59-13.17-12.01-20.68-16.78-7.5-4.77-15.34-9.09-23.1-13.45-7.76-4.32-16.04-7.69-24.09-11.59-7.1-3.29-17.28-8-24.37-11.09h0Z"/>
          </g>
        </g>
        <path class="cls-13" d="M-11.35,193.9c15.27-10.38,41.14-20.59,49.45,1.11,5.72,14.61,11.53,11.75,24.08,4.97,4.31-2.75,12.43-8.22,18.17-5.74,6.28,2.92,3.83,9.9,6.22,14.58,4.25,8.9,9.79,2.66,18.22,1.05,3.47-.75,8.39-2.09,11.59,.09,3.24,2.67,1.17,8.16,3.87,10.39,6.44,4.85,14.66-5.48,21.53-1.63,6.36,3.89,4.88,16.62,3.31,22.08,7.62-5.43,14.98-1.62,17.15,6.47,2.09,7.12-3.29,15.3,6.26,15.06,8.05-.12,13.47-7.81,22.37-3.63,8.4,4.22,6.11,13.13,8.2,20.25-67.5,6.08-135,12.16-202.38,19.68-1.5,.11-3,.23-4.5,.34-1,.08,1-.08,1.5-.11l-5.02-104.95Z"/>
        <g>
          <path class="cls-15" d="M55.91,98.53c-9.28,17.31-15.23,40.81-23.37,58.64-5.1,11.17-10.07,17.77-16.02,28.51"/>
          <g>
            <path class="cls-21" d="M68.01,88.34c3.11-3.8,5.85-9.25,6.84-13.69-4.53,4.41-6.43,5.52-7.97,7.43-.7,.87-2.56,2.29-3.49,3.49-3.6,4.63-5.46,8.05-8.6,15.41,.26-.62,.59-.36,1.8-1.48,2.85-2.65,7.31-6.62,10.46-10.03,.33-.35,.64-.74,.96-1.13Z"/>
            <path class="cls-21" d="M64.34,92.92c-5.85,4.3-8.34,8.34-11.92,14.24,5.71-1.03,10.06-4.23,13.74-8.07,.7-.73,1.37-1.47,2.02-2.23,2.19-2.56,4.52-5.47,6.05-8.45,1.18-2.29,1.86-4.9,3.69-6.85-3.22,2.7-6.38,5.59-9.69,8.31-1.27,1.05-2.57,2.07-3.9,3.05Z"/>
            <path class="cls-21" d="M61.89,103.53c-4.94,3.01-9.53,9.06-13.71,12.86,5.08-3.35,11.02-5.25,16.15-7.49,2.6-1.14,4.99-2.36,6.96-3.9,3.58-2.82,6.56-6.02,8.79-9.97-3.79,3.55-9.54,4.69-14.51,6.7-1.29,.52-2.53,1.1-3.67,1.79Z"/>
            <path class="cls-21" d="M57.51,114.75c-4.9,2.78-8.99,8.21-13.14,11.69,5.04-.91,13.07-4.3,19.09-8.24,.24-.16,.46-.33,.69-.5,4.62-3.28,7.65-7.99,11.84-11.55-3.87,1.51-7.96,3.25-11.88,5.15-2.28,1.1-4.51,2.26-6.6,3.44Z"/>
            <path class="cls-21" d="M55.16,125.01c-4.03,3.27-9.27,7.18-14.1,9.32,8.49-1.34,17.01-4.49,23.14-8.74,.42-.29,.83-.59,1.23-.89,3.76-2.85,6.99-6.62,10.94-9.16-4.23,.96-8.26,2.19-12.05,3.89-3.24,1.46-6.31,3.26-9.16,5.58Z"/>
            <path class="cls-21" d="M28.44,126.08c1.4,1.11,2.5,2.13,3.63,3.19,2.04,1.92,4.18,3.99,8.32,7.09-1.19-1.07-4.61-7.16-7.72-12.37-1.69-2.84-3.3-5.42-4.39-6.78-4.66-5.81-10.49-9.38-16.36-13.79,1.97,6.71,5.63,12.14,8.37,15.4,2.53,3.01,5.04,4.78,8.15,7.26Z"/>
            <path class="cls-21" d="M10.42,133.8c4.84,2.42,11.37,5.51,19.1,6.68,3.09,.47,6.36,.64,9.81,.33-.27,.07-.54,.16-.8,.22,5.22,1.57,11.24,.22,14.72-1.07,.33-.12,.64-.24,.92-.36,3.96-1.69,8.04-3.16,11.85-5.16,3.92-2.06,6.95-4.84,9.86-8.04-5.33,.94-10.33,3-15.19,5.29-1.35,.64-2.68,1.29-4.01,1.94-5.04,2.48-11.59,5.65-17.21,7.15-3-.8-5.68-2.24-8.3-3.83-3.24-1.97-6.39-4.17-9.96-5.68-8.31-3.53-16.37-8.52-25.11-10.43,1.71,1.31,2.93,3.34,4.35,4.95,2.79,3.18,6.14,6.11,9.98,8.03Z"/>
            <path class="cls-21" d="M35.38,149.06c-3.24-1.3-6.28-3.03-9.32-4.78-3.81-2.18-7.63-4.36-11.86-5.68-4.67-1.45-9.82-2.74-14.75-2.85-1.73-.04-3.78,.31-5.6,.18,1.72,.59,3.56,1.98,4.92,2.69,2.93,1.53,5.74,3.15,8.95,4.09,4.04,1.18,8.94,3.01,15.15,4.44,3.68,.85,7.82,1.56,12.51,1.91Z"/>
            <path class="cls-21" d="M11.47,149.88c-6.94-.86-13.87-.76-20.67,.78,4.05-.89,9.13,1.38,12.79,2.77,4.07,1.55,7.83,1.77,12.64,1.49,4.53-.27,9.98-.98,17.54-1.46-4.72-.36-9.85-1.43-14.92-2.38-2.49-.47-4.98-.9-7.39-1.2Z"/>
            <path class="cls-21" d="M14.48,162.92c-.14,.07-.29,.14-.42,.21-5.3,2.68-10.92,4.95-16.04,7.91,2.88-.47,6.49-.77,9.61-1.35,1.74-.33,3.51-.67,5.36-1.13,5.47-1.37,11.6-3.77,19.41-9.83-5.18-1.21-13.32,1.92-17.92,4.19Z"/>
            <path class="cls-21" d="M40.81,167.76c-2.95-2.94-6.13-5.4-10.29-5.72,1.35,2.61,3.31,5.35,5.59,7.83,5.24,5.71,12.2,10.09,17.58,8.53-5.18-1.62-8.82-6.59-12.88-10.65Z"/>
            <path class="cls-21" d="M43.7,165.3c4.16,1.57,8.44,2.74,12.06,4.26,4.12,1.74,9.19,4.15,13.88,3.77-6.58-.8-12.47-6.1-17.62-9.86-1.77-1.29-3.61-2.19-5.51-2.83-4.41-1.5-9.14-1.59-14.1-1.92,3.15,3.07,7.17,5.02,11.3,6.58Z"/>
            <path class="cls-21" d="M67.27,153.48c3.17-.73,7.85-1.5,10.66-3.21-9.06,1.93-18.89,1.24-28.48,1.39-5.2,.08-10.34,.41-15.25,1.56,4.74,2.14,9.4,2.96,13.9,3.05,6.8,.13,13.26-1.43,19.17-2.79Z"/>
            <path class="cls-21" d="M50.62,142.01c-5.16,1.71-9.25,4.68-14.08,6.77,4.98,.2,9.52-.07,13.79-.66,10.29-1.42,18.94-4.8,27.86-8.57-3.1,.56-6.49-.11-9.63-.19-5.48-.14-10.84,.54-16.05,2.06-.64,.18-1.27,.38-1.9,.59Z"/>
            <path class="cls-21" d="M34.18,119.88c2.51,2.89,5.64,5.67,9.31,8.57-1.4-2.54-1.94-5.65-3.06-8.33-.74-1.78-1.57-3.53-2.46-5.25-1.62-3.14-3.44-6.19-5.34-9.14-2.3-3.57-2.49-4.48-4.95-7.95-.75-1.06-3.2-5.05-3.78-6.21,1.49,5.59,2.56,11.27,3.99,16.86,1.09,4.27,3.24,7.94,6.28,11.45Z"/>
            <path class="cls-21" d="M39.82,113.01c1.76,2.29,4.1,4.36,7.23,6.07-.89-2.13-.29-5.39-.97-7.82-.3-1.07-.68-2.11-1.1-3.14-1.01-2.44-2.33-4.76-3.75-7-3.09-4.87-5.84-9.97-8.09-15.2,1.48,7.57,.27,18.77,6.69,27.09Z"/>
            <path class="cls-21" d="M48.77,103.51c.82,1.37,1.79,2.41,2.96,2.86-.15-3.89,.05-7.72-.33-11.57-.15-1.51-.37-3.02-.76-4.53-1.31-5.19-3.17-10.15-4.6-15.22-1.42,4.2-1.48,9.9-1,14.28,.48,4.4,1.54,10.52,3.72,14.18Z"/>
            <path class="cls-21" d="M59.34,82.18c.05-1.07,.01-2.12-.08-3.16-.45-4.85-1.32-9.64-2.42-14.29-.54,4.89-2.31,9.58-2.69,14.6-.05,.65-.07,1.31-.09,1.98-.2,6.28,.39,13.4,1.21,18.86,1.16-2.11,2.36-6.26,2.88-8.54,.73-3.13,1.04-6.25,1.2-9.45Z"/>
          </g>
        </g>
        <g>
          <path class="cls-22" d="M-34.72,186.45c-2.23,6.51,.23,10.28,1.81,17.7,.75,4.22-.44,6.41,4.21,9.4,2.77,1.65,6.18,2.55,9.62,2.47,3.74,.03,8.53-.88,12.23-2.52,2.58-1.37,4.89-3.82,7.85-4.41l1.01,.03c-.24,6.81-10.41,13.68-12.79,20.72,3.67,1.98,7.03-1.42,10.21,.06,2.7,.97,4.43,6.19,6.79,8.03,5.13,3.49,12.43,3.15,18.3,2.96,1.19-.04,2.35-.14,3.5-.27-2.77-7.28-12.27-8.66-16.25-16.14-2.18-4.07-1.65-21.3,5.02-12.99,2.44,2.52,1.66,7.17,3.87,10.27,1.81,3.28,5.18,5.14,7.91,7.77,2.59,2.21,5.83,6.41,8.78,8.92,7.34-2.58,13.8-6.98,19.92-12.15-2.7-1.22-5.59-2.61-7.55-2.97-6.92-1.5-9.33-5-14.61-9.86-2.36-1.83-16.44-9.52-11.14-13.54,4.67-3.25,13.41,9.42,16.67,11.58,6.41,4.68,14.74,6.66,22.03,9.98,.19-.18,.39-.36,.59-.54,6.12-5.49,10.62-12.83,13.82-20.57-8.27,.05-16.62,2.35-24.82,.51-5.32-1.25-14.98-5.38-18.05-9.77-5.22-6.81,7.81-.81,10.4,.45,11.32,5.21,23.85-.05,35.58-.15,.55-1.88,1.03-3.76,1.44-5.62,.92-3.83,1.69-7.32,2.1-10.87-2.44,1.01-5.26,1.71-7.13,1.82-6.58,.27-12.83-.33-19.41-.07-2.54,.4-20.35,.58-13.25-5.42,4.37-3.36,16.01,1.81,20.77,1.87,5.63,.42,13.69-.85,19.34-3.83-.01-1.11-.05-2.24-.16-3.41-.29-2.64-.38-5.99-.61-9.38-7.79,2.93-22.11,7.27-23.6,4.95-1.78-2.86,15.83-8.61,22.88-11.16-.41-2.26-1.01-4.33-1.93-5.97-.37-.79-.34-1.77-.71-2.56-7.98-2.86-16.49-3.55-25.09-4.71-6.2,6.3-11.03,11.95-13.64,21.05-3.23,11-7.73,4.12-5.02-3.78,2.15-6.46,7.01-11.95,12.42-16.25,.64-.52,1.33-1.04,2.04-1.56-3.58-.34-6.96-.22-10.33,.04-1.87,2.23-4.16,4.3-5.84,6.31-2.32,2.45-3.99,4.15-5.22,7.33-1.23,3.18-.25,6.82-1.47,9.99-1.57,4.04-4.82,4.52-6.58,.27-.71-2.56,.96-6.89,2.15-9.09,2.32-5.18,5.89-9.91,9.94-14.21-1.04,.08-2.09,.15-3.16,.21-4.15,.15-6.96-.53-10.77,1.39-2.53,.94-4.72,3.16-7.22,4.68-3.16,7.42-8.31,13.86-5.71,22.56,1.01,2.67,7.49,22.09-2.73,16.77-5.06-2.8-2.65-16.08-2.18-20.83,.37-5.8,1.82-11.61,4.72-16.82-2.74,.06-5.72-.39-8.57,.32-3.78,.95-7.51,3.54-10.65,6.36-1.39,1.37-2.35,3.02-3.45,4.68,1.32,8.01,4.94,14.8,7.21,22.64,.71,2.56,2.75,7.89-2,7.82-3.33-.21-5.92-6.73-6.64-9.29-1.59-4.87-2.53-10.9-2.84-16.45-2.14,1.63-4.63,2.87-6.65,4.82-3.35,3.39-3.59,7.32-4.24,11.29,1.12,1.72,2.2,3.52,3.35,5.15,3.79,4.32,10.3,6,13.19,9.99,2.81,3.31,1.21,5.7-3.21,4.77-2.51-.57-5.02-3.78-7.19-5.22-2.45-1.82-6.44-3.45-9.23-5.57Zm113.13-23.18l-.03,.97c-3.48,1.05-7.55,4.52-11.21,2.55,.74-3.68,8.89-5.36,11.25-3.52Zm-36.6,66.41l.08,.68c-.74,3.68-5.31,1.38-4.79-1.72,.55-4.07,4.49-1.02,4.72,1.04Zm-17.56-62.19l.19,.4c1.57,1.22,2.25,4.75,.57,6.45-5.7,6.83-8.36-9.25-.76-6.85Z"/>
          <path class="cls-20" d="M2.33,208.68c7.27-12.47,17.37-23,27.54-33.14,10.34-10,21.53-19.21,33.72-26.88-14.07,11.18-27.43,23.04-39.93,35.89-7.55,7.66-14.94,15.44-21.33,24.13h0Z"/>
          <g>
            <path class="cls-20" d="M18.06,188.8c-4.43-2.93-6.38-8.67-5.71-13.81,1.45,4.86,2.92,9.52,5.71,13.81h0Z"/>
            <path class="cls-20" d="M48.64,159.47c-.48-6.28,3.68-11.79,8.16-15.75-2.81,5.27-6.57,9.88-8.16,15.75h0Z"/>
            <path class="cls-20" d="M10.84,197.42c-8.1,.86-18.3-.1-22.93-7.75,6.14,6.04,14.9,6.44,22.93,7.75h0Z"/>
            <path class="cls-20" d="M59.43,184.76c-9.43,2.54-22.4-.54-30.15-6.37,9.47,4.14,19.78,6.68,30.15,6.37h0Z"/>
          </g>
        </g>
        <g>
          <path class="cls-4" d="M-37.31,132.85c.33,3.53-.69-3.31-.72-4.28-.26-6.59,.97-12.13,2.92-18.46,3.19-10.34,7.68-21.83,16.26-29.15,6.45-5.5,12.33-6.68,15.87-14.38C-.23,60.58-.34,52.98,4.23,47.62c3.35-3.92,9.33-5.37,13.25-8.65,5.1-4.26,9.36-9.84,14.34-14.35C41.76,15.61,51.21,7.2,62.78,0c-16.68,15.73-14.16,24.13-19.86,38.87-4.03,10.42-14.18,20.14-17.35,29.33-2.72,7.86-1.92,16.15-6.69,24.39-4.39,7.58-10.25,14.69-15.08,22.16-8.37,12.94-20.93,56.5-41.1,18.11Z"/>
          <g>
            <path class="cls-14" d="M-26.23,134.5c3.74-20.16,6.11-28.2,21.12-42.72,7.48-7.56,14.28-16.24,16.64-26.78,1.02-3.6,.81-7.4,1.78-11.02,2.68-6.72,8.44-11.66,13.58-16.44,4.08-3.55,8.32-6.88,12.57-10.21-4.03,3.59-8.18,7.03-12.07,10.75-4.93,4.9-12.9,11.92-13.36,19.12-.49,8.19-3.05,16.27-7.62,23.1-6.05,9.19-14.93,15.81-21.37,24.28-6.44,8.69-8.65,19.59-11.26,29.9h0Z"/>
            <path class="cls-14" d="M11.34,67.29c-2.03-3.06-5.14-6.93-3.33-10.75,.35,3.9,3.24,6.84,3.33,10.75h0Z"/>
            <path class="cls-14" d="M27.56,36.89c.6-3.02,1.83-5.51,3.48-8.04,.39,3.01-1.15,6.17-3.48,8.04h0Z"/>
            <path class="cls-14" d="M22.3,51.38c5.04-3.31,10.16-6.48,15.76-8.74-4.51,4.02-9.86,7.3-15.76,8.74h0Z"/>
            <path class="cls-14" d="M-3.88,91.73c6.15-2.41,12.27-4.42,17.7-8.34-3.98,5.5-11.12,8.01-17.7,8.34h0Z"/>
            <path class="cls-14" d="M.45,87.43c2.25-1.86,5.04-3.38,7.33-5.16,.78-.6,1.53-1.23,2.33-1.92-.27,1.03-.84,1.96-1.52,2.77-2.06,2.39-5.04,3.89-8.15,4.32H.45Z"/>
          </g>
        </g>
        <g>
          <path class="cls-3" d="M-4.41,164.18c-1.19-14.67-4.76-34.95,6.14-49.4,4.22-5.59,10.11-5.65,12.45-11.83,3.84-10.14-1.91-21.22,7.9-29.56,6.99-5.94,17.67-5.16,26.04-7.92,6.62-2.17,8.14-5.42,12.21-10.14,10.37-12.04,21.25-3.33,33.33-7.58-13.62,6.38-22.11,10.36-27.55,23.93-2.94,7.33-6.55,8.43-13.31,11.64-8.29,3.94-13.9,9.38-16.69,17.98-5.15,15.85-6.83,28.78-25.17,34.28-7.11,2.13-11.07,3.66-13.15,11.16-1.05,3.78-2.21,15.19-2.19,17.44Z"/>
          <g>
            <path class="cls-19" d="M66.42,59.92c-6.83,5.1-12.1,11.92-19.34,16.54-3.57,2.2-7.39,4.06-10.5,6.91-5.62,4.82-8.73,11.66-11.32,18.46-3.55,9.15-11.95,14.91-17.26,22.79-2.38,3.45-4.03,7.4-4.82,11.57,.45-4.22,1.98-8.32,4.2-11.97,4.98-8.07,13.11-13.93,16.59-22.93,2.52-7.03,5.86-14.07,11.72-18.96,3.21-2.87,7.07-4.78,10.78-6.86,7.25-4.31,12.82-11.04,19.95-15.57h0Z"/>
            <path class="cls-19" d="M35.12,74.35c1.07,3.57,.39,7.74-1.89,10.7,.31-3.67,.89-7.16,1.89-10.7h0Z"/>
            <path class="cls-19" d="M58.18,71.7c-2.2,2.04-5.27,2.72-8.14,3.16-3.5,.53-3.54,.27-.3-1.13,2.75-1.04,5.54-1.51,8.44-2.03h0Z"/>
            <path class="cls-19" d="M26.69,108.63c-1.15,1.91-3.45,2.63-5.47,3.18-.67,.17-1.35,.31-2.11,.41,.44-.63,1.03-1.1,1.64-1.48,1.2-.76,2.53-1.21,3.88-1.57,0,0,2.05-.53,2.05-.53h0Z"/>
          </g>
        </g>
        <g>
          <g>
            <path class="cls-12" d="M26.89,127.86c-.78-2.25-.07-4.61,1.04-6.6,.68-1.21,1.38-2.32,2.52-3.2,1.29-1,2.91-1.88,4.48-2.39,2.86-.93,5.76-.38,7.88,1.73,.61,.61,1.34,1.33,1.62,2.16,.18,.55-.17,1.25,.04,1.73,.1,.23,.48,.46,.64,.67,.31,.42,.57,1,.66,1.5,.17,1.02-.56,1.71-.91,2.59-.24,.6,.03,.96,.1,1.56,.06,.54-.1,1.11-.42,1.55-.62,.84-2.22,1.86-3.3,1.91-1.61,.06-3.21-.17-4.75-.58-.7-.18-1.54-.41-2.12-.87-.64-.51-.96-1.34-1.59-1.88-1.19-1.01-3.14-1.05-4.37-.09-.2,.16-.38,.33-.6,.46-.22,.12-.5,.19-.73,.09-.12-.05-.14-.24-.18-.37Z"/>
            <path class="cls-12" d="M41.78,130.76c.98,1.78,1.36,4.06,1.19,6.84-.1,1.6-1.18,3.41-2.84,3.35-.34-.01-.71-.1-1,.08-.25,.15-.36,.45-.49,.71-1.25,2.43-5.97,1.48-7.73,.1-2.12-1.66-1.74-2.58-2.14-5.24-.1-.68-.49-1.51-.13-2.16,.35-.61,.76-.82,.89-1.54,.14-.78,.22-1.59-.08-2.35-.42-1.08-1.36-1.66-2.32-2.21-.21-.12-.51-.09-.48-.48,.03-.36,.63-.76,.91-.93,1.17-.7,2.86-.94,4.19-.89,5.12,.2,8.39,1.77,10.01,4.72Z"/>
            <path class="cls-12" d="M27.2,127.61c.69,.24,1.56,.63,2.03,1.18,.68,.78,.45,1.71,.72,2.61,.15,.49,.44,.93,.56,1.43,.15,.59-.05,1.14-.09,1.73-.08,1.15-.03,2.13-.51,3.22-1.18,2.68-4.14,4.78-7.01,5.58-1.93,.54-3.73-.33-5.57-.75-1.1-.25-1.81-.42-2.56-1.33-.82-1-1.47-2.17-1.4-3.45,.04-.74-.41-.8-.88-1.32-.59-.65-.9-1.96-.66-2.8,.18-.65,.77-1.22,1.4-1.47,.19-.08,.54-.09,.71-.2,.24-.17,.26-.46,.36-.72,.38-.99,1.68-1.51,2.69-1.73,1.69-.36,3.44,.84,5.08,1.14,1.33,.24,2.42,.1,3.06-1.13,.39-.76,.64-2.14,2.06-1.99Z"/>
            <path class="cls-12" d="M27.07,127.68c0-.08,.01-.17,.01-.26,0-.96-1.09-.72-1.73-1.1-.74-.44-1.77-.89-2.24-1.62-.34-.53-.48-1.21-.55-1.82-.21-1.91-1.06-3.31-2.58-4.55-.64-.52-.97-.82-1.78-.95-.62-.1-.85-.58-1.38-.83-1.24-.59-3.45,.37-4.4,1.13-.53,.43-.69,1.11-1.18,1.54-.64,.55-1.52,.72-2.08,1.4-.93,1.13-1.25,3.19-.85,4.56,.11,.38,.35,.68,.52,1.03,.21,.43,.25,.89,.36,1.35,.24,1.03,.6,2.11,1.36,2.91,1.16,1.22,3.34,1.9,5.02,1.93,1.84,.03,3.68-.09,5.49-.34,.72-.1,1.44-.22,2.11-.49,1.09-.43,1.99-1.22,2.86-1.99,.59-.52,.98-1.13,1.06-1.89Z"/>
            <path class="cls-12" d="M27.87,127.86c-.67-1.51-.12-3.35,1.11-4.51,.64-.61,1.53-.9,2.31-1.31,.74-.38,1.41-.87,1.98-1.46,.96-.98,1.88-2.31,2.21-3.63,.45-1.79-.55-2.96-1.8-4.14-.32-.31-.61-.68-.99-.91-.37-.22-.81-.25-1.19-.45-.72-.37-.89-1.05-1.47-1.54-1.31-1.11-4.08-.23-5.44,.43-.71,.35-1.46,.2-2.18,.47-1.13,.43-1.84,1.61-2.43,2.56-.98,1.58-1.26,2.79-.63,4.52,.26,.73,.77,1.51,1.33,2.07,.52,.52,1.19,.89,1.57,1.54,.56,.96,.34,2.09,.99,3.02,1.05,1.52,1.94,3.67,4.65,3.33Z"/>
          </g>
          <g>
            <path class="cls-18" d="M20.73,136.09c-1.54,1.18-3.48,1.7-5.38,1.2,1.75-.88,3.42-1.32,5.38-1.2h0Z"/>
            <path class="cls-18" d="M18.27,135.13c-1.75,.88-3.82,.75-5.51-.22,1.93-.4,3.61-.27,5.51,.22h0Z"/>
            <path class="cls-18" d="M33.57,130.44c2.62,.92,4.62,3.5,4.99,6.24-1.65-2.14-3.19-4.18-4.99-6.24h0Z"/>
            <path class="cls-18" d="M36.6,136.19c.91,.4,1.23,1.25,.74,2.13-.84-.55-1.08-1.18-.74-2.13h0Z"/>
            <path class="cls-18" d="M43.11,122.04c-3.46,0-6.62,.97-9.96,1.66,2.77-1.99,6.69-3.05,9.96-1.66h0Z"/>
            <path class="cls-18" d="M38.54,124.18c1.07-.35,2.07,0,2.69,.94-1.14,.33-2,.02-2.69-.94h0Z"/>
            <path class="cls-18" d="M42.58,130.69c-1.11,.82-2.59,.71-3.9,.65-1.38-.13-2.65-.35-3.96-.9-1.28-.5-1.64-2.15-2.77-2.75-1.01-.56-2.39-.65-3.54-.01,.93-.97,2.55-1.28,3.89-.69,1.33,.44,1.71,2.05,2.87,2.55,1.7,.71,3.67,1.1,5.53,1.31,.66,.11,1.26,.04,1.89-.16h0Z"/>
            <path class="cls-18" d="M28.93,139.12c-.3-.97-.36-2-.65-2.94-.15-.47-.37-1.04-.15-1.76,.27-.64,.7-.98,.81-1.3,.26-.78,.36-1.81,.07-2.6-.3-.84-1.1-1.49-1.88-2.17,1.94,.49,3.38,2.19,2.93,4.32,.02,.85-.78,1.64-1.05,2.11-.14,.26-.06,.73,.02,1.23,.17,1.05,0,2.09-.11,3.12h0Z"/>
            <path class="cls-18" d="M13.73,132.13c.32-.11,.36-.4,.4-.71,.05-.32,.21-.64,.42-.9,1.34-1.55,3.65-1.77,5.45-.99,1.58,.53,3.37,1.57,4.7,.3,.39-.38,.6-1.01,1.02-1.47-.23,.57-.27,1.18-.62,1.77-.33,.59-1.03,1-1.71,1.07-2.01,.26-3.56-.9-5.36-1.18-1.25-.12-2.98,.29-3.63,1.49-.1,.29-.32,.63-.66,.63h0Z"/>
            <path class="cls-18" d="M14.88,132.35c1.76-.56,3.5-.69,5.32-.19-1.65,.88-3.64,.99-5.32,.19h0Z"/>
            <path class="cls-18" d="M25.19,126.23c-.85-.27-1.76-.5-2.44-1.36-.62-.83-.64-1.91-.81-2.65-.33-1.71-1.38-3.01-2.52-4.32,1.7,.71,3.12,2.25,3.49,4.11,.18,.97,.15,1.76,.5,2.45,.32,.65,1.12,1.16,1.78,1.77h0Z"/>
            <path class="cls-18" d="M27.58,126.48c-.21-1.22,.28-2.55,1.2-3.48,.92-.91,2.13-1.17,3.11-1.9,1.73-1.34,3.56-3.28,3.64-5.62,.76,2.47-1.17,5-3.06,6.44-1.06,.77-2.33,1.02-3.16,1.66-.85,.69-1.51,1.7-1.72,2.9h0Z"/>
            <g>
              <path class="cls-18" d="M42.58,130.69c-1.11,.82-2.59,.71-3.9,.65-1.38-.13-2.65-.35-3.96-.9-1.28-.5-1.64-2.15-2.77-2.75-1.01-.56-2.39-.65-3.54-.01,.93-.97,2.55-1.28,3.89-.69,1.33,.44,1.71,2.05,2.87,2.55,1.7,.71,3.67,1.1,5.53,1.31,.66,.11,1.26,.04,1.89-.16h0Z"/>
              <path class="cls-18" d="M28.93,139.12c-.3-.97-.36-2-.65-2.94-.15-.47-.37-1.04-.15-1.76,.27-.64,.7-.98,.81-1.3,.26-.78,.36-1.81,.07-2.6-.3-.84-1.1-1.49-1.88-2.17,1.94,.49,3.38,2.19,2.93,4.32,.02,.85-.78,1.64-1.05,2.11-.14,.26-.06,.73,.02,1.23,.17,1.05,0,2.09-.11,3.12h0Z"/>
              <path class="cls-18" d="M13.73,132.13c.32-.11,.36-.4,.4-.71,.05-.32,.21-.64,.42-.9,1.34-1.55,3.65-1.77,5.45-.99,1.58,.53,3.37,1.57,4.7,.3,.39-.38,.6-1.01,1.02-1.47-.23,.57-.27,1.18-.62,1.77-.33,.59-1.03,1-1.71,1.07-2.01,.26-3.56-.9-5.36-1.18-1.25-.12-2.98,.29-3.63,1.49-.1,.29-.32,.63-.66,.63h0Z"/>
              <path class="cls-18" d="M25.19,126.23c-.85-.27-1.76-.5-2.44-1.36-.62-.83-.64-1.91-.81-2.65-.33-1.71-1.38-3.01-2.52-4.32,1.7,.71,3.12,2.25,3.49,4.11,.18,.97,.15,1.76,.5,2.45,.32,.65,1.12,1.16,1.78,1.77h0Z"/>
              <path class="cls-18" d="M27.58,126.48c-.21-1.22,.28-2.55,1.2-3.48,.92-.91,2.13-1.17,3.11-1.9,1.73-1.34,3.56-3.28,3.64-5.62,.76,2.47-1.17,5-3.06,6.44-1.06,.77-2.33,1.02-3.16,1.66-.85,.69-1.51,1.7-1.72,2.9h0Z"/>
            </g>
            <path class="cls-18" d="M29.19,113.04c-.91,2.69-2.49,4.71-2.75,7.59-1.22-2.74,.71-5.81,2.75-7.59h0Z"/>
            <path class="cls-18" d="M25.08,113.16c.58,1.65,.48,2.99,.37,4.71-1.22-1.27-1.18-3.24-.37-4.71h0Z"/>
            <path class="cls-18" d="M10.06,125.5c2.31,.48,4.72,1.13,6.96,1.82,2.75,.72,2.75,.94-.14,.77-2.42-.34-4.87-1.05-6.81-2.59h0Z"/>
            <path class="cls-18" d="M14.76,124.78c2.05,.13,3.8,.7,5.54,1.8-2.04,.25-4.04-.41-5.54-1.8h0Z"/>
            <path class="cls-18" d="M15.32,118.53c1.19,.31,1.89,1.09,2.05,2.32-1.18-.29-1.89-1.11-2.05-2.32h0Z"/>
            <g>
              <g>
                <path class="cls-2" d="M31.9,127.28c-.11-.3-.16-.61-.07-.95,.1-.37,.32-.69,.28-1.1-.06-.53-.32-.95-.78-1.24-.37-.24-.77-.24-1.19-.36-.47-.14-.77-.41-1.08-.76-.39-.44-.76-.91-1.45-.81-.67,.09-1.1,.74-1.79,.79-1.2,.09-2.03,.13-2.42,1.45-.15,.5-.2,.69-.6,1.03-.4,.33-.64,.57-.76,1.09-.21,.85-.03,1.71,.56,2.39,.32,.36,.86,.48,1.1,.91,.24,.43,.17,1.02,.37,1.49,.25,.56,.75,.93,1.37,1.03,.29,.05,.7,.07,.97-.04,.23-.09,.38-.34,.62-.38,.18-.03,.45,.1,.63,.12,.48,.05,.96-.06,1.42-.2,.59-.17,.72-.34,1.02-.86,.18-.31,.52-.46,.83-.62,.69-.34,1.48-.61,1.45-1.5-.02-.53-.32-.99-.49-1.47Z"/>
                <g class="cls-6">
                  <g>
                    <path class="cls-7" d="M42.58,130.69c-1.11,.82-2.59,.71-3.9,.65-1.38-.13-2.65-.35-3.96-.9-1.28-.5-1.64-2.15-2.77-2.75-1.01-.56-2.39-.65-3.54-.01,.93-.97,2.55-1.28,3.89-.69,1.33,.44,1.71,2.05,2.87,2.55,1.7,.71,3.67,1.1,5.53,1.31,.66,.11,1.26,.04,1.89-.16h0Z"/>
                    <path class="cls-7" d="M28.93,139.12c-.3-.97-.36-2-.65-2.94-.15-.47-.37-1.04-.15-1.76,.27-.64,.7-.98,.81-1.3,.26-.78,.36-1.81,.07-2.6-.3-.84-1.1-1.49-1.88-2.17,1.94,.49,3.38,2.19,2.93,4.32,.02,.85-.78,1.64-1.05,2.11-.14,.26-.06,.73,.02,1.23,.17,1.05,0,2.09-.11,3.12h0Z"/>
                    <path class="cls-7" d="M13.73,132.13c.32-.11,.36-.4,.4-.71,.05-.32,.21-.64,.42-.9,1.34-1.55,3.65-1.77,5.45-.99,1.58,.53,3.37,1.57,4.7,.3,.39-.38,.6-1.01,1.02-1.47-.23,.57-.27,1.18-.62,1.77-.33,.59-1.03,1-1.71,1.07-2.01,.26-3.56-.9-5.36-1.18-1.25-.12-2.98,.29-3.63,1.49-.1,.29-.32,.63-.66,.63h0Z"/>
                    <path class="cls-7" d="M25.19,126.23c-.85-.27-1.76-.5-2.44-1.36-.62-.83-.64-1.91-.81-2.65-.33-1.71-1.38-3.01-2.52-4.32,1.7,.71,3.12,2.25,3.49,4.11,.18,.97,.15,1.76,.5,2.45,.32,.65,1.12,1.16,1.78,1.77h0Z"/>
                    <path class="cls-7" d="M27.58,126.48c-.21-1.22,.28-2.55,1.2-3.48,.92-.91,2.13-1.17,3.11-1.9,1.73-1.34,3.56-3.28,3.64-5.62,.76,2.47-1.17,5-3.06,6.44-1.06,.77-2.33,1.02-3.16,1.66-.85,.69-1.51,1.7-1.72,2.9h0Z"/>
                  </g>
                </g>
              </g>
              <g>
                <path class="cls-1" d="M29.12,125.57c-.62-.24-1.71-1.88-2.44-.88-.66-.8-1.85-.13-1.86,.82-.89-.27-1.2,1.68-.49,2.02-.37,.67,.52,2.17,1.36,1.99,.24,.66,.94,.42,1.48,.37,.94-.1,1.37-.28,1.45-1.28,.97,.19,1.48-1.36,.92-1.97,.65-.56-.08-1.19-.43-1.06Z"/>
                <g>
                  <path class="cls-5" d="M26.99,125.71c-.17,.06-.73,.39-.52,.38,.05-.04,.06-.07,.06-.04l.06,.38c-.25,.12-.67,.31-.91,.4-.07,.04-.08-.07-.16-.04-.05,.06,.02,.21,.09,.38-.17,.05-.35,.07-.55-.1-.48-.57,.32-1.31,.86-1.39,0,0-.35,.57-.35,.57-.19-.87,.95-1.25,1.41-.54h0Z"/>
                  <path class="cls-5" d="M26.42,128.79c.28-.05,.39-.13,.56-.15,.02,.02-.05,0-.16,.14-.09,.16,.09,.21,.29,.12,.19,.07,.34,.29,.11,.55-.55,.44-1.17-.12-.79-.66h0Z"/>
                  <path class="cls-5" d="M27.98,127.01c.93-.5,.76,1.14,0,.54-.32-.85-.56,.36,0-.54h0Z"/>
                </g>
              </g>
            </g>
          </g>
        </g>
        <g>
          <path class="cls-11" d="M56.14,257.92c.94-1.11,2.31-2.08,3.69-2.98-.31-2.14-.75-4.24-1.33-6.28-7.38,3.56-17.82,8.14-19.05,5.48-1.34-2.5,9.74-10.68,15.34-15.53-2.23-5.24-4.82-10.38-7.58-15.43-1.49,1.53-2.97,3.06-4.51,4.24-4.65,3.54-10.32,5.67-15.68,8.18,4.35-3.44,8.47-8.39,11.81-12.75,1.44-1.8,3.33-3.7,4.99-5.71-1.74-3.01-3.5-5.98-5.27-8.92-4.31,2.87-8.73,6.47-13.4,8.69,1.87-3.85,5.45-6.7,8.14-9.71,.96-1.25,1.72-2.6,2.67-3.76-5.49-10.92-17.05-36.33-17.05-36.33,.61,.75-6.35,14.05-9.13,20.78-1,2.47-1.93,4.93-2.81,7.41,1.79,7.53,5,15.26,8.02,21.97-3.51-2.84-7.89-8.82-10.46-14.46-.96,3.22-1.8,6.46-2.51,9.71,1.6,2.84,3.51,5.52,5.07,8.46-2.13-.83-4.21-2.57-5.86-4.6-.27,1.44-.51,2.89-.73,4.34,3.48,4.92,9.04,9.86,12.85,13.43-2.99-1-9.78-5.17-13.45-8.79-.31,2.82-.51,5.67-.61,8.52,4.24,5.08,8.66,9.82,13.93,14.06-2.64-.39-9.4-2.32-13.84-4.43,.17,3.27,.47,6.56,.95,9.88,.83,5.31,1.01,11.97,3.41,17.04,2.31,5.27,5.9,10.42,9.57,14.9,6.23,7.74,15.99,18.74,26.52,21.14l-.4-.18c5.93,.33,14.73-18.25,16.59-22.58,3.39-7.65,4.82-16.52,4.21-25.04-3.81,1.57-7.75,3.08-4.09-.75Z"/>
          <path class="cls-11" d="M63.87,249.92c2.8-3.07,20.35-4.02,22.51-4.32l4.28-5.91c-4.09,.79-27.86,5.07-31.01,1.74,1.87-2.05,17.96-5.79,22.19-6.45,4.41-.65,8.95-1.15,13.41-1.63l5.13-7.08c-4.08-.4-8.18-1.16-12.05-2.07-6.78-1.37,12.92-6.75,18.77-7.22l16.73-23.11s-25.6,8.42-32.14,11.11c-20.83,8.55-42.68,21.47-49.74,43.5-1.91,5.96-3.6,13.19-3.49,19.45,.26,8.31,4.38,23.41,14.76,23.45l27.48-37.95c-6.47-.02-13.68-.46-16.84-3.51Z"/>
          <path class="cls-10" d="M27.19,222.92c-12.72,20.72-16.83,50.55-3.3,72.04,3.28,5.26,6.94,7.13,12.6,8.88l.54-2.1c.64-13.17,3.07-26.42,6.94-39.27-.56,.21-5.78,.59-7.73,1.12-3.79,.68-8.53,2.81-12.52,3.05,5.44-5.69,14.26-7.61,22.01-9.67,1.2-3.56,2.49-7.08,3.9-10.54-3.92,.97-9.91,2.29-13.07,1.42,3.01-1.69,9.54-4.37,14.44-4.67,.81-1.89,1.64-3.76,2.51-5.61-.5,.11-.99,.22-1.44,.34-2.69,.73-7.19,2.44-10.02,1.67,3.87-2.8,8.86-4.28,13.5-6.2,.74-1.47,1.49-2.93,2.26-4.37,2.43-4.45,5.03-8.97,7.8-13.46-5.88,2.28-11.76,5.97-17.61,6.2,5.25-6.19,14.49-9.98,22.3-13.52,8.14-12.21,17.58-23.81,28.34-32.73-27.72,6.62-56.81,23.19-71.47,47.44Z"/>
          <path class="cls-8" d="M50.66,201.26c-9.1,8.57-18.17,17.8-22.99,29.52-4.77,11.64-6.91,24.22-8.7,36.62-1.06,8.34-1.12,16.8,.19,25.12-.97-4.11-1.49-8.32-1.71-12.55-.38-8.47,.64-16.95,2.19-25.25,1.44-8.33,3.34-16.69,6.77-24.47,4.98-11.84,14.51-21.03,24.25-28.99h0Z"/>
          <path class="cls-10" d="M88.84,299.82c1.42,.41,2.88,1.27,4.27,2.15,1.93-1.09,3.78-2.28,5.52-3.58-6.23-5.22-14.61-12.77-12.53-14.88,1.89-2.14,13.96,4.61,20.75,7.74,4.18-3.99,8.12-8.26,11.91-12.64-2.04-.74-4.07-1.48-5.78-2.4-5.17-2.79-9.38-7.03-13.83-10.85,4.96,2.57,11.28,4.34,16.74,5.66,2.27,.59,4.82,1.56,7.38,2.26,2.22-2.69,4.4-5.4,6.55-8.1-4.39-2.74-9.54-5.31-13.45-8.62,4.41,.2,8.5,2.3,12.42,3.54,1.57,.38,3.14,.54,4.62,.94,8.37-9.06,28.34-29.05,28.34-29.05-.48,.83-15.89-.29-23.41-.21-2.75,.05-5.47,.16-8.18,.32-6.53,4.47-12.73,10.28-18.01,15.53,1.39-4.21,5.45-10.39,9.88-14.83-3.46,.37-6.88,.86-10.27,1.46-2.11,2.51-3.95,5.23-6.18,7.75-.02-2.21,.86-4.73,2.18-6.97-1.49,.31-2.96,.65-4.44,1.01-3.39,4.98-6.01,11.81-7.98,16.57-.18-3.04,1.23-10.69,3.3-15.33-2.83,.8-5.63,1.7-8.41,2.71-3.25,5.72-6.12,11.46-8.18,17.77-.63-2.5-1.36-9.26-1.03-14.02-3.07,1.4-6.11,2.92-9.12,4.62-4.78,2.76-11.09,5.46-15.05,9.54-4.18,4.07-7.74,9.23-10.64,14.21-5.05,8.5-11.87,21.39-10.16,31.69l.02-.43c1.95,5.41,23.12,6.16,27.98,6.17,8.64,.1,17.68-2.01,25.62-5.8-2.96-2.8-5.91-5.72-.84-3.93Z"/>
          <path class="cls-8" d="M141.5,240.51c-7.54,3.26-18.49,8.31-26.07,11.81-8.6,4.16-17.46,7.77-25.76,12.38-8.3,4.67-16.67,9.28-24.69,14.39-8.03,5.11-15.65,10.91-22.09,17.97,9.02-11.25,21.32-19.3,33.64-26.51,4.14-2.41,8.24-4.79,12.42-7.16,8.46-4.55,17.31-8.19,25.99-12.11,7.7-3.3,18.74-8.03,26.55-10.77h0Z"/>
        </g>
      </g>
    </g>
  </g>
</svg>