<?xml version="1.0" encoding="UTF-8"?>
<svg id="Layer_2" data-name="Layer 2" xmlns="http://www.w3.org/2000/svg" xmlns:xlink="http://www.w3.org/1999/xlink" viewBox="0 0 226.93 242.55">
  <defs>
    <style>
      .cls-1 {
        fill: #c4464e;
      }

      .cls-2 {
        fill: #f4f3e8;
      }

      .cls-3 {
        clip-path: url(#clippath-2);
      }

      .cls-4, .cls-5 {
        fill: #1c1b18;
      }

      .cls-6 {
        opacity: .2;
      }

      .cls-7 {
        clip-path: url(#clippath-1);
      }

      .cls-5 {
        opacity: .05;
      }

      .cls-8 {
        clip-path: url(#clippath);
      }

      .cls-9 {
        fill: none;
      }

      .cls-10 {
        fill: #edc36d;
      }
    </style>
    <clipPath id="clippath">
      <rect class="cls-9" width="226.93" height="242.55"/>
    </clipPath>
    <clipPath id="clippath-1">
      <path class="cls-4" d="M160.22-56.92C74.73-56.92,5.43,10.12,5.43,92.81S74.73,242.55,160.22,242.55s154.79-67.04,154.79-149.73S245.72-56.92,160.22-56.92Zm0,242.55c-52.99,0-95.95-41.56-95.95-92.82S107.23,0,160.22,0s95.95,41.56,95.95,92.81-42.96,92.82-95.95,92.82Z"/>
    </clipPath>
    <clipPath id="clippath-2">
      <path class="cls-9" d="M154.8-71.85C69.31-71.85,0-4.81,0,77.88S69.31,227.62,154.8,227.62s154.79-67.04,154.79-149.73S240.29-71.85,154.8-71.85Zm0,242.55c-52.99,0-95.95-41.56-95.95-92.82S101.8-14.93,154.8-14.93s95.95,41.56,95.95,92.81-42.96,92.82-95.95,92.82Z"/>
    </clipPath>
  </defs>
  <g id="Layer_1-2" data-name="Layer 1">
    <g class="cls-8">
      <g>
        <g class="cls-6">
          <path class="cls-4" d="M160.22-56.92C74.73-56.92,5.43,10.12,5.43,92.81S74.73,242.55,160.22,242.55s154.79-67.04,154.79-149.73S245.72-56.92,160.22-56.92Zm0,242.55c-52.99,0-95.95-41.56-95.95-92.82S107.23,0,160.22,0s95.95,41.56,95.95,92.81-42.96,92.82-95.95,92.82Z"/>
          <g>
            <g>
              <path class="cls-4" d="M160.22-56.92C74.73-56.92,5.43,10.12,5.43,92.81S74.73,242.55,160.22,242.55s154.79-67.04,154.79-149.73S245.72-56.92,160.22-56.92Zm0,242.55c-52.99,0-95.95-41.56-95.95-92.82S107.23,0,160.22,0s95.95,41.56,95.95,92.81-42.96,92.82-95.95,92.82Z"/>
              <g class="cls-7">
                <g>
                  <g>
                    <polygon class="cls-4" points="71.66 -78.51 137.18 24.56 183.26 24.56 248.78 -78.51 71.66 -78.51"/>
                    <polygon class="cls-4" points="248.78 264.14 183.26 161.06 137.18 161.06 71.66 264.14 248.78 264.14"/>
                  </g>
                  <polygon class="cls-4" points="-16.89 178.48 89.66 115.1 89.66 70.53 -16.89 7.15 -16.89 178.48"/>
                </g>
              </g>
            </g>
            <path class="cls-5" d="M160.22-21.33c-65.17,0-118,51.11-118,114.15s52.83,114.15,118,114.15,118.01-51.11,118.01-114.15S225.4-21.33,160.22-21.33Zm0,206.97c-52.99,0-95.95-41.56-95.95-92.82S107.23,0,160.22,0s95.95,41.56,95.95,92.81-42.96,92.82-95.95,92.82Z"/>
          </g>
        </g>
        <g>
          <path class="cls-2" d="M154.8-71.85C69.31-71.85,0-4.81,0,77.88S69.31,227.62,154.8,227.62s154.79-67.04,154.79-149.73S240.29-71.85,154.8-71.85Zm0,242.55c-52.99,0-95.95-41.56-95.95-92.82S101.8-14.93,154.8-14.93s95.95,41.56,95.95,92.81-42.96,92.82-95.95,92.82Z"/>
          <g>
            <g class="cls-3">
              <g>
                <g>
                  <polygon class="cls-10" points="66.24 -93.44 131.76 9.63 177.84 9.63 243.35 -93.44 66.24 -93.44"/>
                  <polygon class="cls-10" points="243.35 249.21 177.84 146.13 131.76 146.13 66.24 249.21 243.35 249.21"/>
                </g>
                <g>
                  <polygon class="cls-1" points="331.91 -7.78 225.35 55.6 225.35 100.17 331.91 163.55 331.91 -7.78"/>
                  <polygon class="cls-10" points="-22.32 163.55 84.23 100.17 84.23 55.6 -22.32 -7.78 -22.32 163.55"/>
                </g>
              </g>
            </g>
            <path class="cls-5" d="M154.8-36.26c-65.17,0-118,51.11-118,114.15s52.83,114.15,118,114.15,118.01-51.11,118.01-114.15-52.83-114.15-118.01-114.15Zm0,206.96c-52.99,0-95.95-41.56-95.95-92.82S101.8-14.93,154.8-14.93s95.95,41.56,95.95,92.81-42.96,92.82-95.95,92.82Z"/>
          </g>
        </g>
      </g>
    </g>
  </g>
</svg>