<?xml version="1.0" encoding="UTF-8"?>
<svg id="Layer_2" data-name="Layer 2" xmlns="http://www.w3.org/2000/svg" xmlns:xlink="http://www.w3.org/1999/xlink" viewBox="0 0 941 1080" >
  <defs>
    <style>
      .cls-1, .cls-2 {
        fill: #fff;
      }

      .cls-3 {
        fill: #5bc2b2;
      }

      .cls-4 {
        clip-path: url(#clippath-2);
      }

      .cls-5 {
        clip-path: url(#clippath-1);
      }

      .cls-6 {
        clip-path: url(#clippath-4);
      }

      .cls-2 {
        filter: url(#drop-shadow-1);
      }

      .cls-7 {
        clip-path: url(#clippath);
      }

      .cls-8 {
        fill: none;
      }

      .cls-9 {
        fill: #73c8b8;
      }

      .cls-10 {
        clip-path: url(#clippath-3);
      }

      .cls-11 {
        clip-path: url(#clippath-5);
      }
    </style>
    <clipPath id="clippath">
      <rect class="cls-8" width="941" height="1080"/>
    </clipPath>
    <clipPath id="clippath-1">
      <path class="cls-8" d="M-.59,907.72c30.24-1.64,60.81,3.71,88.77,16.26,41.09,18.45,75.3,61.94,112.72,87.89,37.43,25.95,82.01,35.05,125.61,25.39,28.12-6.23,66.03-54.44,94.47-58.65,58.26-8.62,97.76,72.75,156.46,76.51,50.45,3.23,96.77-29.08,135.01-64.67,38.24-35.59,63.5-87.97,110.17-108.84,35.01-15.65,84.91-9.3,118.89,14.39V-.15H-.59V907.72Z"/>
    </clipPath>
    <clipPath id="clippath-2">
      <rect class="cls-8" x="762.42" y="-540.87" width="978.93" height="1024.09"/>
    </clipPath>
    <clipPath id="clippath-3">
      <rect class="cls-8" x="762.42" y="483.21" width="978.93" height="1024.09"/>
    </clipPath>
    <clipPath id="clippath-4">
      <rect class="cls-8" x="-216.5" y="-540.87" width="978.93" height="1024.09"/>
    </clipPath>
    <clipPath id="clippath-5">
      <rect class="cls-8" x="-216.5" y="483.21" width="978.93" height="1024.09"/>
    </clipPath>
    <filter id="drop-shadow-1" filterUnits="userSpaceOnUse">
      <feOffset dx="5.67" dy="5.67"/>
      <feGaussianBlur result="blur" stdDeviation="0"/>
      <feFlood flood-color="#231f20" flood-opacity=".25"/>
      <feComposite in2="blur" operator="in"/>
      <feComposite in="SourceGraphic"/>
    </filter>
  </defs>
  <g id="Layer_1-2" data-name="Layer 1">
    <g class="cls-7">
      <g>
        <g>
          <path class="cls-9" d="M-.59,907.72c30.24-1.64,60.81,3.71,88.77,16.26,41.09,18.45,75.3,61.94,112.72,87.89,37.43,25.95,82.01,35.05,125.61,25.39,28.12-6.23,66.03-54.44,94.47-58.65,58.26-8.62,97.76,72.75,156.46,76.51,50.45,3.23,96.77-29.08,135.01-64.67,38.24-35.59,63.5-87.97,110.17-108.84,35.01-15.65,84.91-9.3,118.89,14.39V-.15H-.59V907.72Z"/>
          <g class="cls-5">
            <g class="cls-4">
              <g>
                <path class="cls-3" d="M953.32,357.37s-40.09,11.94-42.28,23.38c-2.19,11.45,18.83,44.25,21.48,55.59,4.8,20.5,13.81,47.21,30.35,58.6,21.63,14.89,49.7,10.8,74.91,5.58,19.83-4.11,42.23-16.78,51.76-35.97,6.73-13.56,4.93-30.21,.78-44.92-8.35-29.61-26.75-57.12-53.14-69.34-26.39-12.22-83.86,7.09-83.86,7.09Z"/>
                <path class="cls-3" d="M885.7,348.83c3.7-10.37-10.74-18.77-12.2-22.75-5.87-15.97-14.35-30.81-24.95-43.64-7.98-9.66-17.32-18.3-28.34-23.41-11.02-5.11-23.89-6.42-35.05-1.65-11.16,4.77-20.09,16.19-20.84,29.09-.64,11.02-3.55,28.28-.59,42.82,2.96,14.54,18.68,27.03,28.3,30.85,20.69,8.22,89.96-.93,93.66-11.3Z"/>
                <path class="cls-3" d="M930.99,488.62c13.8-13.07-35.71-86.68-40.53-111.02-4.48-8.44-13.99-12.58-23.02-12.71-9.02-.13-17.77,3.08-26.3,6.25-13.1,4.87-26.21,9.74-39.31,14.61-5.76,2.14-11.73,4.42-16.06,9.03-8.86,9.43-7.96,24.84-6.44,38.16,1.49,13.04,3.98,27.84,14.35,34.76,6.08,4.06,50.01,11.41,57.16,11.64,25.42,.84,66.34,22.35,80.14,9.28Z"/>
                <path class="cls-3" d="M901.32,346.3c9.63,5.5,21.36,1.09,31.44-3.36,32.76-14.48,109.16,.93,118.75-9.56,9.59-10.49-18.69-76.92-22.11-98.16-1.54-9.55-4.18-19.75-11.37-25.57-8.41-6.81-20.15-5.39-30.43-2.96-26.27,6.21-52.21,17.45-71.78,37.32-19.58,19.87-31.94,49.39-27.74,78.01,1.41,9.62,5.25,19.73,13.24,24.29Z"/>
                <path class="cls-3" d="M813.18,486.98c-1.86-2.9-5.11-4.29-8.17-5.52-5.19-2.09-10.38-4.18-15.56-6.27-5.21-2.1-10.53-4.22-16.09-4.44-8.51-.34-16.57,3.78-24.22,7.81-15,7.89-45.83,13.67-43.32,26.34,3.33,8.51,11.43,13.6,19.36,17.11,7.93,3.51,16.46,6.19,22.89,12.3,4.06,3.85,7.01,8.82,10.18,13.54,3.17,4.72,6.73,9.36,11.5,12.09,4.77,2.73,11.03,3.16,15.35-.35,4.59-3.73,5.73-10.48,7.09-16.5,2.84-12.55,8.08-24.45,15.31-34.76,2.23-3.17,4.67-6.25,6.1-9.92,1.43-3.67,1.68-8.15-.42-11.43Z"/>
              </g>
              <path class="cls-3" d="M752.45,355.99c-11.59-12.14-29.66-13.85-45.58-10.88-46.98,8.74-85.41,55.49-87.79,106.79-.73,15.18,15.36,28.56,28.73,33.43,13.36,4.87,27.91,3.32,41.94,1.71,15.9-1.82,32.63-3.98,45.5-14.21,15.2-12.08,21.85-32.88,26.04-52.73,4.65-22.06,6.23-48.35-8.82-64.11Z"/>
              <g>
                <path class="cls-3" d="M832.56-14.86s-20.22,7.93-35.48,13.03c-15.26,5.11-30.65,11.19-42.9,22.24-12.25,11.05-32.03,28.32-29.97,45.39,2.05,16.99,25.48,30.71,39.85,38.06,14.37,7.35,30.6,9.1,46.48,9.98,14.74,.81,94.14-9.54,99.93-22.73,4.1-9.36-35.15-61.35-41.56-80.93-2.27-6.92-2.08-27.82-6.55-33.36-4.47-5.54-29.79,8.3-29.79,8.3Z"/>
                <path class="cls-3" d="M969.01,22.63c-19.53-11.87-74.95-45.88-86.66-30.02-11.71,15.86,24.7,57.06,33.4,71.79,6.55,11.09,14.63,21.4,24.92,28.46,10.29,7.06,23.02,10.62,34.93,7.79,11.92-2.83,22.61-12.73,25.31-25.56,2.3-10.95-1.32-22.64-7.66-31.55-6.34-8.91-15.16-15.4-24.24-20.91Z"/>
                <path class="cls-3" d="M716.37,91.41c-16.1-5.15-37.88,61.75-50.06,90.38-4.06,9.53-7.29,21.23-1.99,30.02,6.62,10.97,21.33,10.07,33.34,12.01,12.53,2.03,24.04,8.4,35.48,14.27,11.44,5.87,23.47,11.42,36.14,11.62,12.67,.2,26.23-6.19,31.51-18.61,5.09-11.94,1.51-26.02-3.42-38.04-15.34-37.42-46.57-84.44-81.02-101.65Z"/>
                <path class="cls-3" d="M851.46,142.61c-9.66,.83-46.16-17.92-57.2-1.17-11.04,16.75,29.09,81.96,40.3,102.6,4.59,8.46,21.17,31.91,29.22,35.41,10.89,4.74,16.3-11.31,26.18-18.43,13.23-9.55,21.01-25.49,32.78-37.34,8.17-8.22,16.21-17.42,19.86-29.25,7.24-23.5,2.73-66.83-8.8-87.88-6.35-8.44-57.84,33.98-82.34,36.08Z"/>
              </g>
            </g>
            <g class="cls-10">
              <g>
                <path class="cls-3" d="M708.59,869.41s-40.09,11.94-42.28,23.38c-2.19,11.45,18.83,44.25,21.48,55.59,4.8,20.5,13.81,47.21,30.35,58.6,21.63,14.89,49.7,10.8,74.91,5.58,19.83-4.11,42.23-16.78,51.76-35.97,6.73-13.56,4.93-30.21,.78-44.92-8.35-29.61-26.75-57.12-53.14-69.34-26.39-12.22-83.86,7.09-83.86,7.09Z"/>
                <path class="cls-3" d="M832.56,1009.23s-20.22,7.93-35.48,13.03c-15.26,5.11-30.65,11.19-42.9,22.24-12.25,11.05-32.03,28.32-29.97,45.39,2.05,16.99,25.48,30.71,39.85,38.06,14.37,7.35,30.6,9.1,46.48,9.98,14.74,.81,94.14-9.54,99.93-22.73,4.1-9.36-35.15-61.35-41.56-80.93-2.27-6.92-2.08-27.82-6.55-33.36-4.47-5.54-29.79,8.3-29.79,8.3Z"/>
                <path class="cls-3" d="M997.18,868.03c-11.59-12.14-29.66-13.85-45.58-10.88-46.98,8.74-85.41,55.49-87.79,106.79-.73,15.18,15.36,28.56,28.73,33.43,13.36,4.87,27.91,3.32,41.94,1.71,15.9-1.82,32.63-3.98,45.5-14.21,15.2-12.08,21.85-32.88,26.04-52.73,4.65-22.06,6.23-48.35-8.82-64.11Z"/>
                <path class="cls-3" d="M858.59,911.42c16.73,0,45.69-69.63,53.23-95.13,7.62-25.76,.53-55.88-17.57-74.61-8.49-8.79-20.46-15.33-31.87-12.15-6.88,1.92-12.54,7.07-17.8,12.21-9.5,9.29-18.79,19.38-24.04,32-7.22,17.32-5.95,37.64-.3,55.62,5.65,17.98,21.61,82.07,38.34,82.08Z"/>
                <path class="cls-3" d="M969.01,1046.72c-19.53-11.87-74.95-45.88-86.66-30.02-11.71,15.86,24.7,57.06,33.4,71.79,6.55,11.09,14.63,21.4,24.92,28.46,10.29,7.06,23.02,10.62,34.93,7.79,11.92-2.83,22.61-12.73,25.31-25.56,2.3-10.95-1.32-22.64-7.66-31.55-6.34-8.91-15.16-15.4-24.24-20.91Z"/>
                <path class="cls-3" d="M656.59,858.34c9.63,5.5,21.36,1.09,31.44-3.36,32.76-14.48,109.16,.93,118.75-9.56,9.59-10.49-18.69-76.92-22.11-98.16-1.54-9.55-4.18-19.75-11.37-25.57-8.41-6.81-20.15-5.39-30.43-2.96-26.27,6.21-52.21,17.45-71.78,37.32-19.58,19.87-31.94,49.39-27.74,78.01,1.41,9.62,5.25,19.73,13.24,24.29Z"/>
                <path class="cls-3" d="M1000.24,780.08c-2.3-5.8-6.95-10.23-12.11-13.22-5.16-2.98-10.87-4.67-16.52-6.33-7.75-2.28-15.62-4.58-23.65-4.59-8.04,0-16.4,2.56-22.01,8.76-4.12,5.11-.22,29.77-2.81,41.62-2.59,11.85-6.3,23.4-8.7,35.3-.76,3.78-.85,8.8,2.45,10.35,1.29,.61,2.76,.45,4.16,.28,20.95-2.54,41.9-5.08,62.85-7.63,4.92-.6,10.44-1.56,13.28-5.93,3.14-4.82,1.52-11.33,1.24-17.2-.67-13.98,6.92-28.54,1.81-41.41Z"/>
              </g>
              <g>
                <path class="cls-3" d="M953.32,357.37s-40.09,11.94-42.28,23.38c-2.19,11.45,18.83,44.25,21.48,55.59,4.8,20.5,13.81,47.21,30.35,58.6,21.63,14.89,49.7,10.8,74.91,5.58,19.83-4.11,42.23-16.78,51.76-35.97,6.73-13.56,4.93-30.21,.78-44.92-8.35-29.61-26.75-57.12-53.14-69.34-26.39-12.22-83.86,7.09-83.86,7.09Z"/>
                <path class="cls-3" d="M942.42,584.29c10.74-19.87,31.23-56.02,24.96-66.83s-49.81-13.41-68.94-18.58c-19.13-5.17-39.83-5.92-58.21,1.81-18.37,7.74-33.93,24.96-37.22,45.92-4.77,30.34,16.31,58.86,40.46,75.29,14.41,9.8,31.54,17.14,48.26,13.62,23.48-4.93,38.65-28.95,50.69-51.22Z"/>
                <path class="cls-3" d="M930.99,488.62c13.8-13.07-35.71-86.68-40.53-111.02-4.48-8.44-13.99-12.58-23.02-12.71-9.02-.13-17.77,3.08-26.3,6.25-13.1,4.87-26.21,9.74-39.31,14.61-5.76,2.14-11.73,4.42-16.06,9.03-8.86,9.43-7.96,24.84-6.44,38.16,1.49,13.04,3.98,27.84,14.35,34.76,6.08,4.06,50.01,11.41,57.16,11.64,25.42,.84,66.34,22.35,80.14,9.28Z"/>
                <path class="cls-3" d="M961.1,603.45c-16.1-5.15-37.88,61.75-50.06,90.38-4.06,9.53-7.29,21.23-1.99,30.02,6.62,10.97,21.33,10.07,33.34,12.01,12.53,2.03,24.04,8.4,35.48,14.27,11.44,5.87,23.47,11.42,36.14,11.62,12.67,.2,26.23-6.19,31.51-18.61,5.09-11.94,1.51-26.02-3.42-38.04-15.34-37.42-46.57-84.44-81.02-101.65Z"/>
                <path class="cls-3" d="M894.9,662.7c-3.13-6.55-10.64-8.74-17.22-10.72-12.95-3.89-25.44-9.52-37.11-16.71-11.68-7.2-12.64-10.04-25.85-12.78-12.49-2.59-14.36-42.01-34.44-42.18-20.08-.17-15.81,33.38-55.17,50.92-5.5,2.22-9.78,2.91-11.75,7.53-2.09,8.89,2.88,24.03,5.52,33.03,2.64,9,7.28,17.61,14.4,23.11,10.06,7.78,23.38,8.35,34.72,13.72,9.43,4.47,17.2,12.11,25.69,18.4,8.49,6.29,18.59,11.44,28.77,9.78,8.84-1.44,16.24-7.71,23.19-13.76,12.26-10.68,24.53-21.36,36.79-32.03,4.1-3.57,8.28-7.24,11.03-12.08,2.75-4.84,3.85-11.17,1.44-16.22Z"/>
                <path class="cls-3" d="M813.18,486.98c-1.86-2.9-5.11-4.29-8.17-5.52-5.19-2.09-10.38-4.18-15.56-6.27-5.21-2.1-10.53-4.22-16.09-4.44-8.51-.34-16.57,3.78-24.22,7.81-15,7.89-45.83,13.67-43.32,26.34,3.33,8.51,11.43,13.6,19.36,17.11,7.93,3.51,16.46,6.19,22.89,12.3,4.06,3.85,7.01,8.82,10.18,13.54,3.17,4.72,6.73,9.36,11.5,12.09,4.77,2.73,11.03,3.16,15.35-.35,4.59-3.73,5.73-10.48,7.09-16.5,2.84-12.55,8.08-24.45,15.31-34.76,2.23-3.17,4.67-6.25,6.1-9.92,1.43-3.67,1.68-8.15-.42-11.43Z"/>
              </g>
              <path class="cls-3" d="M752.45,355.99c-11.59-12.14-29.66-13.85-45.58-10.88-46.98,8.74-85.41,55.49-87.79,106.79-.73,15.18,15.36,28.56,28.73,33.43,13.36,4.87,27.91,3.32,41.94,1.71,15.9-1.82,32.63-3.98,45.5-14.21,15.2-12.08,21.85-32.88,26.04-52.73,4.65-22.06,6.23-48.35-8.82-64.11Z"/>
            </g>
            <g class="cls-6">
              <path class="cls-3" d="M813.18,486.98c-1.86-2.9-5.11-4.29-8.17-5.52-5.19-2.09-10.38-4.18-15.56-6.27-5.21-2.1-10.53-4.22-16.09-4.44-8.51-.34-16.57,3.78-24.22,7.81-15,7.89-45.83,13.67-43.32,26.34,3.33,8.51,11.43,13.6,19.36,17.11,7.93,3.51,16.46,6.19,22.89,12.3,4.06,3.85,7.01,8.82,10.18,13.54,3.17,4.72,6.73,9.36,11.5,12.09,4.77,2.73,11.03,3.16,15.35-.35,4.59-3.73,5.73-10.48,7.09-16.5,2.84-12.55,8.08-24.45,15.31-34.76,2.23-3.17,4.67-6.25,6.1-9.92,1.43-3.67,1.68-8.15-.42-11.43Z"/>
              <g>
                <path class="cls-3" d="M463.86,357.37s-40.09,11.94-42.28,23.38c-2.19,11.45,18.83,44.25,21.48,55.59,4.8,20.5,13.81,47.21,30.35,58.6,21.63,14.89,49.7,10.8,74.91,5.58,19.83-4.11,42.23-16.78,51.76-35.97,6.73-13.56,4.93-30.21,.78-44.92-8.35-29.61-26.75-57.12-53.14-69.34s-83.86,7.09-83.86,7.09Z"/>
                <path class="cls-3" d="M752.45,355.99c-11.59-12.14-29.66-13.85-45.58-10.88-46.98,8.74-85.41,55.49-87.79,106.79-.73,15.18,15.36,28.56,28.73,33.43,13.36,4.87,27.91,3.32,41.94,1.71,15.9-1.82,32.63-3.98,45.5-14.21,15.2-12.08,21.85-32.88,26.04-52.73,4.65-22.06,6.23-48.35-8.82-64.11Z"/>
                <path class="cls-3" d="M613.86,399.38c16.73,0,45.69-69.63,53.23-95.13,7.62-25.76,.53-55.88-17.57-74.61-8.49-8.79-20.46-15.33-31.87-12.15-6.88,1.92-12.54,7.07-17.8,12.21-9.5,9.29-18.79,19.38-24.04,32-7.22,17.32-5.95,37.64-.3,55.62,5.65,17.98,21.61,82.07,38.34,82.08Z"/>
                <path class="cls-3" d="M396.23,348.83c3.7-10.37-10.74-18.77-12.2-22.75-5.87-15.97-14.35-30.81-24.95-43.64-7.98-9.66-17.32-18.3-28.34-23.41-11.02-5.11-23.89-6.42-35.05-1.65-11.16,4.77-20.09,16.19-20.84,29.09-.64,11.02-3.55,28.28-.59,42.82,2.96,14.54,18.68,27.03,28.3,30.85,20.69,8.22,89.96-.93,93.66-11.3Z"/>
                <path class="cls-3" d="M441.52,488.62c13.8-13.07-35.71-86.68-40.53-111.02-4.48-8.44-13.99-12.58-23.02-12.71-9.02-.13-17.77,3.08-26.3,6.25-13.1,4.87-26.21,9.74-39.31,14.61-5.76,2.14-11.73,4.42-16.06,9.03-8.86,9.43-7.96,24.84-6.44,38.16,1.49,13.04,3.98,27.84,14.35,34.76,6.08,4.06,50.01,11.41,57.16,11.64,25.42,.84,66.34,22.35,80.14,9.28Z"/>
                <path class="cls-3" d="M411.86,346.3c9.63,5.5,21.36,1.09,31.44-3.36,32.76-14.48,109.16,.93,118.75-9.56,9.59-10.49-18.69-76.92-22.11-98.16-1.54-9.55-4.18-19.75-11.37-25.57-8.41-6.81-20.15-5.39-30.43-2.96-26.27,6.21-52.21,17.45-71.78,37.32-19.58,19.87-31.94,49.39-27.74,78.01,1.41,9.62,5.25,19.73,13.24,24.29Z"/>
                <path class="cls-3" d="M323.72,486.98c-1.86-2.9-5.11-4.29-8.17-5.52-5.19-2.09-10.38-4.18-15.56-6.27-5.21-2.1-10.53-4.22-16.09-4.44-8.51-.34-16.57,3.78-24.22,7.81-15,7.89-45.83,13.67-43.32,26.34,3.33,8.51,11.43,13.6,19.36,17.11,7.93,3.51,16.45,6.19,22.89,12.3,4.06,3.85,7.01,8.82,10.18,13.54s6.73,9.36,11.5,12.09c4.77,2.73,11.03,3.16,15.35-.35,4.59-3.73,5.73-10.48,7.09-16.5,2.84-12.55,8.08-24.45,15.31-34.76,2.23-3.17,4.67-6.25,6.1-9.92,1.43-3.67,1.68-8.15-.42-11.43Z"/>
                <path class="cls-3" d="M755.51,268.04c-2.3-5.8-6.95-10.23-12.11-13.22-5.16-2.98-10.87-4.67-16.52-6.33-7.75-2.28-15.62-4.58-23.65-4.59-8.04,0-16.4,2.56-22.01,8.76-4.12,5.11-.22,29.77-2.81,41.62-2.59,11.85-6.3,23.4-8.7,35.3-.76,3.78-.85,8.8,2.45,10.35,1.29,.61,2.76,.45,4.16,.28,20.95-2.54,41.9-5.08,62.85-7.63,4.92-.6,10.44-1.56,13.28-5.93,3.14-4.82,1.52-11.33,1.24-17.2-.67-13.98,6.92-28.54,1.81-41.41Z"/>
              </g>
              <g>
                <path class="cls-3" d="M-25.61,357.37s-40.09,11.94-42.28,23.38c-2.19,11.45,18.83,44.25,21.48,55.59,4.8,20.5,13.81,47.21,30.35,58.6,21.63,14.89,49.7,10.8,74.91,5.58,19.83-4.11,42.23-16.78,51.76-35.97,6.73-13.56,4.93-30.21,.78-44.92-8.35-29.61-26.75-57.12-53.14-69.34-26.39-12.22-83.86,7.09-83.86,7.09Z"/>
                <path class="cls-3" d="M262.99,355.99c-11.59-12.14-29.66-13.85-45.58-10.88-46.98,8.74-85.41,55.49-87.79,106.79-.73,15.18,15.36,28.56,28.73,33.43,13.36,4.87,27.91,3.32,41.94,1.71,15.9-1.82,32.63-3.98,45.5-14.21,15.2-12.08,21.85-32.88,26.04-52.73,4.65-22.06,6.23-48.35-8.82-64.11Z"/>
                <path class="cls-3" d="M124.4,399.38c16.73,0,45.69-69.63,53.23-95.13,7.62-25.76,.53-55.88-17.57-74.61-8.49-8.79-20.46-15.33-31.87-12.15-6.88,1.92-12.54,7.07-17.8,12.21-9.5,9.29-18.79,19.38-24.04,32-7.22,17.32-5.95,37.64-.3,55.62,5.65,17.98,21.61,82.07,38.34,82.08Z"/>
                <path class="cls-3" d="M-77.6,346.3c9.63,5.5,21.36,1.09,31.44-3.36,32.76-14.48,109.16,.93,118.75-9.56,9.59-10.49-18.69-76.92-22.11-98.16-1.54-9.55-4.18-19.75-11.37-25.57-8.41-6.81-20.15-5.39-30.43-2.96-26.27,6.21-52.21,17.45-71.78,37.32-19.58,19.87-31.94,49.39-27.74,78.01,1.41,9.62,5.25,19.73,13.24,24.29Z"/>
                <path class="cls-3" d="M266.04,268.04c-2.3-5.8-6.95-10.23-12.11-13.22-5.16-2.98-10.87-4.67-16.52-6.33-7.75-2.28-15.62-4.58-23.65-4.59s-16.4,2.56-22.01,8.76c-4.12,5.11-.22,29.77-2.81,41.62-2.59,11.85-6.3,23.4-8.7,35.3-.76,3.78-.85,8.8,2.45,10.35,1.29,.61,2.76,.45,4.16,.28,20.95-2.54,41.9-5.08,62.85-7.63,4.92-.6,10.44-1.56,13.28-5.93,3.14-4.82,1.52-11.33,1.24-17.2-.67-13.98,6.92-28.54,1.81-41.41Z"/>
              </g>
              <g>
                <path class="cls-3" d="M832.56-14.86s-20.22,7.93-35.48,13.03c-15.26,5.11-30.65,11.19-42.9,22.24-12.25,11.05-32.03,28.32-29.97,45.39,2.05,16.99,25.48,30.71,39.85,38.06,14.37,7.35,30.6,9.1,46.48,9.98,14.74,.81,94.14-9.54,99.93-22.73,4.1-9.36-35.15-61.35-41.56-80.93-2.27-6.92-2.08-27.82-6.55-33.36-4.47-5.54-29.79,8.3-29.79,8.3Z"/>
                <path class="cls-3" d="M697.69,72.25c10.74-19.87,31.23-56.02,24.96-66.83-6.27-10.82-49.81-13.41-68.94-18.58-19.13-5.17-39.83-5.92-58.21,1.81-18.37,7.74-33.93,24.96-37.22,45.92-4.77,30.34,16.31,58.86,40.46,75.29,14.41,9.8,31.54,17.14,48.26,13.62,23.48-4.93,38.65-28.95,50.69-51.22Z"/>
                <path class="cls-3" d="M716.37,91.41c-16.1-5.15-37.88,61.75-50.06,90.38-4.06,9.53-7.29,21.23-1.99,30.02,6.62,10.97,21.33,10.07,33.34,12.01,12.53,2.03,24.04,8.4,35.48,14.27,11.44,5.87,23.47,11.42,36.14,11.62,12.67,.2,26.23-6.19,31.51-18.61,5.09-11.94,1.51-26.02-3.42-38.04-15.34-37.42-46.57-84.44-81.02-101.65Z"/>
                <path class="cls-3" d="M650.17,150.65c-3.13-6.55-10.64-8.74-17.22-10.72-12.95-3.89-25.44-9.52-37.11-16.71-11.68-7.2-12.64-10.04-25.85-12.78-12.49-2.59-14.36-42.01-34.44-42.18-20.08-.17-15.81,33.38-55.17,50.92-5.51,2.22-9.78,2.91-11.75,7.53-2.09,8.89,2.88,24.03,5.52,33.03,2.64,9,7.28,17.61,14.4,23.11,10.06,7.78,23.38,8.35,34.72,13.72,9.43,4.47,17.2,12.11,25.69,18.4,8.49,6.29,18.58,11.44,28.77,9.78,8.84-1.44,16.24-7.71,23.19-13.76,12.26-10.68,24.53-21.36,36.79-32.03,4.1-3.57,8.28-7.24,11.03-12.08,2.75-4.84,3.85-11.17,1.44-16.22Z"/>
                <path class="cls-3" d="M568.45-25.06c-1.86-2.9-5.11-4.29-8.17-5.52-5.19-2.09-10.38-4.18-15.56-6.27-5.21-2.1-10.53-4.22-16.09-4.44-8.51-.34-16.57,3.78-24.22,7.81-15,7.89-45.83,13.67-43.32,26.34,3.33,8.51,11.43,13.6,19.36,17.11,7.93,3.51,16.45,6.19,22.89,12.3,4.06,3.85,7.01,8.82,10.18,13.54,3.17,4.72,6.73,9.36,11.5,12.09,4.77,2.73,11.03,3.16,15.35-.35,4.59-3.73,5.73-10.48,7.09-16.5,2.84-12.55,8.08-24.45,15.31-34.76,2.23-3.17,4.67-6.25,6.1-9.92,1.43-3.67,1.68-8.15-.42-11.43Z"/>
              </g>
              <g>
                <path class="cls-3" d="M343.09-14.86s-20.22,7.93-35.48,13.03c-15.26,5.11-30.65,11.19-42.9,22.24-12.25,11.05-32.03,28.32-29.97,45.39,2.05,16.99,25.48,30.71,39.85,38.06,14.37,7.35,30.6,9.1,46.48,9.98,14.74,.81,94.14-9.54,99.93-22.73,4.1-9.36-35.15-61.35-41.56-80.93-2.27-6.92-2.08-27.82-6.55-33.36-4.47-5.54-29.79,8.3-29.79,8.3Z"/>
                <path class="cls-3" d="M479.55,22.63c-19.53-11.87-74.95-45.88-86.66-30.02-11.71,15.86,24.7,57.06,33.4,71.79,6.55,11.09,14.63,21.4,24.92,28.46,10.29,7.06,23.02,10.62,34.93,7.79,11.92-2.83,22.61-12.73,25.31-25.56,2.3-10.95-1.32-22.64-7.66-31.55-6.34-8.91-15.16-15.4-24.24-20.91Z"/>
                <path class="cls-3" d="M208.22,72.25c10.74-19.87,31.23-56.02,24.96-66.83-6.27-10.82-49.81-13.41-68.94-18.58-19.13-5.17-39.83-5.92-58.21,1.81-18.37,7.74-33.93,24.96-37.22,45.92-4.77,30.34,16.31,58.86,40.46,75.29,14.41,9.8,31.54,17.14,48.26,13.62,23.48-4.93,38.65-28.95,50.69-51.22Z"/>
                <path class="cls-3" d="M226.91,91.41c-16.1-5.15-37.88,61.75-50.06,90.38-4.06,9.53-7.29,21.23-1.99,30.02,6.62,10.97,21.33,10.07,33.34,12.01,12.53,2.03,24.04,8.4,35.48,14.27,11.44,5.87,23.47,11.42,36.14,11.62,12.67,.2,26.23-6.19,31.51-18.61,5.09-11.94,1.51-26.02-3.42-38.04-15.34-37.42-46.57-84.44-81.02-101.65Z"/>
                <path class="cls-3" d="M362,142.61c-9.66,.83-46.16-17.92-57.2-1.17s29.09,81.96,40.3,102.6c4.59,8.46,21.17,31.91,29.22,35.41,10.89,4.74,16.3-11.31,26.18-18.43,13.23-9.55,21.01-25.49,32.78-37.34,8.17-8.22,16.21-17.42,19.86-29.25,7.24-23.5,2.73-66.83-8.8-87.88-6.35-8.44-57.84,33.98-82.34,36.08Z"/>
                <path class="cls-3" d="M160.71,150.65c-3.13-6.55-10.64-8.74-17.22-10.72-12.95-3.89-25.44-9.52-37.11-16.71-11.68-7.2-12.64-10.04-25.85-12.78-12.49-2.59-14.36-42.01-34.44-42.18-20.08-.17-15.81,33.38-55.17,50.92-5.5,2.22-9.78,2.91-11.75,7.53-2.09,8.89,2.88,24.03,5.52,33.03,2.64,9,7.28,17.61,14.4,23.11,10.06,7.78,23.38,8.35,34.72,13.72,9.43,4.47,17.2,12.11,25.69,18.4,8.49,6.29,18.58,11.44,28.77,9.78,8.84-1.44,16.24-7.71,23.19-13.76,12.26-10.68,24.53-21.36,36.79-32.03,4.1-3.57,8.28-7.24,11.03-12.08,2.75-4.84,3.85-11.17,1.44-16.22Z"/>
                <path class="cls-3" d="M78.99-25.06c-1.86-2.9-5.11-4.29-8.17-5.52-5.19-2.09-10.38-4.18-15.56-6.27-5.21-2.1-10.53-4.22-16.09-4.44-8.51-.34-16.57,3.78-24.22,7.81C-.06-25.6-30.89-19.82-28.38-7.15-25.05,1.36-16.94,6.46-9.01,9.96-1.08,13.47,7.44,16.16,13.87,22.26c4.06,3.85,7.01,8.82,10.18,13.54s6.73,9.36,11.5,12.09c4.77,2.73,11.03,3.16,15.35-.35,4.59-3.73,5.73-10.48,7.09-16.5,2.84-12.55,8.08-24.45,15.31-34.76,2.23-3.17,4.67-6.25,6.1-9.92,1.43-3.67,1.68-8.15-.42-11.43Z"/>
              </g>
              <path class="cls-3" d="M-9.92,22.63C-29.45,10.77-84.87-23.25-96.58-7.38c-11.71,15.86,24.7,57.06,33.4,71.79,6.55,11.09,14.63,21.4,24.92,28.46,10.29,7.06,23.02,10.62,34.93,7.79,11.92-2.83,22.61-12.73,25.31-25.56,2.3-10.95-1.32-22.64-7.66-31.55C7.98,34.64-.84,28.15-9.92,22.63Z"/>
            </g>
            <g class="cls-11">
              <g>
                <path class="cls-3" d="M708.59,869.41s-40.09,11.94-42.28,23.38c-2.19,11.45,18.83,44.25,21.48,55.59,4.8,20.5,13.81,47.21,30.35,58.6,21.63,14.89,49.7,10.8,74.91,5.58,19.83-4.11,42.23-16.78,51.76-35.97,6.73-13.56,4.93-30.21,.78-44.92-8.35-29.61-26.75-57.12-53.14-69.34-26.39-12.22-83.86,7.09-83.86,7.09Z"/>
                <path class="cls-3" d="M832.56,1009.23s-20.22,7.93-35.48,13.03c-15.26,5.11-30.65,11.19-42.9,22.24-12.25,11.05-32.03,28.32-29.97,45.39,2.05,16.99,25.48,30.71,39.85,38.06,14.37,7.35,30.6,9.1,46.48,9.98,14.74,.81,94.14-9.54,99.93-22.73,4.1-9.36-35.15-61.35-41.56-80.93-2.27-6.92-2.08-27.82-6.55-33.36-4.47-5.54-29.79,8.3-29.79,8.3Z"/>
                <path class="cls-3" d="M640.96,860.87c3.7-10.37-10.74-18.77-12.2-22.75-5.87-15.97-14.35-30.81-24.95-43.64-7.98-9.66-17.32-18.3-28.34-23.41-11.02-5.11-23.89-6.42-35.05-1.65-11.16,4.77-20.09,16.19-20.84,29.09-.64,11.02-3.55,28.28-.59,42.82,2.96,14.54,18.68,27.03,28.3,30.85,20.69,8.22,89.96-.93,93.66-11.3Z"/>
                <path class="cls-3" d="M697.69,1096.34c10.74-19.87,31.23-56.02,24.96-66.83-6.27-10.82-49.81-13.41-68.94-18.58-19.13-5.17-39.83-5.92-58.21,1.81-18.37,7.74-33.93,24.96-37.22,45.92-4.77,30.34,16.31,58.86,40.46,75.29,14.41,9.8,31.54,17.14,48.26,13.62,23.48-4.93,38.65-28.95,50.69-51.22Z"/>
                <path class="cls-3" d="M686.25,1000.66c13.8-13.07-35.71-86.68-40.53-111.02-4.48-8.44-13.99-12.58-23.02-12.71-9.02-.13-17.77,3.08-26.3,6.25-13.1,4.87-26.21,9.74-39.31,14.61-5.76,2.14-11.73,4.42-16.06,9.03-8.86,9.43-7.96,24.84-6.44,38.16,1.49,13.04,3.98,27.84,14.35,34.76,6.08,4.06,50.01,11.41,57.16,11.64,25.42,.84,66.34,22.35,80.14,9.28Z"/>
                <path class="cls-3" d="M656.59,858.34c9.63,5.5,21.36,1.09,31.44-3.36,32.76-14.48,109.16,.93,118.75-9.56,9.59-10.49-18.69-76.92-22.11-98.16-1.54-9.55-4.18-19.75-11.37-25.57-8.41-6.81-20.15-5.39-30.43-2.96-26.27,6.21-52.21,17.45-71.78,37.32-19.58,19.87-31.94,49.39-27.74,78.01,1.41,9.62,5.25,19.73,13.24,24.29Z"/>
                <path class="cls-3" d="M568.45,999.02c-1.86-2.9-5.11-4.29-8.17-5.52-5.19-2.09-10.38-4.18-15.56-6.27-5.21-2.1-10.53-4.22-16.09-4.44-8.51-.34-16.57,3.78-24.22,7.81-15,7.89-45.83,13.67-43.32,26.34,3.33,8.51,11.43,13.6,19.36,17.11,7.93,3.51,16.45,6.19,22.89,12.3,4.06,3.85,7.01,8.82,10.18,13.54,3.17,4.72,6.73,9.36,11.5,12.09,4.77,2.73,11.03,3.16,15.35-.35,4.59-3.73,5.73-10.48,7.09-16.5,2.84-12.55,8.08-24.45,15.31-34.76,2.23-3.17,4.67-6.25,6.1-9.92,1.43-3.67,1.68-8.15-.42-11.43Z"/>
              </g>
              <g>
                <path class="cls-3" d="M219.13,869.41s-40.09,11.94-42.28,23.38,18.83,44.25,21.48,55.59c4.8,20.5,13.81,47.21,30.35,58.6,21.63,14.89,49.7,10.8,74.91,5.58,19.83-4.11,42.23-16.78,51.76-35.97,6.73-13.56,4.93-30.21,.78-44.92-8.35-29.61-26.75-57.12-53.14-69.34-26.39-12.22-83.86,7.09-83.86,7.09Z"/>
                <path class="cls-3" d="M343.09,1009.23s-20.22,7.93-35.48,13.03c-15.26,5.11-30.65,11.19-42.9,22.24-12.25,11.05-32.03,28.32-29.97,45.39,2.05,16.99,25.48,30.71,39.85,38.06,14.37,7.35,30.6,9.1,46.48,9.98,14.74,.81,94.14-9.54,99.93-22.73,4.1-9.36-35.15-61.35-41.56-80.93-2.27-6.92-2.08-27.82-6.55-33.36-4.47-5.54-29.79,8.3-29.79,8.3Z"/>
                <path class="cls-3" d="M507.72,868.03c-11.59-12.14-29.66-13.85-45.58-10.88-46.98,8.74-85.41,55.49-87.79,106.79-.73,15.18,15.36,28.56,28.73,33.43,13.36,4.87,27.91,3.32,41.94,1.71,15.9-1.82,32.63-3.98,45.5-14.21,15.2-12.08,21.85-32.88,26.04-52.73,4.65-22.06,6.23-48.35-8.82-64.11Z"/>
                <path class="cls-3" d="M369.13,911.42c16.73,0,45.69-69.63,53.23-95.13,7.62-25.76,.53-55.88-17.57-74.61-8.49-8.79-20.46-15.33-31.87-12.15-6.88,1.92-12.54,7.07-17.8,12.21-9.5,9.29-18.79,19.38-24.04,32-7.22,17.32-5.95,37.64-.3,55.62,5.65,17.98,21.61,82.07,38.34,82.08Z"/>
                <path class="cls-3" d="M479.55,1046.72c-19.53-11.87-74.95-45.88-86.66-30.02-11.71,15.86,24.7,57.06,33.4,71.79,6.55,11.09,14.63,21.4,24.92,28.46,10.29,7.06,23.02,10.62,34.93,7.79,11.92-2.83,22.61-12.73,25.31-25.56,2.3-10.95-1.32-22.64-7.66-31.55-6.34-8.91-15.16-15.4-24.24-20.91Z"/>
                <path class="cls-3" d="M151.5,860.87c3.7-10.37-10.74-18.77-12.2-22.75-5.87-15.97-14.35-30.81-24.95-43.64-7.98-9.66-17.32-18.3-28.34-23.41s-23.89-6.42-35.05-1.65c-11.16,4.77-20.09,16.19-20.84,29.09-.64,11.02-3.55,28.28-.59,42.82,2.96,14.54,18.68,27.03,28.3,30.85,20.69,8.22,89.96-.93,93.66-11.3Z"/>
                <path class="cls-3" d="M208.22,1096.34c10.74-19.87,31.23-56.02,24.96-66.83-6.27-10.82-49.81-13.41-68.94-18.58-19.13-5.17-39.83-5.92-58.21,1.81-18.37,7.74-33.93,24.96-37.22,45.92-4.77,30.34,16.31,58.86,40.46,75.29,14.41,9.8,31.54,17.14,48.26,13.62,23.48-4.93,38.65-28.95,50.69-51.22Z"/>
                <path class="cls-3" d="M196.79,1000.66c13.8-13.07-35.71-86.68-40.53-111.02-4.48-8.44-13.99-12.58-23.02-12.71-9.02-.13-17.77,3.08-26.3,6.25-13.1,4.87-26.21,9.74-39.31,14.61-5.76,2.14-11.73,4.42-16.06,9.03-8.86,9.43-7.96,24.84-6.44,38.16,1.49,13.04,3.98,27.84,14.35,34.76,6.08,4.06,50.01,11.41,57.16,11.64,25.42,.84,66.34,22.35,80.14,9.28Z"/>
                <path class="cls-3" d="M167.13,858.34c9.63,5.5,21.36,1.09,31.44-3.36,32.76-14.48,109.16,.93,118.75-9.56,9.59-10.49-18.69-76.92-22.11-98.16-1.54-9.55-4.18-19.75-11.37-25.57-8.41-6.81-20.15-5.39-30.43-2.96-26.27,6.21-52.21,17.45-71.78,37.32-19.58,19.87-31.94,49.39-27.74,78.01,1.41,9.62,5.25,19.73,13.24,24.29Z"/>
                <path class="cls-3" d="M78.99,999.02c-1.86-2.9-5.11-4.29-8.17-5.52-5.19-2.09-10.38-4.18-15.56-6.27-5.21-2.1-10.53-4.22-16.09-4.44-8.51-.34-16.57,3.78-24.22,7.81-15,7.89-45.83,13.67-43.32,26.34,3.33,8.51,11.43,13.6,19.36,17.11,7.93,3.51,16.45,6.19,22.89,12.3,4.06,3.85,7.01,8.82,10.18,13.54,3.17,4.72,6.73,9.36,11.5,12.09,4.77,2.73,11.03,3.16,15.35-.35,4.59-3.73,5.73-10.48,7.09-16.5,2.84-12.55,8.08-24.45,15.31-34.76,2.23-3.17,4.67-6.25,6.1-9.92,1.43-3.67,1.68-8.15-.42-11.43Z"/>
                <path class="cls-3" d="M510.78,780.08c-2.3-5.8-6.95-10.23-12.11-13.22-5.16-2.98-10.87-4.67-16.52-6.33-7.75-2.28-15.62-4.58-23.65-4.59-8.04,0-16.4,2.56-22.01,8.76-4.12,5.11-.22,29.77-2.81,41.62-2.59,11.85-6.3,23.4-8.7,35.3-.76,3.78-.85,8.8,2.45,10.35,1.29,.61,2.76,.45,4.16,.28,20.95-2.54,41.9-5.08,62.85-7.63,4.92-.6,10.44-1.56,13.28-5.93,3.14-4.82,1.52-11.33,1.24-17.2-.67-13.98,6.92-28.54,1.81-41.41Z"/>
              </g>
              <g>
                <path class="cls-3" d="M18.26,868.03c-11.59-12.14-29.66-13.85-45.58-10.88-46.98,8.74-85.41,55.49-87.79,106.79-.73,15.18,15.36,28.56,28.73,33.43,13.36,4.87,27.91,3.32,41.94,1.71,15.9-1.82,32.63-3.98,45.5-14.21,15.2-12.08,21.85-32.88,26.04-52.73,4.65-22.06,6.23-48.35-8.82-64.11Z"/>
                <path class="cls-3" d="M-9.92,1046.72c-19.53-11.87-74.95-45.88-86.66-30.02-11.71,15.86,24.7,57.06,33.4,71.79,6.55,11.09,14.63,21.4,24.92,28.46,10.29,7.06,23.02,10.62,34.93,7.79,11.92-2.83,22.61-12.73,25.31-25.56,2.3-10.95-1.32-22.64-7.66-31.55-6.34-8.91-15.16-15.4-24.24-20.91Z"/>
                <path class="cls-3" d="M21.31,780.08c-2.3-5.8-6.95-10.23-12.11-13.22-5.16-2.98-10.87-4.67-16.52-6.33-7.75-2.28-15.62-4.58-23.65-4.59-8.04,0-16.4,2.56-22.01,8.76-4.12,5.11-.22,29.77-2.81,41.62-2.59,11.85-6.3,23.4-8.7,35.3-.76,3.78-.85,8.8,2.45,10.35,1.29,.61,2.76,.45,4.16,.28,20.95-2.54,41.9-5.08,62.85-7.63,4.92-.6,10.44-1.56,13.28-5.93,3.14-4.82,1.52-11.33,1.24-17.2-.67-13.98,6.92-28.54,1.81-41.41Z"/>
              </g>
              <g>
                <path class="cls-3" d="M894.9,662.7c-3.13-6.55-10.64-8.74-17.22-10.72-12.95-3.89-25.44-9.52-37.11-16.71-11.68-7.2-12.64-10.04-25.85-12.78-12.49-2.59-14.36-42.01-34.44-42.18-20.08-.17-15.81,33.38-55.17,50.92-5.5,2.22-9.78,2.91-11.75,7.53-2.09,8.89,2.88,24.03,5.52,33.03,2.64,9,7.28,17.61,14.4,23.11,10.06,7.78,23.38,8.35,34.72,13.72,9.43,4.47,17.2,12.11,25.69,18.4,8.49,6.29,18.59,11.44,28.77,9.78,8.84-1.44,16.24-7.71,23.19-13.76,12.26-10.68,24.53-21.36,36.79-32.03,4.1-3.57,8.28-7.24,11.03-12.08,2.75-4.84,3.85-11.17,1.44-16.22Z"/>
                <path class="cls-3" d="M813.18,486.98c-1.86-2.9-5.11-4.29-8.17-5.52-5.19-2.09-10.38-4.18-15.56-6.27-5.21-2.1-10.53-4.22-16.09-4.44-8.51-.34-16.57,3.78-24.22,7.81-15,7.89-45.83,13.67-43.32,26.34,3.33,8.51,11.43,13.6,19.36,17.11,7.93,3.51,16.46,6.19,22.89,12.3,4.06,3.85,7.01,8.82,10.18,13.54,3.17,4.72,6.73,9.36,11.5,12.09,4.77,2.73,11.03,3.16,15.35-.35,4.59-3.73,5.73-10.48,7.09-16.5,2.84-12.55,8.08-24.45,15.31-34.76,2.23-3.17,4.67-6.25,6.1-9.92,1.43-3.67,1.68-8.15-.42-11.43Z"/>
              </g>
              <g>
                <path class="cls-3" d="M463.86,357.37s-40.09,11.94-42.28,23.38c-2.19,11.45,18.83,44.25,21.48,55.59,4.8,20.5,13.81,47.21,30.35,58.6,21.63,14.89,49.7,10.8,74.91,5.58,19.83-4.11,42.23-16.78,51.76-35.97,6.73-13.56,4.93-30.21,.78-44.92-8.35-29.61-26.75-57.12-53.14-69.34s-83.86,7.09-83.86,7.09Z"/>
                <path class="cls-3" d="M587.82,497.18s-20.22,7.93-35.48,13.03c-15.26,5.11-30.65,11.19-42.9,22.24-12.25,11.05-32.03,28.32-29.97,45.39,2.05,16.99,25.48,30.71,39.85,38.06,14.37,7.35,30.6,9.1,46.48,9.98,14.74,.81,94.14-9.54,99.93-22.73,4.1-9.36-35.15-61.35-41.56-80.93-2.27-6.92-2.08-27.82-6.55-33.36-4.47-5.54-29.79,8.3-29.79,8.3Z"/>
                <path class="cls-3" d="M752.45,355.99c-11.59-12.14-29.66-13.85-45.58-10.88-46.98,8.74-85.41,55.49-87.79,106.79-.73,15.18,15.36,28.56,28.73,33.43,13.36,4.87,27.91,3.32,41.94,1.71,15.9-1.82,32.63-3.98,45.5-14.21,15.2-12.08,21.85-32.88,26.04-52.73,4.65-22.06,6.23-48.35-8.82-64.11Z"/>
                <path class="cls-3" d="M724.28,534.68c-19.53-11.87-74.95-45.88-86.66-30.02-11.71,15.86,24.7,57.06,33.4,71.79,6.55,11.09,14.63,21.4,24.92,28.46,10.29,7.06,23.02,10.62,34.93,7.79,11.92-2.83,22.61-12.73,25.31-25.56,2.3-10.95-1.32-22.64-7.66-31.55-6.34-8.91-15.16-15.4-24.24-20.91Z"/>
                <path class="cls-3" d="M452.96,584.29c10.74-19.87,31.23-56.02,24.96-66.83s-49.81-13.41-68.94-18.58c-19.13-5.17-39.83-5.92-58.21,1.81-18.37,7.74-33.93,24.96-37.22,45.92-4.77,30.34,16.31,58.86,40.46,75.29,14.41,9.8,31.54,17.14,48.26,13.62,23.48-4.93,38.65-28.95,50.69-51.22Z"/>
                <path class="cls-3" d="M441.52,488.62c13.8-13.07-35.71-86.68-40.53-111.02-4.48-8.44-13.99-12.58-23.02-12.71-9.02-.13-17.77,3.08-26.3,6.25-13.1,4.87-26.21,9.74-39.31,14.61-5.76,2.14-11.73,4.42-16.06,9.03-8.86,9.43-7.96,24.84-6.44,38.16,1.49,13.04,3.98,27.84,14.35,34.76,6.08,4.06,50.01,11.41,57.16,11.64,25.42,.84,66.34,22.35,80.14,9.28Z"/>
                <path class="cls-3" d="M471.64,603.45c-16.1-5.15-37.88,61.75-50.06,90.38-4.06,9.53-7.29,21.23-1.99,30.02,6.62,10.97,21.33,10.07,33.34,12.01,12.53,2.03,24.04,8.4,35.48,14.27,11.44,5.87,23.47,11.42,36.14,11.62,12.67,.2,26.23-6.19,31.51-18.61,5.09-11.94,1.51-26.02-3.42-38.04-15.34-37.42-46.57-84.44-81.02-101.65Z"/>
                <path class="cls-3" d="M606.73,654.65c-9.66,.83-46.16-17.92-57.2-1.17-11.04,16.75,29.09,81.96,40.3,102.6,4.59,8.46,21.17,31.91,29.22,35.41,10.89,4.74,16.3-11.31,26.18-18.43,13.23-9.55,21.01-25.49,32.78-37.34,8.17-8.22,16.21-17.42,19.86-29.25,7.24-23.5,2.73-66.83-8.8-87.88-6.35-8.44-57.84,33.98-82.34,36.08Z"/>
                <path class="cls-3" d="M405.44,662.7c-3.13-6.55-10.64-8.74-17.22-10.72-12.95-3.89-25.44-9.52-37.11-16.71-11.68-7.2-12.64-10.04-25.85-12.78-12.49-2.59-14.36-42.01-34.44-42.18-20.08-.17-15.81,33.38-55.17,50.92-5.5,2.22-9.78,2.91-11.75,7.53-2.09,8.89,2.88,24.03,5.52,33.03,2.64,9,7.28,17.61,14.4,23.11,10.06,7.78,23.38,8.35,34.72,13.72,9.43,4.47,17.2,12.11,25.69,18.4,8.49,6.29,18.58,11.44,28.77,9.78,8.84-1.44,16.24-7.71,23.19-13.76,12.26-10.68,24.53-21.36,36.79-32.03,4.1-3.57,8.28-7.24,11.03-12.08,2.75-4.84,3.85-11.17,1.44-16.22Z"/>
                <path class="cls-3" d="M323.72,486.98c-1.86-2.9-5.11-4.29-8.17-5.52-5.19-2.09-10.38-4.18-15.56-6.27-5.21-2.1-10.53-4.22-16.09-4.44-8.51-.34-16.57,3.78-24.22,7.81-15,7.89-45.83,13.67-43.32,26.34,3.33,8.51,11.43,13.6,19.36,17.11,7.93,3.51,16.45,6.19,22.89,12.3,4.06,3.85,7.01,8.82,10.18,13.54s6.73,9.36,11.5,12.09c4.77,2.73,11.03,3.16,15.35-.35,4.59-3.73,5.73-10.48,7.09-16.5,2.84-12.55,8.08-24.45,15.31-34.76,2.23-3.17,4.67-6.25,6.1-9.92,1.43-3.67,1.68-8.15-.42-11.43Z"/>
              </g>
              <g>
                <path class="cls-3" d="M-25.61,357.37s-40.09,11.94-42.28,23.38c-2.19,11.45,18.83,44.25,21.48,55.59,4.8,20.5,13.81,47.21,30.35,58.6,21.63,14.89,49.7,10.8,74.91,5.58,19.83-4.11,42.23-16.78,51.76-35.97,6.73-13.56,4.93-30.21,.78-44.92-8.35-29.61-26.75-57.12-53.14-69.34-26.39-12.22-83.86,7.09-83.86,7.09Z"/>
                <path class="cls-3" d="M98.36,497.18s-20.22,7.93-35.48,13.03-30.65,11.19-42.9,22.24c-12.25,11.05-32.03,28.32-29.97,45.39,2.05,16.99,25.48,30.71,39.85,38.06,14.37,7.35,30.6,9.1,46.48,9.98,14.74,.81,94.14-9.54,99.93-22.73,4.1-9.36-35.15-61.35-41.56-80.93-2.27-6.92-2.08-27.82-6.55-33.36-4.47-5.54-29.79,8.3-29.79,8.3Z"/>
                <path class="cls-3" d="M262.99,355.99c-11.59-12.14-29.66-13.85-45.58-10.88-46.98,8.74-85.41,55.49-87.79,106.79-.73,15.18,15.36,28.56,28.73,33.43,13.36,4.87,27.91,3.32,41.94,1.71,15.9-1.82,32.63-3.98,45.5-14.21,15.2-12.08,21.85-32.88,26.04-52.73,4.65-22.06,6.23-48.35-8.82-64.11Z"/>
                <path class="cls-3" d="M234.82,534.68c-19.53-11.87-74.95-45.88-86.66-30.02-11.71,15.86,24.7,57.06,33.4,71.79,6.55,11.09,14.63,21.4,24.92,28.46,10.29,7.06,23.02,10.62,34.93,7.79,11.92-2.83,22.61-12.73,25.31-25.56,2.3-10.95-1.32-22.64-7.66-31.55-6.34-8.91-15.16-15.4-24.24-20.91Z"/>
                <path class="cls-3" d="M-17.82,603.45c-16.1-5.15-37.88,61.75-50.06,90.38-4.06,9.53-7.29,21.23-1.99,30.02,6.62,10.97,21.33,10.07,33.34,12.01,12.53,2.03,24.04,8.4,35.48,14.27,11.44,5.87,23.47,11.42,36.14,11.62,12.67,.2,26.23-6.19,31.51-18.61,5.09-11.94,1.51-26.02-3.42-38.04-15.34-37.42-46.57-84.44-81.02-101.65Z"/>
                <path class="cls-3" d="M117.26,654.65c-9.66,.83-46.16-17.92-57.2-1.17-11.04,16.75,29.09,81.96,40.3,102.6,4.59,8.46,21.17,31.91,29.22,35.41,10.89,4.74,16.3-11.31,26.18-18.43,13.23-9.55,21.01-25.49,32.78-37.34,8.17-8.22,16.21-17.42,19.86-29.25,7.24-23.5,2.73-66.83-8.8-87.88-6.35-8.44-57.84,33.98-82.34,36.08Z"/>
              </g>
            </g>
          </g>
        </g>
        <g>
          <path class="cls-2" d="M952.63,903.03c-32.41-53.03-104.99-72.5-157.06-42.12-32.48,18.95-54.71,52.63-75.15,85.55-1.65,2.65-3.3,5.32-4.95,7.98-6.19,2.64-11.84,6.73-16.34,11.98-6.5,7.57-11.06,17.7-19.79,21.99-1.92,.94-4.03,1.56-6.13,1.35-1.89-.19-3.65-1.04-5.48-1.56-7.25-2.04-15.59,1.84-19.12,8.9-3.07,6.14-2.59,13.67-5.24,20.03-3.64,8.72-12.69,13.68-21.57,14.8-2.32,.29-4.72,.38-6.87,1.35-4.62,2.09-7.21,7.84-11.98,9.52-4.29,1.51-8.94-.79-12.56-3.67-12.02-9.57-18.94-26.03-32.62-32.57-6.87-3.29-14.96-3.58-22.03-.79-3.37,1.33-6.51,3.32-9.81,4.82-8.15-13.66-15.56-28.01-27.04-38.43-24.37-22.11-61.21-20.74-91.05-8.41-7.86,3.25-15.42,7.14-22.82,11.39-4.76-2.2-9.42-4.87-14.45-4.18-5.64,.76-9.95,5.51-14.04,9.71-7.32,7.51-15.47,14.11-24.22,19.62-4.38,2.76-9.17,5.32-14.26,5.23-3.58-.06-7.15-1.43-10.66-.73-4.38,.88-7.59,4.7-11.08,7.66-9.37,7.94-22.78,10.07-33.92,5.39-3.13-1.32-6.09-3.13-9.37-3.94-7.02-1.73-14.55,1.36-21.5-.66-7.03-2.04-11.97-8.99-14.42-16.3-2.45-7.32-2.93-15.19-4.25-22.83-1.98-11.48-6.11-22.93-13.97-31.05-7.85-8.12-19.95-12.23-30.14-8-1.84,.77-3.69,1.8-5.67,1.7-3.87-.21-6.26-4.47-7.92-8.21-5.74-12.92-13.52-27.71-26.85-29.28-3.7-.44-7.49,.26-11.12-.57-4.34-.99-8.05-4.04-12.34-5.25-4.2-1.18-8.65-.46-12.67,1.4-39.09-15.56-84.79-13.11-120.89,9.55l14.15,13.39c22.21-12.57,47.67-10.81,71.63-1.38,5.23,4.08,9.67,8.66,11.8,14.87,1.8,5.24,1.61,10.91,2.4,16.38,.79,5.47,2.94,11.27,7.8,14.09,6.86,3.97,19.86,4.39,27.78,5.27,16.64,1.85,19.96,17.62,34.39,25.94,4.35,2.51,9.35,3.8,14.39,3.94,14.29,14.08,29.24,27.12,46.44,36.77,43.69,24.51,99.3,22.89,141.67-4.13,18.89-12.04,35.63-28.88,56.49-35.95,6.2,2.77,11.81,7.03,16.16,12.5,5.9,7.42,10.04,17.26,18.42,21.11,3.05,1.4,6.42,1.86,9.74,1.87,13.38,.06,26.7-6.65,39.78-3.65,8.88,2.04,16.31,8.3,24.52,12.44,6.07,3.06,12.65,4.91,19.33,5.57,21.29,15.25,43.63,28.47,68.81,30.36,48.35,3.62,89.85-35.56,120.05-76,12.06-16.15,23.71-33.24,36.15-49.33,14.26-6.74,25.36-19.51,37.22-30.51,12.66-11.74,28.46-22.3,45.08-19.86,9.74,1.43,18.99,7.26,28.76,6.07,10.01-1.22,17.82-9.46,26.74-14.46,5.17-2.9,10.87-4.7,16.68-5.36,15.82,5.31,30.64,13.89,43.14,25.58l1.84-6.86Z"/>
          <path class="cls-1" d="M665.25,954.87c-3.61-2.75-8.81-2.49-12.52,.11-3.71,2.59-5.96,7.17-6.52,11.86-1.81,.82-3.63,4.37-2.77,6.26,.86,1.89,2.73,3.04,4.64,3.57,1.9,.53,3.89,.57,5.84,.87,3.22,.51,6.33,1.77,9.57,1.93,3.25,.16,6.9-1.14,8.27-4.28,1.15-2.63,.4-5.72-.37-8.5-1.21-4.41-2.64-9.14-6.14-11.81Z"/>
          <path class="cls-1" d="M621.43,989.18c-2.12,3.66,.41,9.27,4.42,9.77,4.01,.5,8.06-5.87,5.75-9.91-2.21-3.6-8.05-3.52-10.17,.14Z"/>
          <path class="cls-1" d="M486.38,930.14c-1.63-2.8-2.23-6.52-4.85-8.26-2.63-1.75-6.04-.65-8.95,.48-3.75,1.46-7.65,3.03-10.35,6.16-2.7,3.14-3.92,9.2-1.38,12.49,1.03,2.71,3.98,4.02,6.72,4.27,2.73,.25,5.5-.28,8.22,.09,3.3,.45,6.35,2.19,9.64,2.76,3.29,.57,7.31-.55,8.45-3.88,.92-2.67-.39-5.64-2.13-7.8-1.74-2.15-3.95-3.89-5.35-6.31Z"/>
          <path class="cls-1" d="M439.69,933.61s-1.43-6.27-3.59-8.27c-2.16-2-5.77-2.06-7.82,.08-1.78,1.86-2.13,4.82-1.77,7.45,.36,2.61,1.36,5.21,3.24,6.93,1.88,1.72,4.72,2.36,6.9,1.11,4.15-2.78,3.03-7.47,3.03-7.47v.17Z"/>
          <path class="cls-1" d="M447.45,905.57c-3.03,2.21-2.87,7.86,.28,9.87,3.15,2.01,7.89-.5,8.3-4.39,0-4.86-5.55-7.7-8.58-5.49Z"/>
          <path class="cls-1" d="M309.15,969.37c-1.12-2.32-1.56-5.35-3.73-6.54-1.97-1.07-4.32-.04-6.29,1.03-5.88,3.2-11.61,6.74-17.14,10.59-2.96,2.06-5.93,4.29-7.93,7.41-1.99,3.12-2.84,7.33-1.26,10.7,0,0,3.48,6.9,11.89,8.6,4.66-.09,9.04-2.25,13.26-4.38,4.21-2.12,8.42-4.24,12.63-6.36,2.97-1.49,6.29-3.46,6.89-6.9,.49-2.84-1.12-5.61-2.99-7.69-1.87-2.09-4.1-3.9-5.34-6.47Z"/>
          <path class="cls-1" d="M906.2,818.27c-.15-1.99-.6-4-1.63-5.67-2.7-4.35-8.3-5.09-13.18-5.41-5.01-.33-10.13-.65-14.98,.74-4.85,1.38-9.48,4.79-11.16,9.84-.9,2.7-.76,6.07,1.22,8.02,.91,.9,2.1,1.4,3.26,1.88,5.95,2.45,11.9,4.91,17.85,7.36,3.86,1.59,8.24,3.17,11.98,1.29,7.66-2.74,7.27-9.46,6.65-18.05Z"/>
          <path class="cls-1" d="M175.29,885.43c-3.28-3.21-7.44-6.07-11.86-5.48-4.61,.62-8.26,5.2-8.81,10.12s1,10.56,4.36,13.99c2.53,4.67,10.3,6.01,15.13,4.44,4.84-1.56,8.33-5.11,8.01-10.49-.3-4.96-3.41-9.21-6.84-12.58Z"/>
          <path class="cls-1" d="M110.67,862.6c-2.07-2.01-4.87-3.78-7.54-2.9-1.79,.59-3.06,2.23-4.6,3.36-2.67,1.98-6.09,2.42-8.95,4.08-2.86,1.66-3.57,8.84-3.57,8.84,.17,3.95,4.39,6.42,8.07,6.93,3.68,.52,7.34-.8,10.85-2.09,4.28-1.58,9.22-3.97,9.95-8.73,.55-3.61-1.68-7.03-4.22-9.49Z"/>
          <path class="cls-1" d="M158.27,864.33s-2.45-4.28-4.17-4.37c-1.72-.09-3.33,.83-4.82,1.74-2.5,1.53-5.32,3.93-4.73,6.94,.55,2.76,3.68,3.91,6.32,3.97,2.23,.05,4.59-.37,6.28-1.91s2.43-4.45,1.12-6.37Z"/>
          <path class="cls-1" d="M857.76,788.3c-1.66-.61-3.5-.13-5.13,.57-2.31,1-4.52,2.53-5.81,4.81-1.29,2.28-1.48,5.39,0,7.53,1.88,2.7,5.73,2.97,8.63,1.66,3.04-1.37,5.47-4.22,6.47-7.58,.66-1.74-2.5-6.38-4.17-6.98Z"/>
          <path class="cls-1" d="M764.62,866.52c1.69-4.72,7.65-4.03,9.07-7.8s-.15-8.11-4.16-11.21c-4.01-3.1-9.46,1.04-12.19,1.85-3.45,1.03-8.7,10.15-8.57,13.97,.13,4,2.08,8.95,7.56,10.01,5.48,1.06,6.61-2.11,8.31-6.82Z"/>
        </g>
      </g>
    </g>
  </g>
</svg>